G04 Layer_Color=65535*
%FSLAX44Y44*%
%MOMM*%
G71*
G01*
G75*
%ADD45C,0.2540*%
%ADD47C,0.6000*%
%ADD64C,0.2500*%
%ADD65C,0.0000*%
%ADD66C,0.1000*%
%ADD67C,0.2000*%
%ADD68C,0.1200*%
%ADD69C,0.1524*%
%ADD70C,0.1270*%
%ADD71C,0.1500*%
%ADD72C,0.2032*%
D45*
X620400Y630800D02*
Y783200D01*
X518800D02*
X620400D01*
X518800Y630800D02*
Y783200D01*
Y630800D02*
X620400D01*
X1043500Y834000D02*
Y842997D01*
X1047999D01*
X1049498Y841498D01*
Y838499D01*
X1047999Y836999D01*
X1043500D01*
X1052497Y841498D02*
X1053997Y842997D01*
X1056996D01*
X1058495Y841498D01*
Y839998D01*
X1056996Y838499D01*
X1055496D01*
X1056996D01*
X1058495Y836999D01*
Y835499D01*
X1056996Y834000D01*
X1053997D01*
X1052497Y835499D01*
X357000Y883997D02*
Y876499D01*
X358499Y875000D01*
X361498D01*
X362998Y876499D01*
Y883997D01*
X365997Y882498D02*
X367497Y883997D01*
X370496D01*
X371995Y882498D01*
Y880998D01*
X370496Y879499D01*
X368996D01*
X370496D01*
X371995Y877999D01*
Y876499D01*
X370496Y875000D01*
X367497D01*
X365997Y876499D01*
X827000Y961997D02*
Y953000D01*
X831498D01*
X832998Y954500D01*
Y960498D01*
X831498Y961997D01*
X827000D01*
X841995D02*
X838996Y960498D01*
X835997Y957498D01*
Y954500D01*
X837497Y953000D01*
X840496D01*
X841995Y954500D01*
Y955999D01*
X840496Y957498D01*
X835997D01*
X840063Y835375D02*
Y827878D01*
X841562Y826378D01*
X844561D01*
X846061Y827878D01*
Y835375D01*
X849060Y826378D02*
X852059D01*
X850559D01*
Y835375D01*
X849060Y833876D01*
X856557D02*
X858057Y835375D01*
X861056D01*
X862555Y833876D01*
Y827878D01*
X861056Y826378D01*
X858057D01*
X856557Y827878D01*
Y833876D01*
X639318Y905109D02*
Y897611D01*
X640817Y896112D01*
X643817D01*
X645316Y897611D01*
Y905109D01*
X648315Y897611D02*
X649815Y896112D01*
X652814D01*
X654313Y897611D01*
Y903610D01*
X652814Y905109D01*
X649815D01*
X648315Y903610D01*
Y902110D01*
X649815Y900611D01*
X654313D01*
X777000Y827000D02*
Y835997D01*
X781498D01*
X782998Y834498D01*
Y831498D01*
X781498Y829999D01*
X777000D01*
X779999D02*
X782998Y827000D01*
X785997D02*
X788996D01*
X787497D01*
Y835997D01*
X785997Y834498D01*
X793495Y828500D02*
X794994Y827000D01*
X797993D01*
X799493Y828500D01*
Y834498D01*
X797993Y835997D01*
X794994D01*
X793495Y834498D01*
Y832998D01*
X794994Y831498D01*
X799493D01*
X512000Y869000D02*
Y877997D01*
X516498D01*
X517998Y876498D01*
Y873499D01*
X516498Y871999D01*
X512000D01*
X514999D02*
X517998Y869000D01*
X526995D02*
X520997D01*
X526995Y874998D01*
Y876498D01*
X525496Y877997D01*
X522497D01*
X520997Y876498D01*
X535992Y869000D02*
X529994D01*
X535992Y874998D01*
Y876498D01*
X534493Y877997D01*
X531494D01*
X529994Y876498D01*
X706000Y1032000D02*
Y1040997D01*
X710499D01*
X711998Y1039498D01*
Y1036498D01*
X710499Y1034999D01*
X706000D01*
X708999D02*
X711998Y1032000D01*
X714997D02*
X717996D01*
X716497D01*
Y1040997D01*
X714997Y1039498D01*
X722495Y1040997D02*
X728493D01*
Y1039498D01*
X722495Y1033500D01*
Y1032000D01*
X616998Y972997D02*
X611000D01*
Y968499D01*
X613999D01*
X611000D01*
Y964000D01*
X619997D02*
X622996D01*
X621497D01*
Y972997D01*
X619997Y971497D01*
X858150Y995347D02*
Y986350D01*
X862648D01*
X864148Y987849D01*
Y993847D01*
X862648Y995347D01*
X858150D01*
X867147D02*
X873145D01*
Y993847D01*
X867147Y987849D01*
Y986350D01*
X613193Y1002787D02*
Y993790D01*
X617691D01*
X619191Y995289D01*
Y1001287D01*
X617691Y1002787D01*
X613193D01*
X622190Y1001287D02*
X623690Y1002787D01*
X626689D01*
X628188Y1001287D01*
Y999788D01*
X626689Y998288D01*
X625189D01*
X626689D01*
X628188Y996789D01*
Y995289D01*
X626689Y993790D01*
X623690D01*
X622190Y995289D01*
X715000Y897003D02*
Y906000D01*
X710501D01*
X709002Y904501D01*
Y898502D01*
X710501Y897003D01*
X715000D01*
X700005Y906000D02*
X706003D01*
X700005Y900002D01*
Y898502D01*
X701504Y897003D01*
X704503D01*
X706003Y898502D01*
X695548Y492598D02*
X694048Y494097D01*
X691049D01*
X689550Y492598D01*
Y486600D01*
X691049Y485100D01*
X694048D01*
X695548Y486600D01*
X704545Y485100D02*
X698547D01*
X704545Y491098D01*
Y492598D01*
X703046Y494097D01*
X700047D01*
X698547Y492598D01*
X707544Y494097D02*
X713542D01*
Y492598D01*
X707544Y486600D01*
Y485100D01*
X635748Y487248D02*
X634249Y488747D01*
X631250D01*
X629750Y487248D01*
Y481250D01*
X631250Y479750D01*
X634249D01*
X635748Y481250D01*
X644745Y479750D02*
X638747D01*
X644745Y485748D01*
Y487248D01*
X643246Y488747D01*
X640247D01*
X638747Y487248D01*
X653742Y488747D02*
X650743Y487248D01*
X647744Y484249D01*
Y481250D01*
X649244Y479750D01*
X652243D01*
X653742Y481250D01*
Y482749D01*
X652243Y484249D01*
X647744D01*
X374998Y684498D02*
X373498Y685997D01*
X370499D01*
X369000Y684498D01*
Y678500D01*
X370499Y677000D01*
X373498D01*
X374998Y678500D01*
X383995Y677000D02*
X377997D01*
X383995Y682998D01*
Y684498D01*
X382496Y685997D01*
X379497D01*
X377997Y684498D01*
X392992Y685997D02*
X386994D01*
Y681498D01*
X389993Y682998D01*
X391493D01*
X392992Y681498D01*
Y678500D01*
X391493Y677000D01*
X388494D01*
X386994Y678500D01*
X441998Y675498D02*
X440499Y676997D01*
X437500D01*
X436000Y675498D01*
Y669500D01*
X437500Y668000D01*
X440499D01*
X441998Y669500D01*
X450995Y668000D02*
X444997D01*
X450995Y673998D01*
Y675498D01*
X449496Y676997D01*
X446497D01*
X444997Y675498D01*
X458493Y668000D02*
Y676997D01*
X453994Y672499D01*
X459992D01*
X768000Y393000D02*
Y401997D01*
X772498D01*
X773998Y400498D01*
Y397499D01*
X772498Y395999D01*
X768000D01*
X770999D02*
X773998Y393000D01*
X776997D02*
X779996D01*
X778497D01*
Y401997D01*
X776997Y400498D01*
X788993Y393000D02*
Y401997D01*
X784495Y397499D01*
X790493D01*
X741000Y358000D02*
Y366997D01*
X745499D01*
X746998Y365498D01*
Y362499D01*
X745499Y360999D01*
X741000D01*
X743999D02*
X746998Y358000D01*
X749997Y359500D02*
X751497Y358000D01*
X754496D01*
X755995Y359500D01*
Y365498D01*
X754496Y366997D01*
X751497D01*
X749997Y365498D01*
Y363998D01*
X751497Y362499D01*
X755995D01*
X280998Y1029498D02*
X279499Y1030997D01*
X276500D01*
X275000Y1029498D01*
Y1023500D01*
X276500Y1022000D01*
X279499D01*
X280998Y1023500D01*
X283997Y1022000D02*
X286996D01*
X285497D01*
Y1030997D01*
X283997Y1029498D01*
X254998Y919498D02*
X253499Y920997D01*
X250499D01*
X249000Y919498D01*
Y913500D01*
X250499Y912000D01*
X253499D01*
X254998Y913500D01*
X263995Y912000D02*
X257997D01*
X263995Y917998D01*
Y919498D01*
X262496Y920997D01*
X259497D01*
X257997Y919498D01*
X360456Y1031498D02*
X358957Y1032997D01*
X355958D01*
X354458Y1031498D01*
Y1025499D01*
X355958Y1024000D01*
X358957D01*
X360456Y1025499D01*
X363455Y1031498D02*
X364955Y1032997D01*
X367954D01*
X369453Y1031498D01*
Y1029998D01*
X367954Y1028499D01*
X366454D01*
X367954D01*
X369453Y1026999D01*
Y1025499D01*
X367954Y1024000D01*
X364955D01*
X363455Y1025499D01*
X498998Y736498D02*
X497499Y737997D01*
X494500D01*
X493000Y736498D01*
Y730499D01*
X494500Y729000D01*
X497499D01*
X498998Y730499D01*
X506496Y729000D02*
Y737997D01*
X501997Y733499D01*
X507995D01*
X328998Y778498D02*
X327499Y779997D01*
X324500D01*
X323000Y778498D01*
Y772499D01*
X324500Y771000D01*
X327499D01*
X328998Y772499D01*
X337995Y779997D02*
X331997D01*
Y775499D01*
X334996Y776998D01*
X336496D01*
X337995Y775499D01*
Y772499D01*
X336496Y771000D01*
X333497D01*
X331997Y772499D01*
X625998Y421498D02*
X624498Y422997D01*
X621499D01*
X620000Y421498D01*
Y415499D01*
X621499Y414000D01*
X624498D01*
X625998Y415499D01*
X634995Y422997D02*
X631996Y421498D01*
X628997Y418499D01*
Y415499D01*
X630497Y414000D01*
X633496D01*
X634995Y415499D01*
Y416999D01*
X633496Y418499D01*
X628997D01*
X620028Y372087D02*
X618529Y373586D01*
X615530D01*
X614030Y372087D01*
Y366088D01*
X615530Y364589D01*
X618529D01*
X620028Y366088D01*
X623027Y373586D02*
X629025D01*
Y372087D01*
X623027Y366088D01*
Y364589D01*
X511498Y337997D02*
X509999Y339497D01*
X507000D01*
X505500Y337997D01*
Y331999D01*
X507000Y330500D01*
X509999D01*
X511498Y331999D01*
X514497Y337997D02*
X515997Y339497D01*
X518996D01*
X520495Y337997D01*
Y336498D01*
X518996Y334998D01*
X520495Y333499D01*
Y331999D01*
X518996Y330500D01*
X515997D01*
X514497Y331999D01*
Y333499D01*
X515997Y334998D01*
X514497Y336498D01*
Y337997D01*
X515997Y334998D02*
X518996D01*
X496998Y460498D02*
X495499Y461997D01*
X492500D01*
X491000Y460498D01*
Y454500D01*
X492500Y453000D01*
X495499D01*
X496998Y454500D01*
X499997D02*
X501497Y453000D01*
X504496D01*
X505995Y454500D01*
Y460498D01*
X504496Y461997D01*
X501497D01*
X499997Y460498D01*
Y458998D01*
X501497Y457499D01*
X505995D01*
X452598Y456398D02*
X451099Y457897D01*
X448100D01*
X446600Y456398D01*
Y450400D01*
X448100Y448900D01*
X451099D01*
X452598Y450400D01*
X455597Y448900D02*
X458596D01*
X457097D01*
Y457897D01*
X455597Y456398D01*
X463095D02*
X464594Y457897D01*
X467593D01*
X469093Y456398D01*
Y450400D01*
X467593Y448900D01*
X464594D01*
X463095Y450400D01*
Y456398D01*
X481998Y298997D02*
X480499Y300497D01*
X477500D01*
X476000Y298997D01*
Y292999D01*
X477500Y291500D01*
X480499D01*
X481998Y292999D01*
X484997Y291500D02*
X487996D01*
X486497D01*
Y300497D01*
X484997Y298997D01*
X492495Y291500D02*
X495494D01*
X493994D01*
Y300497D01*
X492495Y298997D01*
X533998Y297997D02*
X532499Y299497D01*
X529500D01*
X528000Y297997D01*
Y291999D01*
X529500Y290500D01*
X532499D01*
X533998Y291999D01*
X536997Y290500D02*
X539996D01*
X538497D01*
Y299497D01*
X536997Y297997D01*
X550493Y290500D02*
X544495D01*
X550493Y296498D01*
Y297997D01*
X548993Y299497D01*
X545994D01*
X544495Y297997D01*
X698998Y399498D02*
X697499Y400997D01*
X694500D01*
X693000Y399498D01*
Y393499D01*
X694500Y392000D01*
X697499D01*
X698998Y393499D01*
X701997Y392000D02*
X704996D01*
X703497D01*
Y400997D01*
X701997Y399498D01*
X715493Y400997D02*
X709495D01*
Y396498D01*
X712494Y397998D01*
X713993D01*
X715493Y396498D01*
Y393499D01*
X713993Y392000D01*
X710994D01*
X709495Y393499D01*
X670998Y421498D02*
X669499Y422997D01*
X666499D01*
X665000Y421498D01*
Y415499D01*
X666499Y414000D01*
X669499D01*
X670998Y415499D01*
X673997Y414000D02*
X676996D01*
X675497D01*
Y422997D01*
X673997Y421498D01*
X687493Y422997D02*
X684494Y421498D01*
X681495Y418499D01*
Y415499D01*
X682994Y414000D01*
X685993D01*
X687493Y415499D01*
Y416999D01*
X685993Y418499D01*
X681495D01*
X644998Y421498D02*
X643499Y422997D01*
X640499D01*
X639000Y421498D01*
Y415499D01*
X640499Y414000D01*
X643499D01*
X644998Y415499D01*
X647997Y414000D02*
X650996D01*
X649497D01*
Y422997D01*
X647997Y421498D01*
X655495Y422997D02*
X661493D01*
Y421498D01*
X655495Y415499D01*
Y414000D01*
X700998Y324498D02*
X699499Y325997D01*
X696499D01*
X695000Y324498D01*
Y318500D01*
X696499Y317000D01*
X699499D01*
X700998Y318500D01*
X703997Y317000D02*
X706996D01*
X705497D01*
Y325997D01*
X703997Y324498D01*
X711495D02*
X712994Y325997D01*
X715993D01*
X717493Y324498D01*
Y322998D01*
X715993Y321498D01*
X717493Y319999D01*
Y318500D01*
X715993Y317000D01*
X712994D01*
X711495Y318500D01*
Y319999D01*
X712994Y321498D01*
X711495Y322998D01*
Y324498D01*
X712994Y321498D02*
X715993D01*
X821998Y426498D02*
X820499Y427997D01*
X817499D01*
X816000Y426498D01*
Y420499D01*
X817499Y419000D01*
X820499D01*
X821998Y420499D01*
X824997Y419000D02*
X827996D01*
X826497D01*
Y427997D01*
X824997Y426498D01*
X832495Y420499D02*
X833994Y419000D01*
X836993D01*
X838493Y420499D01*
Y426498D01*
X836993Y427997D01*
X833994D01*
X832495Y426498D01*
Y424998D01*
X833994Y423498D01*
X838493D01*
X760998Y486498D02*
X759499Y487997D01*
X756499D01*
X755000Y486498D01*
Y480499D01*
X756499Y479000D01*
X759499D01*
X760998Y480499D01*
X769995Y479000D02*
X763997D01*
X769995Y484998D01*
Y486498D01*
X768496Y487997D01*
X765497D01*
X763997Y486498D01*
X772994D02*
X774494Y487997D01*
X777493D01*
X778992Y486498D01*
Y480499D01*
X777493Y479000D01*
X774494D01*
X772994Y480499D01*
Y486498D01*
X832998Y907498D02*
X831498Y908997D01*
X828500D01*
X827000Y907498D01*
Y901499D01*
X828500Y900000D01*
X831498D01*
X832998Y901499D01*
X841995Y900000D02*
X835997D01*
X841995Y905998D01*
Y907498D01*
X840496Y908997D01*
X837497D01*
X835997Y907498D01*
X844994Y900000D02*
X847993D01*
X846494D01*
Y908997D01*
X844994Y907498D01*
X858998Y875498D02*
X857498Y876997D01*
X854500D01*
X853000Y875498D01*
Y869500D01*
X854500Y868000D01*
X857498D01*
X858998Y869500D01*
X867995Y868000D02*
X861997D01*
X867995Y873998D01*
Y875498D01*
X866496Y876997D01*
X863497D01*
X861997Y875498D01*
X876992Y868000D02*
X870994D01*
X876992Y873998D01*
Y875498D01*
X875493Y876997D01*
X872494D01*
X870994Y875498D01*
X613000Y1037997D02*
Y1029000D01*
X617499D01*
X618998Y1030499D01*
Y1036498D01*
X617499Y1037997D01*
X613000D01*
X621997Y1029000D02*
X624996D01*
X623497D01*
Y1037997D01*
X621997Y1036498D01*
X986998Y800997D02*
X981000D01*
Y792000D01*
X986998D01*
X981000Y796498D02*
X983999D01*
X991497Y799498D02*
Y797998D01*
X989997D01*
X992996D01*
X991497D01*
Y793500D01*
X992996Y792000D01*
X997495Y800997D02*
Y792000D01*
Y796498D01*
X998994Y797998D01*
X1001993D01*
X1003493Y796498D01*
Y792000D01*
X1006492D02*
X1009491D01*
X1007991D01*
Y800997D01*
X1006492Y799498D01*
X619000Y588997D02*
Y580000D01*
X624998D01*
X627997D02*
X630996D01*
X629497D01*
Y588997D01*
X627997Y587498D01*
X889000Y926000D02*
Y934997D01*
X893499D01*
X894998Y933498D01*
Y930499D01*
X893499Y928999D01*
X889000D01*
X903995Y926000D02*
X897997D01*
X903995Y931998D01*
Y933498D01*
X902496Y934997D01*
X899497D01*
X897997Y933498D01*
X517998Y795499D02*
Y801498D01*
X516498Y802997D01*
X513499D01*
X512000Y801498D01*
Y795499D01*
X513499Y794000D01*
X516498D01*
X514999Y796999D02*
X517998Y794000D01*
X516498D02*
X517998Y795499D01*
X525496Y794000D02*
Y802997D01*
X520997Y798499D01*
X526995D01*
X850998Y787499D02*
Y793498D01*
X849499Y794997D01*
X846499D01*
X845000Y793498D01*
Y787499D01*
X846499Y786000D01*
X849499D01*
X847999Y788999D02*
X850998Y786000D01*
X849499D02*
X850998Y787499D01*
X853997Y793498D02*
X855497Y794997D01*
X858496D01*
X859995Y793498D01*
Y791998D01*
X858496Y790499D01*
X856996D01*
X858496D01*
X859995Y788999D01*
Y787499D01*
X858496Y786000D01*
X855497D01*
X853997Y787499D01*
X326000Y808000D02*
Y816997D01*
X330499D01*
X331998Y815498D01*
Y812499D01*
X330499Y810999D01*
X326000D01*
X328999D02*
X331998Y808000D01*
X334997D02*
X337996D01*
X336497D01*
Y816997D01*
X334997Y815498D01*
X498000Y488000D02*
Y496997D01*
X502499D01*
X503998Y495498D01*
Y492499D01*
X502499Y490999D01*
X498000D01*
X500999D02*
X503998Y488000D01*
X512995D02*
X506997D01*
X512995Y493998D01*
Y495498D01*
X511496Y496997D01*
X508497D01*
X506997Y495498D01*
X777000Y316000D02*
Y324997D01*
X781498D01*
X782998Y323498D01*
Y320499D01*
X781498Y318999D01*
X777000D01*
X779999D02*
X782998Y316000D01*
X790496D02*
Y324997D01*
X785997Y320499D01*
X791995D01*
X678000Y358000D02*
Y366997D01*
X682498D01*
X683998Y365498D01*
Y362499D01*
X682498Y360999D01*
X678000D01*
X680999D02*
X683998Y358000D01*
X692995Y366997D02*
X686997D01*
Y362499D01*
X689996Y363998D01*
X691496D01*
X692995Y362499D01*
Y359500D01*
X691496Y358000D01*
X688497D01*
X686997Y359500D01*
X711000Y358000D02*
Y366997D01*
X715499D01*
X716998Y365498D01*
Y362499D01*
X715499Y360999D01*
X711000D01*
X713999D02*
X716998Y358000D01*
X725995Y366997D02*
X722996Y365498D01*
X719997Y362499D01*
Y359500D01*
X721497Y358000D01*
X724496D01*
X725995Y359500D01*
Y360999D01*
X724496Y362499D01*
X719997D01*
X545000Y485000D02*
Y493997D01*
X549498D01*
X550998Y492498D01*
Y489498D01*
X549498Y487999D01*
X545000D01*
X547999D02*
X550998Y485000D01*
X553997Y493997D02*
X559995D01*
Y492498D01*
X553997Y486499D01*
Y485000D01*
X804000Y360000D02*
Y368997D01*
X808499D01*
X809998Y367498D01*
Y364498D01*
X808499Y362999D01*
X804000D01*
X806999D02*
X809998Y360000D01*
X812997Y367498D02*
X814497Y368997D01*
X817496D01*
X818995Y367498D01*
Y365998D01*
X817496Y364498D01*
X818995Y362999D01*
Y361499D01*
X817496Y360000D01*
X814497D01*
X812997Y361499D01*
Y362999D01*
X814497Y364498D01*
X812997Y365998D01*
Y367498D01*
X814497Y364498D02*
X817496D01*
X860000Y507000D02*
Y515997D01*
X864499D01*
X865998Y514498D01*
Y511498D01*
X864499Y509999D01*
X860000D01*
X862999D02*
X865998Y507000D01*
X868997D02*
X871996D01*
X870497D01*
Y515997D01*
X868997Y514498D01*
X876495Y507000D02*
X879494D01*
X877994D01*
Y515997D01*
X876495Y514498D01*
X768000Y359000D02*
Y367997D01*
X772498D01*
X773998Y366498D01*
Y363498D01*
X772498Y361999D01*
X768000D01*
X770999D02*
X773998Y359000D01*
X776997D02*
X779996D01*
X778497D01*
Y367997D01*
X776997Y366498D01*
X790493Y359000D02*
X784495D01*
X790493Y364998D01*
Y366498D01*
X788993Y367997D01*
X785994D01*
X784495Y366498D01*
X780000Y843000D02*
Y851997D01*
X784499D01*
X785998Y850498D01*
Y847498D01*
X784499Y845999D01*
X780000D01*
X782999D02*
X785998Y843000D01*
X794995D02*
X788997D01*
X794995Y848998D01*
Y850498D01*
X793496Y851997D01*
X790497D01*
X788997Y850498D01*
X797994Y843000D02*
X800993D01*
X799494D01*
Y851997D01*
X797994Y850498D01*
X450000Y941997D02*
Y934500D01*
X451499Y933000D01*
X454498D01*
X455998Y934500D01*
Y941997D01*
X458997Y933000D02*
X461996D01*
X460497D01*
Y941997D01*
X458997Y940498D01*
X387000Y1007997D02*
Y1000499D01*
X388499Y999000D01*
X391498D01*
X392998Y1000499D01*
Y1007997D01*
X401995Y999000D02*
X395997D01*
X401995Y1004998D01*
Y1006498D01*
X400496Y1007997D01*
X397497D01*
X395997Y1006498D01*
X498000Y417997D02*
Y410499D01*
X499500Y409000D01*
X502499D01*
X503998Y410499D01*
Y417997D01*
X511496Y409000D02*
Y417997D01*
X506997Y413498D01*
X512995D01*
X290000Y561997D02*
Y554500D01*
X291500Y553000D01*
X294499D01*
X295998Y554500D01*
Y561997D01*
X304995D02*
X298997D01*
Y557499D01*
X301996Y558998D01*
X303496D01*
X304995Y557499D01*
Y554500D01*
X303496Y553000D01*
X300497D01*
X298997Y554500D01*
X795000Y1038997D02*
Y1031499D01*
X796499Y1030000D01*
X799499D01*
X800998Y1031499D01*
Y1038997D01*
X803997Y1030000D02*
X806996D01*
X805497D01*
Y1038997D01*
X803997Y1037498D01*
X811495Y1030000D02*
X814494D01*
X812994D01*
Y1038997D01*
X811495Y1037498D01*
X558000Y561997D02*
Y554500D01*
X559500Y553000D01*
X562499D01*
X563998Y554500D01*
Y561997D01*
X566997D02*
X572995D01*
Y560498D01*
X566997Y554500D01*
Y553000D01*
X328000Y722997D02*
Y721498D01*
X330999Y718499D01*
X333998Y721498D01*
Y722997D01*
X330999Y718499D02*
Y714000D01*
X336997D02*
X339996D01*
X338497D01*
Y722997D01*
X336997Y721498D01*
X363000Y357997D02*
Y356498D01*
X365999Y353498D01*
X368998Y356498D01*
Y357997D01*
X365999Y353498D02*
Y349000D01*
X377995D02*
X371997D01*
X377995Y354998D01*
Y356498D01*
X376496Y357997D01*
X373497D01*
X371997Y356498D01*
X559054Y873613D02*
Y866115D01*
X560554Y864616D01*
X563553D01*
X565052Y866115D01*
Y873613D01*
X568051Y872114D02*
X569551Y873613D01*
X572550D01*
X574049Y872114D01*
Y870614D01*
X572550Y869115D01*
X574049Y867615D01*
Y866115D01*
X572550Y864616D01*
X569551D01*
X568051Y866115D01*
Y867615D01*
X569551Y869115D01*
X568051Y870614D01*
Y872114D01*
X569551Y869115D02*
X572550D01*
X590000Y617000D02*
Y625997D01*
X594498D01*
X595998Y624498D01*
Y621499D01*
X594498Y619999D01*
X590000D01*
X592999D02*
X595998Y617000D01*
X603496D02*
X600497D01*
X598997Y618499D01*
Y621499D01*
X600497Y622998D01*
X603496D01*
X604995Y621499D01*
Y619999D01*
X598997D01*
X607994Y617000D02*
X610993D01*
X609494D01*
Y625997D01*
X607994D01*
X615492Y617000D02*
X618491D01*
X616991D01*
Y625997D01*
X615492Y624498D01*
X918998Y853498D02*
X917498Y854997D01*
X914500D01*
X913000Y853498D01*
Y847499D01*
X914500Y846000D01*
X917498D01*
X918998Y847499D01*
X921997Y853498D02*
X923497Y854997D01*
X926496D01*
X927995Y853498D01*
Y851998D01*
X926496Y850499D01*
X924996D01*
X926496D01*
X927995Y848999D01*
Y847499D01*
X926496Y846000D01*
X923497D01*
X921997Y847499D01*
X936992Y854997D02*
X930994D01*
Y850499D01*
X933993Y851998D01*
X935493D01*
X936992Y850499D01*
Y847499D01*
X935493Y846000D01*
X932494D01*
X930994Y847499D01*
X315998Y838498D02*
X314499Y839997D01*
X311500D01*
X310000Y838498D01*
Y832499D01*
X311500Y831000D01*
X314499D01*
X315998Y832499D01*
X318997Y838498D02*
X320497Y839997D01*
X323496D01*
X324995Y838498D01*
Y836998D01*
X323496Y835499D01*
X321996D01*
X323496D01*
X324995Y833999D01*
Y832499D01*
X323496Y831000D01*
X320497D01*
X318997Y832499D01*
X333992Y839997D02*
X330993Y838498D01*
X327994Y835499D01*
Y832499D01*
X329494Y831000D01*
X332493D01*
X333992Y832499D01*
Y833999D01*
X332493Y835499D01*
X327994D01*
X365998Y930498D02*
X364498Y931997D01*
X361499D01*
X360000Y930498D01*
Y924500D01*
X361499Y923000D01*
X364498D01*
X365998Y924500D01*
X368997Y930498D02*
X370497Y931997D01*
X373496D01*
X374995Y930498D01*
Y928998D01*
X373496Y927499D01*
X371996D01*
X373496D01*
X374995Y925999D01*
Y924500D01*
X373496Y923000D01*
X370497D01*
X368997Y924500D01*
X377994Y931997D02*
X383992D01*
Y930498D01*
X377994Y924500D01*
Y923000D01*
X322998Y1008498D02*
X321498Y1009997D01*
X318500D01*
X317000Y1008498D01*
Y1002499D01*
X318500Y1001000D01*
X321498D01*
X322998Y1002499D01*
X325997Y1008498D02*
X327497Y1009997D01*
X330496D01*
X331995Y1008498D01*
Y1006998D01*
X330496Y1005499D01*
X328996D01*
X330496D01*
X331995Y1003999D01*
Y1002499D01*
X330496Y1001000D01*
X327497D01*
X325997Y1002499D01*
X334994Y1008498D02*
X336494Y1009997D01*
X339493D01*
X340992Y1008498D01*
Y1006998D01*
X339493Y1005499D01*
X340992Y1003999D01*
Y1002499D01*
X339493Y1001000D01*
X336494D01*
X334994Y1002499D01*
Y1003999D01*
X336494Y1005499D01*
X334994Y1006998D01*
Y1008498D01*
X336494Y1005499D02*
X339493D01*
X1189000Y533997D02*
Y525000D01*
X1193499D01*
X1194998Y526499D01*
Y532498D01*
X1193499Y533997D01*
X1189000D01*
X1202496Y525000D02*
Y533997D01*
X1197997Y529498D01*
X1203995D01*
X315000Y322997D02*
Y314000D01*
X319499D01*
X320998Y315499D01*
Y321498D01*
X319499Y322997D01*
X315000D01*
X323997Y314000D02*
X326996D01*
X325497D01*
Y322997D01*
X323997Y321498D01*
X331495D02*
X332994Y322997D01*
X335993D01*
X337493Y321498D01*
Y315499D01*
X335993Y314000D01*
X332994D01*
X331495Y315499D01*
Y321498D01*
X274000Y322997D02*
Y314000D01*
X278499D01*
X279998Y315499D01*
Y321498D01*
X278499Y322997D01*
X274000D01*
X282997Y314000D02*
X285996D01*
X284497D01*
Y322997D01*
X282997Y321498D01*
X290495Y314000D02*
X293494D01*
X291994D01*
Y322997D01*
X290495Y321498D01*
X344998Y416499D02*
Y422498D01*
X343499Y423997D01*
X340499D01*
X339000Y422498D01*
Y416499D01*
X340499Y415000D01*
X343499D01*
X341999Y417999D02*
X344998Y415000D01*
X343499D02*
X344998Y416499D01*
X347997Y415000D02*
X350996D01*
X349497D01*
Y423997D01*
X347997Y422498D01*
X279648Y417749D02*
Y423748D01*
X278148Y425247D01*
X275149D01*
X273650Y423748D01*
Y417749D01*
X275149Y416250D01*
X278148D01*
X276649Y419249D02*
X279648Y416250D01*
X278148D02*
X279648Y417749D01*
X288645Y416250D02*
X282647D01*
X288645Y422248D01*
Y423748D01*
X287146Y425247D01*
X284147D01*
X282647Y423748D01*
X578000Y299000D02*
Y307997D01*
X582499D01*
X583998Y306498D01*
Y303499D01*
X582499Y301999D01*
X578000D01*
X580999D02*
X583998Y299000D01*
X592995D02*
X586997D01*
X592995Y304998D01*
Y306498D01*
X591496Y307997D01*
X588497D01*
X586997Y306498D01*
X595994D02*
X597494Y307997D01*
X600493D01*
X601992Y306498D01*
Y300499D01*
X600493Y299000D01*
X597494D01*
X595994Y300499D01*
Y306498D01*
X336600Y472500D02*
Y481497D01*
X341099D01*
X342598Y479998D01*
Y476998D01*
X341099Y475499D01*
X336600D01*
X339599D02*
X342598Y472500D01*
X351595D02*
X345597D01*
X351595Y478498D01*
Y479998D01*
X350096Y481497D01*
X347097D01*
X345597Y479998D01*
X360592Y481497D02*
X354594D01*
Y476998D01*
X357593Y478498D01*
X359093D01*
X360592Y476998D01*
Y473999D01*
X359093Y472500D01*
X356094D01*
X354594Y473999D01*
X293600Y472500D02*
Y481497D01*
X298099D01*
X299598Y479997D01*
Y476998D01*
X298099Y475499D01*
X293600D01*
X296599D02*
X299598Y472500D01*
X308595D02*
X302597D01*
X308595Y478498D01*
Y479997D01*
X307096Y481497D01*
X304097D01*
X302597Y479997D01*
X317592Y481497D02*
X314593Y479997D01*
X311594Y476998D01*
Y473999D01*
X313094Y472500D01*
X316093D01*
X317592Y473999D01*
Y475499D01*
X316093Y476998D01*
X311594D01*
X317000Y363000D02*
Y371997D01*
X321498D01*
X322998Y370498D01*
Y367499D01*
X321498Y365999D01*
X317000D01*
X319999D02*
X322998Y363000D01*
X331995D02*
X325997D01*
X331995Y368998D01*
Y370498D01*
X330496Y371997D01*
X327497D01*
X325997Y370498D01*
X334994Y371997D02*
X340992D01*
Y370498D01*
X334994Y364500D01*
Y363000D01*
X273000Y361000D02*
Y369997D01*
X277498D01*
X278998Y368498D01*
Y365499D01*
X277498Y363999D01*
X273000D01*
X275999D02*
X278998Y361000D01*
X287995D02*
X281997D01*
X287995Y366998D01*
Y368498D01*
X286496Y369997D01*
X283497D01*
X281997Y368498D01*
X290994D02*
X292494Y369997D01*
X295493D01*
X296992Y368498D01*
Y366998D01*
X295493Y365499D01*
X296992Y363999D01*
Y362500D01*
X295493Y361000D01*
X292494D01*
X290994Y362500D01*
Y363999D01*
X292494Y365499D01*
X290994Y366998D01*
Y368498D01*
X292494Y365499D02*
X295493D01*
X982000Y878997D02*
Y871499D01*
X983500Y870000D01*
X986498D01*
X987998Y871499D01*
Y878997D01*
X990997Y870000D02*
X993996D01*
X992497D01*
Y878997D01*
X990997Y877498D01*
X1004493Y870000D02*
X998495D01*
X1004493Y875998D01*
Y877498D01*
X1002993Y878997D01*
X999994D01*
X998495Y877498D01*
X1060196Y509270D02*
Y518267D01*
X1064695D01*
X1066194Y516768D01*
Y513769D01*
X1064695Y512269D01*
X1060196D01*
X1069193Y509270D02*
X1072192D01*
X1070693D01*
Y518267D01*
X1069193Y516768D01*
X893000Y308000D02*
Y316997D01*
X897498D01*
X898998Y315498D01*
Y312498D01*
X897498Y310999D01*
X893000D01*
X906496Y308000D02*
Y316997D01*
X901997Y312498D01*
X907995D01*
X260000Y611000D02*
X251003D01*
Y615499D01*
X252502Y616998D01*
X255501D01*
X257001Y615499D01*
Y611000D01*
X251003Y625995D02*
X252502Y622996D01*
X255501Y619997D01*
X258500D01*
X260000Y621497D01*
Y624496D01*
X258500Y625995D01*
X257001D01*
X255501Y624496D01*
Y619997D01*
X620000Y536000D02*
Y550235D01*
X627118D01*
X629490Y547863D01*
Y543118D01*
X627118Y540745D01*
X620000D01*
X643726Y547863D02*
X641353Y550235D01*
X636608D01*
X634235Y547863D01*
Y538373D01*
X636608Y536000D01*
X641353D01*
X643726Y538373D01*
X648471Y550235D02*
Y536000D01*
X655589D01*
X657961Y538373D01*
Y540745D01*
X655589Y543118D01*
X648471D01*
X655589D01*
X657961Y545490D01*
Y547863D01*
X655589Y550235D01*
X648471D01*
X662706Y543118D02*
X672197D01*
X676942Y536000D02*
Y550235D01*
X681687Y545490D01*
X686432Y550235D01*
Y536000D01*
X700667Y550235D02*
X691177D01*
Y536000D01*
X700667D01*
X691177Y543118D02*
X695922D01*
X705412Y550235D02*
X710158D01*
X707785D01*
Y536000D01*
X705412D01*
X710158D01*
X717275Y543118D02*
X726766D01*
X731511Y547863D02*
X733883Y550235D01*
X738628D01*
X741001Y547863D01*
Y545490D01*
X738628Y543118D01*
X736256D01*
X738628D01*
X741001Y540745D01*
Y538373D01*
X738628Y536000D01*
X733883D01*
X731511Y538373D01*
X745746Y547863D02*
X748119Y550235D01*
X752864D01*
X755236Y547863D01*
Y538373D01*
X752864Y536000D01*
X748119D01*
X745746Y538373D01*
Y547863D01*
X759982D02*
X762354Y550235D01*
X767099D01*
X769472Y547863D01*
Y538373D01*
X767099Y536000D01*
X762354D01*
X759982Y538373D01*
Y547863D01*
X774217Y550235D02*
Y540745D01*
X778962Y536000D01*
X783707Y540745D01*
Y550235D01*
X788452Y543118D02*
X797943D01*
X802688Y536000D02*
Y550235D01*
X809805D01*
X812178Y547863D01*
Y543118D01*
X809805Y540745D01*
X802688D01*
X807433D02*
X812178Y536000D01*
X826413Y550235D02*
X816923D01*
Y536000D01*
X826413D01*
X816923Y543118D02*
X821668D01*
X831159Y550235D02*
Y540745D01*
X835904Y536000D01*
X840649Y540745D01*
Y550235D01*
X845394Y547863D02*
X847766Y550235D01*
X852512D01*
X854884Y547863D01*
Y538373D01*
X852512Y536000D01*
X847766D01*
X845394Y538373D01*
Y547863D01*
X859629D02*
X862002Y550235D01*
X866747D01*
X869120Y547863D01*
Y538373D01*
X866747Y536000D01*
X862002D01*
X859629Y538373D01*
Y547863D01*
X873865Y536000D02*
X878610D01*
X876237D01*
Y550235D01*
X873865Y547863D01*
D47*
X653000Y812000D02*
G03*
X653000Y812000I-3000J0D01*
G01*
X662150Y721500D02*
G03*
X662150Y721500I-3000J0D01*
G01*
D64*
X319750Y873000D02*
G03*
X319750Y873000I-1250J0D01*
G01*
X640600Y786500D02*
G03*
X640600Y786500I-1250J0D01*
G01*
X980000Y831000D02*
G03*
X980000Y831000I-1250J0D01*
G01*
X301150Y402000D02*
G03*
X301150Y402000I-1250J0D01*
G01*
X635950Y872000D02*
G03*
X635950Y872000I-1250J0D01*
G01*
X387750Y948000D02*
G03*
X387750Y948000I-1250J0D01*
G01*
X945450Y773100D02*
G03*
X945450Y773100I-1250J0D01*
G01*
X540750Y833500D02*
G03*
X540750Y833500I-1250J0D01*
G01*
X379708Y1017000D02*
G03*
X379708Y1017000I-1250J0D01*
G01*
X305250Y907500D02*
G03*
X305250Y907500I-1250J0D01*
G01*
X306250Y1014500D02*
G03*
X306250Y1014500I-1250J0D01*
G01*
X411250Y642000D02*
G03*
X411250Y642000I-1250J0D01*
G01*
X736050Y449100D02*
G03*
X736050Y449100I-1250J0D01*
G01*
X687550Y923500D02*
G03*
X687550Y923500I-1250J0D01*
G01*
X820813Y822878D02*
G03*
X820813Y822878I-1250J0D01*
G01*
X366150Y402000D02*
G03*
X366150Y402000I-1250J0D01*
G01*
X844350Y569100D02*
X948450D01*
X1214000Y661200D02*
Y679700D01*
X1204300Y670400D02*
X1223600D01*
X1235000Y589900D02*
Y750900D01*
Y589900D02*
X1259000D01*
X1260000D02*
Y750900D01*
X1235000D02*
X1259000D01*
X1235000D02*
Y751500D01*
Y750900D02*
Y785400D01*
X985000D02*
X1235000D01*
X985000Y664000D02*
Y785400D01*
Y750900D02*
X1235000D01*
X985000Y589900D02*
X1235000D01*
X985000Y555400D02*
Y664000D01*
Y555400D02*
X1235000D01*
Y589900D01*
X371000Y768000D02*
X383000D01*
X371000D02*
Y770000D01*
Y780000D01*
X844350Y569100D02*
Y762100D01*
X948450Y569100D02*
Y762100D01*
X844350D02*
X948450D01*
X943000Y431875D02*
Y503000D01*
X808000D02*
X943000D01*
X808000Y431875D02*
Y503000D01*
Y431875D02*
X943000D01*
X386000Y725000D02*
X394000D01*
X386000D02*
Y733000D01*
X1231000Y534000D02*
X1237000D01*
X1231000D02*
X1234000D01*
X1230000Y528000D02*
X1238000D01*
X1230000D02*
X1234000Y532000D01*
Y532000D01*
X1238000Y528000D01*
X1234000Y519000D02*
Y532000D01*
D65*
X777308Y987352D02*
G03*
X777308Y993448I0J3048D01*
G01*
X430578Y562048D02*
G03*
X430578Y555952I0J-3048D01*
G01*
X468000Y902650D02*
G03*
X468000Y902650I-2000J0D01*
G01*
D66*
X603704Y988977D02*
G03*
X603704Y988977I-500J0D01*
G01*
X840513Y973410D02*
G03*
X840513Y973410I-500J0D01*
G01*
X429332Y390165D02*
X428499Y390998D01*
X426833D01*
X426000Y390165D01*
Y386833D01*
X426833Y386000D01*
X428499D01*
X429332Y386833D01*
X430998Y386000D02*
X432664D01*
X431831D01*
Y390998D01*
X430998Y390165D01*
X435164D02*
X435997Y390998D01*
X437663D01*
X438496Y390165D01*
Y389332D01*
X437663Y388499D01*
X436830D01*
X437663D01*
X438496Y387666D01*
Y386833D01*
X437663Y386000D01*
X435997D01*
X435164Y386833D01*
X425332Y357165D02*
X424499Y357998D01*
X422833D01*
X422000Y357165D01*
Y353833D01*
X422833Y353000D01*
X424499D01*
X425332Y353833D01*
X426998Y353000D02*
X428665D01*
X427831D01*
Y357998D01*
X426998Y357165D01*
X433663Y353000D02*
Y357998D01*
X431164Y355499D01*
X434496D01*
D67*
X353000Y879500D02*
X353500D01*
X318500D02*
X319000D01*
X318500Y903000D02*
X353500D01*
X353000Y942500D02*
X353500D01*
X318500D02*
X319000D01*
X318500Y879500D02*
Y942500D01*
X353500Y879500D02*
Y942500D01*
X660000Y931030D02*
Y958970D01*
X576000Y931030D02*
Y958970D01*
X576090D02*
X659910D01*
X576090Y931030D02*
X659910D01*
X640000Y802000D02*
X770000D01*
X640000Y862000D02*
X770000D01*
X640000Y802000D02*
Y862000D01*
X770000Y802000D02*
Y862000D01*
X313800Y611500D02*
Y789300D01*
X263000Y611500D02*
Y789300D01*
Y611500D02*
X313800D01*
X263000Y789300D02*
X313800D01*
X981500Y845500D02*
X1012500D01*
X981500Y840500D02*
X1012500D01*
Y845500D01*
X981500Y840500D02*
Y845500D01*
X293400Y378500D02*
Y386500D01*
X283400Y378500D02*
X293400D01*
Y400500D02*
Y408500D01*
X283400D02*
X293400D01*
X581650Y855500D02*
X631650D01*
X581650Y839500D02*
X631650D01*
Y855500D01*
X581650Y839500D02*
Y855500D01*
X453501Y963000D02*
Y991000D01*
X386501Y963000D02*
Y991000D01*
X453501D01*
X386501Y963000D02*
X453501D01*
X843700Y732600D02*
Y779600D01*
X950700Y732600D02*
Y779600D01*
X843700D02*
X950700D01*
X843700Y732600D02*
X950700D01*
X843700Y737600D02*
X950700D01*
X533000Y810000D02*
Y818000D01*
X523000Y810000D02*
X533000D01*
Y832000D02*
Y840000D01*
X523000D02*
X533000D01*
X638850Y567850D02*
Y748150D01*
X819150Y567850D02*
Y748150D01*
X638850D02*
X819150D01*
X638850Y567850D02*
X819150D01*
X585000Y1025250D02*
X607500D01*
X585000Y998750D02*
X607500D01*
X658500D02*
Y1025250D01*
X634500D02*
X658500D01*
X634500Y998750D02*
X658500D01*
X580500Y1020750D02*
X585000Y1025250D01*
X580500Y1003250D02*
X585000Y998750D01*
X580500Y1003250D02*
Y1020750D01*
X377958Y995000D02*
Y1008500D01*
Y971500D02*
X378458D01*
X348958Y995000D02*
Y1008500D01*
X348458Y971500D02*
X348958D01*
X378458D02*
Y1008500D01*
X348458Y971500D02*
Y1008500D01*
X303500Y825000D02*
X304000D01*
X258000D02*
X258500D01*
X258000D02*
Y901001D01*
X304000Y825000D02*
Y901001D01*
X258000D02*
X258500D01*
X303500D02*
X304000D01*
X258000Y878000D02*
X304000D01*
X304500Y932000D02*
X305000D01*
X259000D02*
X259500D01*
X259000D02*
Y1008000D01*
X305000Y932000D02*
Y1008000D01*
X259000D02*
X259500D01*
X304500D02*
X305000D01*
X259000Y985000D02*
X305000D01*
X388000Y642500D02*
X401500D01*
X364500Y642000D02*
Y642500D01*
X388000Y671500D02*
X401500D01*
X364500D02*
Y672000D01*
Y642000D02*
X401500D01*
X364500Y672000D02*
X401500D01*
X712800Y449600D02*
X726300D01*
X689300Y449100D02*
Y449600D01*
X712800Y478600D02*
X726300D01*
X689300D02*
Y479100D01*
Y449100D02*
X726300D01*
X689300Y479100D02*
X726300D01*
X727050Y940000D02*
Y956000D01*
X689350Y940000D02*
Y956000D01*
X727050D01*
X689350Y940000D02*
X727050D01*
X835062Y816379D02*
X843062D01*
Y808379D02*
Y816379D01*
X813063D02*
X821062D01*
X813063Y808379D02*
Y816379D01*
X772000Y945250D02*
X794500D01*
X772000Y918750D02*
X794500D01*
X845500D02*
Y945250D01*
X821500D02*
X845500D01*
X821500Y918750D02*
X845500D01*
X767500Y940750D02*
X772000Y945250D01*
X767500Y923250D02*
X772000Y918750D01*
X767500Y923250D02*
Y940750D01*
X358400Y378500D02*
Y386500D01*
X348400Y378500D02*
X358400D01*
Y400500D02*
Y408500D01*
X348400D02*
X358400D01*
D68*
X417500Y302200D02*
X431800D01*
Y417200D01*
X417500D02*
X431800D01*
X383800Y302200D02*
X398100D01*
X383800D02*
Y417200D01*
X398100D01*
X358500Y694000D02*
Y708300D01*
Y694000D02*
X473500D01*
Y708300D01*
X358500Y727700D02*
Y742000D01*
X473500D01*
Y727700D02*
Y742000D01*
D69*
X777308Y976684D02*
Y987352D01*
Y993448D01*
Y1004116D01*
X827092Y976684D02*
Y1004116D01*
X428546Y597100D02*
X430578D01*
Y562048D02*
Y597100D01*
Y555952D02*
Y562048D01*
Y520900D02*
Y555952D01*
X325422Y520900D02*
X327454D01*
X325422D02*
Y597100D01*
X327454D01*
X428546Y520900D02*
X430578D01*
X374946Y875054D02*
X383836D01*
X477054Y866164D02*
Y875054D01*
X468164Y772946D02*
X477054D01*
X374946D02*
X383836D01*
X374946Y866164D02*
Y875054D01*
X468164D02*
X477054D01*
Y772946D02*
Y781836D01*
X374946Y772946D02*
Y781836D01*
D70*
X554958Y932535D02*
Y1007465D01*
X465042Y932535D02*
Y1007465D01*
X603000Y502000D02*
Y505386D01*
X604693Y507078D01*
X606386Y505386D01*
Y502000D01*
Y504539D01*
X603000D01*
X608078Y502000D02*
Y507078D01*
X611464Y502000D01*
Y507078D01*
X613157Y502000D02*
Y505386D01*
X614850Y507078D01*
X616542Y505386D01*
Y502000D01*
Y504539D01*
X613157D01*
X618235Y507078D02*
Y502000D01*
X621621D01*
X625853Y507078D02*
X624160D01*
X623313Y506232D01*
Y502846D01*
X624160Y502000D01*
X625853D01*
X626699Y502846D01*
Y506232D01*
X625853Y507078D01*
X631777Y506232D02*
X630931Y507078D01*
X629238D01*
X628392Y506232D01*
Y502846D01*
X629238Y502000D01*
X630931D01*
X631777Y502846D01*
Y504539D01*
X630084D01*
X594000Y435893D02*
Y440971D01*
X595693Y439278D01*
X597385Y440971D01*
Y435893D01*
X604157Y440125D02*
X605003Y440971D01*
X606696D01*
X607542Y440125D01*
Y439278D01*
X606696Y438432D01*
X605849D01*
X606696D01*
X607542Y437585D01*
Y436739D01*
X606696Y435893D01*
X605003D01*
X604157Y436739D01*
X609235Y440971D02*
Y437585D01*
X610928Y435893D01*
X612621Y437585D01*
Y440971D01*
X647276Y758612D02*
X646429Y759458D01*
X644736D01*
X643890Y758612D01*
Y757766D01*
X644736Y756919D01*
X646429D01*
X647276Y756073D01*
Y755226D01*
X646429Y754380D01*
X644736D01*
X643890Y755226D01*
X649815Y757766D02*
X651507D01*
X652354Y756919D01*
Y754380D01*
X649815D01*
X648968Y755226D01*
X649815Y756073D01*
X652354D01*
X654047Y754380D02*
X655740D01*
X654893D01*
Y759458D01*
X654047D01*
X658279Y754380D02*
X659971D01*
X659125D01*
Y757766D01*
X658279D01*
X665896Y759458D02*
Y754380D01*
X663357D01*
X662511Y755226D01*
Y756919D01*
X663357Y757766D01*
X665896D01*
X668435D02*
X670128D01*
X670975Y756919D01*
Y754380D01*
X668435D01*
X667589Y755226D01*
X668435Y756073D01*
X670975D01*
X672667Y759458D02*
Y754380D01*
X675207D01*
X676053Y755226D01*
Y758612D01*
X675207Y759458D01*
X672667D01*
X677746Y754380D02*
Y757766D01*
X679438Y759458D01*
X681131Y757766D01*
Y754380D01*
Y756919D01*
X677746D01*
X686210Y758612D02*
X685363Y759458D01*
X683670D01*
X682824Y758612D01*
Y755226D01*
X683670Y754380D01*
X685363D01*
X686210Y755226D01*
X566000Y337078D02*
X569386D01*
Y336232D01*
X566000Y332846D01*
Y332000D01*
X569386D01*
X571078Y337078D02*
X574464Y332000D01*
Y337078D02*
X571078Y332000D01*
X576157Y331154D02*
X579542D01*
X581235Y332000D02*
Y335386D01*
X582928Y337078D01*
X584621Y335386D01*
Y332000D01*
Y334539D01*
X581235D01*
X586313Y337078D02*
Y332000D01*
X588853D01*
X589699Y332846D01*
Y336232D01*
X588853Y337078D01*
X586313D01*
X594777D02*
X591392D01*
Y332000D01*
X594777D01*
X591392Y334539D02*
X593084D01*
X432000Y291078D02*
X435386D01*
Y290232D01*
X432000Y286846D01*
Y286000D01*
X435386D01*
X437078Y291078D02*
X440464Y286000D01*
Y291078D02*
X437078Y286000D01*
X442157Y285154D02*
X445542D01*
X447235Y286000D02*
X448928D01*
X448082D01*
Y291078D01*
X447235Y290232D01*
X451467Y285154D02*
X454853D01*
X456545Y286000D02*
Y289386D01*
X458238Y291078D01*
X459931Y289386D01*
Y286000D01*
Y288539D01*
X456545D01*
X461624Y291078D02*
Y286000D01*
X464163D01*
X465009Y286846D01*
Y290232D01*
X464163Y291078D01*
X461624D01*
X470088D02*
X466702D01*
Y286000D01*
X470088D01*
X466702Y288539D02*
X468395D01*
X434000Y312000D02*
Y317078D01*
X436539D01*
X437386Y316232D01*
Y314539D01*
X436539Y313693D01*
X434000D01*
X435693D02*
X437386Y312000D01*
X442464Y317078D02*
X439078D01*
Y312000D01*
X442464D01*
X439078Y314539D02*
X440771D01*
X444157Y317078D02*
Y313693D01*
X445849Y312000D01*
X447542Y313693D01*
Y317078D01*
X449235Y312000D02*
Y317078D01*
X451774D01*
X452621Y316232D01*
Y314539D01*
X451774Y313693D01*
X449235D01*
X800386Y765232D02*
X799539Y766078D01*
X797846D01*
X797000Y765232D01*
Y761846D01*
X797846Y761000D01*
X799539D01*
X800386Y761846D01*
Y763539D01*
X798693D01*
X802078Y761000D02*
Y766078D01*
X805464Y761000D01*
Y766078D01*
X807157D02*
Y761000D01*
X809696D01*
X810542Y761846D01*
Y765232D01*
X809696Y766078D01*
X807157D01*
X817313Y761000D02*
Y764386D01*
X819006Y766078D01*
X820699Y764386D01*
Y761000D01*
Y763539D01*
X817313D01*
X281386Y456232D02*
X280539Y457078D01*
X278846D01*
X278000Y456232D01*
Y452846D01*
X278846Y452000D01*
X280539D01*
X281386Y452846D01*
X286464Y457078D02*
X283078D01*
Y454539D01*
X284771D01*
X283078D01*
Y452000D01*
X288157D02*
X289849D01*
X289003D01*
Y457078D01*
X288157Y456232D01*
X285000Y816232D02*
X285846Y817078D01*
X287539D01*
X288386Y816232D01*
Y815386D01*
X287539Y814539D01*
X286693D01*
X287539D01*
X288386Y813693D01*
Y812846D01*
X287539Y812000D01*
X285846D01*
X285000Y812846D01*
X290078Y817078D02*
Y813693D01*
X291771Y812000D01*
X293464Y813693D01*
Y817078D01*
X950000Y855078D02*
X951693D01*
X950846D01*
Y850000D01*
X950000D01*
X951693D01*
X954232D02*
Y855078D01*
X957617Y850000D01*
Y855078D01*
X959310D02*
X962696Y850000D01*
Y855078D02*
X959310Y850000D01*
X964389Y855078D02*
X967774D01*
X966081D01*
Y850000D01*
X969467D02*
Y855078D01*
X972006D01*
X972853Y854232D01*
Y852539D01*
X972006Y851693D01*
X969467D01*
X971160D02*
X972853Y850000D01*
X356920Y286430D02*
X356074Y287277D01*
X354381D01*
X353535Y286430D01*
Y283045D01*
X354381Y282198D01*
X356074D01*
X356920Y283045D01*
X361999Y287277D02*
X358613D01*
Y284737D01*
X360306D01*
X358613D01*
Y282198D01*
X367077D02*
X363691D01*
X367077Y285584D01*
Y286430D01*
X366231Y287277D01*
X364538D01*
X363691Y286430D01*
X571386Y470232D02*
X570539Y471078D01*
X568846D01*
X568000Y470232D01*
Y466846D01*
X568846Y466000D01*
X570539D01*
X571386Y466846D01*
Y468539D01*
X569693D01*
X573078Y466000D02*
Y471078D01*
X576464Y466000D01*
Y471078D01*
X578157D02*
Y466000D01*
X580696D01*
X581542Y466846D01*
Y470232D01*
X580696Y471078D01*
X578157D01*
X588313Y466000D02*
Y471078D01*
X590006Y469386D01*
X591699Y471078D01*
Y466000D01*
X500386Y663232D02*
X499539Y664078D01*
X497846D01*
X497000Y663232D01*
Y659846D01*
X497846Y659000D01*
X499539D01*
X500386Y659846D01*
Y661539D01*
X498693D01*
X502078Y659000D02*
Y664078D01*
X505464Y659000D01*
Y664078D01*
X507157D02*
Y659000D01*
X509696D01*
X510542Y659846D01*
Y663232D01*
X509696Y664078D01*
X507157D01*
X481386Y657078D02*
X478000D01*
Y654539D01*
X479693Y655386D01*
X480539D01*
X481386Y654539D01*
Y652846D01*
X480539Y652000D01*
X478846D01*
X478000Y652846D01*
X483078Y657078D02*
Y653693D01*
X484771Y652000D01*
X486464Y653693D01*
Y657078D01*
D71*
X850400Y494500D02*
X899600D01*
X850400Y439500D02*
X899600D01*
D72*
X308000Y793000D02*
Y795999D01*
Y794500D01*
X299003D01*
X300502Y793000D01*
Y800498D02*
X299003Y801997D01*
Y804996D01*
X300502Y806496D01*
X302002D01*
X303501Y804996D01*
Y803497D01*
Y804996D01*
X305001Y806496D01*
X306500D01*
X308000Y804996D01*
Y801997D01*
X306500Y800498D01*
X271000Y794000D02*
Y796999D01*
Y795499D01*
X262003D01*
X263502Y794000D01*
X271000Y805996D02*
X262003D01*
X266501Y801498D01*
Y807496D01*
X306180Y593720D02*
Y596719D01*
Y595219D01*
X297183D01*
X298682Y593720D01*
X280780Y599718D02*
Y593720D01*
X274782Y599718D01*
X273282D01*
X271783Y598219D01*
Y595219D01*
X273282Y593720D01*
M02*
