G04 Layer_Color=16711935*
%FSLAX44Y44*%
%MOMM*%
G71*
G01*
G75*
%ADD74R,2.0000X1.5000*%
%ADD75R,1.5000X2.0000*%
%ADD79C,1.7240*%
%ADD82R,1.2000X1.3000*%
%ADD107C,1.7000*%
%ADD108R,1.7000X1.7000*%
%ADD109C,2.7400*%
%ADD110O,2.7400X2.7700*%
%ADD111C,1.4000*%
%ADD112R,1.5080X1.5080*%
%ADD113C,1.8000*%
%ADD114R,1.8000X1.8000*%
%ADD115C,1.9800*%
%ADD116C,1.7900*%
%ADD117R,1.7900X1.7900*%
%ADD118C,1.0128*%
%ADD119O,0.8000X2.4000*%
D74*
X916300Y603300D02*
D03*
Y584100D02*
D03*
X876700Y603300D02*
D03*
Y584100D02*
D03*
X618000Y881400D02*
D03*
Y900600D02*
D03*
X574000Y807400D02*
D03*
Y826600D02*
D03*
X580000Y900600D02*
D03*
Y881400D02*
D03*
X653000Y900600D02*
D03*
Y881400D02*
D03*
X609000Y826600D02*
D03*
Y807400D02*
D03*
X713000Y825400D02*
D03*
Y844600D02*
D03*
X748000Y826400D02*
D03*
Y845600D02*
D03*
X988036Y837600D02*
D03*
Y818400D02*
D03*
X1022036Y837600D02*
D03*
Y818400D02*
D03*
D75*
X679100Y798000D02*
D03*
X659900D02*
D03*
X695900D02*
D03*
X715100D02*
D03*
X731900D02*
D03*
X751100D02*
D03*
D79*
X754000Y428000D02*
D03*
X739000Y293000D02*
D03*
X804000Y356790D02*
D03*
X767000Y452000D02*
D03*
X257730Y1027000D02*
D03*
D82*
X1222000Y517500D02*
D03*
Y534500D02*
D03*
D107*
X275700Y776600D02*
D03*
X301100D02*
D03*
X275700Y751200D02*
D03*
X301100D02*
D03*
X275700Y725800D02*
D03*
X301100D02*
D03*
X275700Y700400D02*
D03*
X301100D02*
D03*
X275700Y675000D02*
D03*
X301100D02*
D03*
X275700Y649600D02*
D03*
X301100D02*
D03*
X275700Y624200D02*
D03*
D108*
X301100D02*
D03*
D109*
X881250Y397750D02*
D03*
X931250D02*
D03*
X1031250D02*
D03*
X1071250Y487750D02*
D03*
X1121250D02*
D03*
X1221250D02*
D03*
X1031250Y897750D02*
D03*
X981250D02*
D03*
X881250D02*
D03*
X1221250Y807750D02*
D03*
X1171250D02*
D03*
X1071250D02*
D03*
D110*
X981250Y397750D02*
D03*
X1171250Y487750D02*
D03*
X931250Y897750D02*
D03*
X1121250Y807750D02*
D03*
D111*
X544200Y656200D02*
D03*
Y707000D02*
D03*
Y732400D02*
D03*
Y757800D02*
D03*
X595000Y707000D02*
D03*
Y732400D02*
D03*
Y757800D02*
D03*
D112*
Y656200D02*
D03*
D113*
X871800Y761100D02*
D03*
X897200D02*
D03*
D114*
X922600D02*
D03*
D115*
X678200Y581800D02*
D03*
X779800Y734200D02*
D03*
D116*
X1043000Y772000D02*
D03*
X1068400D02*
D03*
X1093800D02*
D03*
X1119200D02*
D03*
X1144600D02*
D03*
Y568800D02*
D03*
X1119200D02*
D03*
X1093800D02*
D03*
X1068400D02*
D03*
X1043000D02*
D03*
D117*
X1170000Y772000D02*
D03*
Y568800D02*
D03*
D118*
X807000Y948000D02*
D03*
X1023000Y532000D02*
D03*
X885000Y818000D02*
D03*
X810000Y851000D02*
D03*
X823000D02*
D03*
X951000Y723000D02*
D03*
X947000Y706000D02*
D03*
X1040000Y521000D02*
D03*
X296000Y962000D02*
D03*
X323000Y1005000D02*
D03*
X359019Y941000D02*
D03*
X372212Y917000D02*
D03*
X482999Y412999D02*
D03*
X475999Y449999D02*
D03*
X528000Y407000D02*
D03*
X548000Y341000D02*
D03*
X566999Y330999D02*
D03*
X556000Y303000D02*
D03*
X534001Y283333D02*
D03*
X745000Y978000D02*
D03*
X471000Y298000D02*
D03*
X487000Y344000D02*
D03*
X479000Y353000D02*
D03*
X566000Y452000D02*
D03*
X528066Y882396D02*
D03*
X527512Y893572D02*
D03*
X524256Y768096D02*
D03*
X525780Y812800D02*
D03*
X572262Y852678D02*
D03*
X652780Y842010D02*
D03*
X645414Y832358D02*
D03*
X731000Y909000D02*
D03*
X673354Y826008D02*
D03*
X724154Y762000D02*
D03*
X665480Y768350D02*
D03*
X457208Y800604D02*
D03*
X390906Y781050D02*
D03*
X416814Y796798D02*
D03*
X425450Y807212D02*
D03*
X464000Y961000D02*
D03*
X467127Y974739D02*
D03*
X729000Y424000D02*
D03*
X717000Y271000D02*
D03*
X513000Y280333D02*
D03*
X871000Y928000D02*
D03*
X435000Y346000D02*
D03*
X437000Y410000D02*
D03*
X393000Y806000D02*
D03*
X438000D02*
D03*
X430000Y826000D02*
D03*
X415000Y837000D02*
D03*
X675000Y984000D02*
D03*
X528000Y970000D02*
D03*
X497000Y630000D02*
D03*
X740000Y1034080D02*
D03*
X452576Y1015000D02*
D03*
X557000Y824000D02*
D03*
X591000Y797000D02*
D03*
X520999Y734998D02*
D03*
X672000Y1019000D02*
D03*
X487000Y967000D02*
D03*
X480000Y987000D02*
D03*
X436000Y921000D02*
D03*
X756000Y1017000D02*
D03*
X307999Y811998D02*
D03*
X316999Y853998D02*
D03*
X556000Y878000D02*
D03*
X549257Y898347D02*
D03*
X802000Y990000D02*
D03*
X817998Y990998D02*
D03*
X1016000Y792000D02*
D03*
X985000Y780000D02*
D03*
X460000Y847000D02*
D03*
X443000D02*
D03*
X408000Y629000D02*
D03*
X391000Y630000D02*
D03*
X372000Y630000D02*
D03*
X348911Y636825D02*
D03*
X630000Y796000D02*
D03*
X475999Y877998D02*
D03*
X493999Y881998D02*
D03*
X540000Y948000D02*
D03*
X493000Y687000D02*
D03*
X570000Y690000D02*
D03*
X524000Y678000D02*
D03*
X384000Y917000D02*
D03*
X369000Y892000D02*
D03*
X316000Y839000D02*
D03*
X800000Y720000D02*
D03*
X665000Y660000D02*
D03*
X368000Y747000D02*
D03*
X322000Y715000D02*
D03*
X544000Y969000D02*
D03*
X917998Y866998D02*
D03*
X938998Y871998D02*
D03*
X697999Y692999D02*
D03*
X725000Y695000D02*
D03*
X512000Y952000D02*
D03*
X872000Y855000D02*
D03*
X966000Y813000D02*
D03*
X922000Y792000D02*
D03*
X317000Y601000D02*
D03*
X442000Y629000D02*
D03*
X326999Y729998D02*
D03*
X483999Y666999D02*
D03*
X418000Y655000D02*
D03*
X588000Y985000D02*
D03*
X384000Y487000D02*
D03*
X457000Y478000D02*
D03*
X543000Y450000D02*
D03*
X589000Y361000D02*
D03*
X567302Y360302D02*
D03*
X786000Y435000D02*
D03*
X591000Y377000D02*
D03*
X648000Y335000D02*
D03*
X713000Y373000D02*
D03*
X648999Y373999D02*
D03*
X743000Y503000D02*
D03*
X581000Y441000D02*
D03*
Y501000D02*
D03*
X591000Y392000D02*
D03*
X576000Y403000D02*
D03*
X494001Y277334D02*
D03*
X421000Y490000D02*
D03*
X664000Y721000D02*
D03*
X359000Y493000D02*
D03*
X388999Y458999D02*
D03*
X265000Y507000D02*
D03*
X822000Y387000D02*
D03*
X844000D02*
D03*
X1083000Y536000D02*
D03*
X1012190Y566674D02*
D03*
X623000Y849000D02*
D03*
X564134Y901700D02*
D03*
X597662Y901954D02*
D03*
Y922528D02*
D03*
X672846Y839978D02*
D03*
X686054Y825451D02*
D03*
X729996Y819912D02*
D03*
X412000Y450000D02*
D03*
X428000Y461000D02*
D03*
X782000Y992000D02*
D03*
X1040000Y807000D02*
D03*
X698754Y762762D02*
D03*
X711851Y762254D02*
D03*
X775000Y776000D02*
D03*
X628000Y913000D02*
D03*
X646000Y914000D02*
D03*
X671000Y899000D02*
D03*
X917000Y812000D02*
D03*
X949000Y816000D02*
D03*
X798656Y597000D02*
D03*
D119*
X859400Y683500D02*
D03*
X872100D02*
D03*
X884800D02*
D03*
X897500D02*
D03*
X910200D02*
D03*
X922900D02*
D03*
X935600D02*
D03*
X859400Y635500D02*
D03*
X872100D02*
D03*
X884800D02*
D03*
X897500D02*
D03*
X910200D02*
D03*
X922900D02*
D03*
X935600D02*
D03*
M02*
