G04 Layer_Color=128*
%FSLAX44Y44*%
%MOMM*%
G71*
G01*
G75*
%ADD11R,1.8000X1.3000*%
%ADD12R,1.3000X1.8000*%
%ADD16C,1.5240*%
%ADD19R,1.0000X1.1000*%
%ADD63O,0.6000X2.2000*%
D11*
X916300Y603300D02*
D03*
Y584100D02*
D03*
X876700Y603300D02*
D03*
Y584100D02*
D03*
X618000Y881400D02*
D03*
Y900600D02*
D03*
X574000Y807400D02*
D03*
Y826600D02*
D03*
X580000Y900600D02*
D03*
Y881400D02*
D03*
X653000Y900600D02*
D03*
Y881400D02*
D03*
X609000Y826600D02*
D03*
Y807400D02*
D03*
X713000Y825400D02*
D03*
Y844600D02*
D03*
X748000Y826400D02*
D03*
Y845600D02*
D03*
X988036Y837600D02*
D03*
Y818400D02*
D03*
X1022036Y837600D02*
D03*
Y818400D02*
D03*
D12*
X679100Y798000D02*
D03*
X659900D02*
D03*
X695900D02*
D03*
X715100D02*
D03*
X731900D02*
D03*
X751100D02*
D03*
D16*
X754000Y428000D02*
D03*
X739000Y293000D02*
D03*
X804000Y356790D02*
D03*
X767000Y452000D02*
D03*
D19*
X1222000Y517500D02*
D03*
Y534500D02*
D03*
D63*
X859400Y683500D02*
D03*
X872100D02*
D03*
X884800D02*
D03*
X897500D02*
D03*
X910200D02*
D03*
X922900D02*
D03*
X935600D02*
D03*
X859400Y635500D02*
D03*
X872100D02*
D03*
X884800D02*
D03*
X897500D02*
D03*
X910200D02*
D03*
X922900D02*
D03*
X935600D02*
D03*
M02*
