G04 Layer_Physical_Order=2*
G04 Layer_Color=16711680*
%FSLAX44Y44*%
%MOMM*%
G71*
G01*
G75*
%ADD11R,1.8000X1.3000*%
%ADD12R,1.3000X1.8000*%
%ADD16C,1.5240*%
%ADD19R,1.0000X1.1000*%
%ADD44C,0.6350*%
%ADD45C,0.2540*%
%ADD46C,0.3048*%
%ADD47C,0.6000*%
%ADD51C,1.5000*%
%ADD52R,1.5000X1.5000*%
%ADD53C,2.5400*%
%ADD54O,2.5400X2.5700*%
%ADD55C,1.2000*%
%ADD56R,1.3080X1.3080*%
%ADD57C,1.6000*%
%ADD58R,1.6000X1.6000*%
%ADD59C,1.7800*%
%ADD60C,1.5900*%
%ADD61R,1.5900X1.5900*%
%ADD62C,0.8128*%
%ADD63O,0.6000X2.2000*%
G36*
X864200Y1020788D02*
X863027Y1020303D01*
X849125Y1034205D01*
X846984Y1035635D01*
X844460Y1036137D01*
X844460Y1036137D01*
X750119D01*
X749658Y1036045D01*
X749025Y1036498D01*
X748092Y1038752D01*
X748008Y1038861D01*
X748570Y1040000D01*
X864200D01*
Y1020788D01*
D02*
G37*
G36*
X335396Y1039047D02*
X335401Y1038730D01*
X318335Y1021665D01*
X316905Y1019525D01*
X316403Y1017000D01*
X316403Y1017000D01*
Y1011615D01*
X316393Y1011607D01*
X314908Y1009672D01*
X313974Y1007418D01*
X313656Y1005000D01*
X313974Y1002582D01*
X314908Y1000328D01*
X316393Y998393D01*
X318328Y996908D01*
X319364Y996479D01*
X319469Y995061D01*
X295715Y971306D01*
X293582Y971025D01*
X291328Y970092D01*
X289393Y968607D01*
X287908Y966672D01*
X286975Y964418D01*
X286656Y962000D01*
X286975Y959582D01*
X287908Y957328D01*
X289393Y955393D01*
X291328Y953908D01*
X293582Y952974D01*
X294702Y952827D01*
X295157Y951486D01*
X270335Y926665D01*
X268905Y924525D01*
X268403Y922000D01*
X268403Y922000D01*
Y815533D01*
X259495Y806625D01*
X258065Y804484D01*
X257563Y801960D01*
X257563Y801960D01*
Y768096D01*
X257563Y768096D01*
X258065Y765572D01*
X259495Y763431D01*
X263051Y759875D01*
X263051Y759875D01*
X264173Y759126D01*
X264607Y757605D01*
X263327Y754515D01*
X262890Y751200D01*
X263327Y747885D01*
X264607Y744795D01*
X266642Y742142D01*
X269295Y740107D01*
X271515Y739187D01*
Y737813D01*
X269295Y736893D01*
X266642Y734858D01*
X264607Y732205D01*
X263327Y729115D01*
X262890Y725800D01*
X263327Y722485D01*
X264607Y719395D01*
X266642Y716742D01*
X269295Y714707D01*
X271515Y713787D01*
Y712413D01*
X269295Y711493D01*
X266642Y709458D01*
X264607Y706805D01*
X263327Y703715D01*
X262890Y700400D01*
X263327Y697085D01*
X264607Y693995D01*
X266642Y691342D01*
X269295Y689307D01*
X271515Y688387D01*
Y687013D01*
X269295Y686093D01*
X266642Y684058D01*
X264607Y681405D01*
X263327Y678315D01*
X262890Y675000D01*
X263327Y671685D01*
X264607Y668595D01*
X266642Y665942D01*
X269295Y663907D01*
X271515Y662987D01*
Y661613D01*
X269295Y660693D01*
X266642Y658658D01*
X264607Y656005D01*
X263327Y652915D01*
X262890Y649600D01*
X263327Y646285D01*
X264607Y643195D01*
X266642Y640542D01*
X269295Y638507D01*
X271515Y637587D01*
Y636213D01*
X269295Y635293D01*
X266642Y633258D01*
X264607Y630605D01*
X263327Y627515D01*
X262890Y624200D01*
X263327Y620885D01*
X264607Y617795D01*
X266642Y615142D01*
X269295Y613107D01*
X272385Y611827D01*
X275700Y611390D01*
X279015Y611827D01*
X282105Y613107D01*
X284758Y615142D01*
X286793Y617795D01*
X287130Y618608D01*
X288400Y618355D01*
Y611500D01*
X313800D01*
Y627571D01*
X328260Y642031D01*
X328261Y642031D01*
X329691Y644172D01*
X330193Y646696D01*
X330193Y646696D01*
Y655023D01*
X352088Y676917D01*
X359073D01*
X359442Y675702D01*
X359233Y675563D01*
X359233Y675563D01*
X344246Y660576D01*
X342817Y658436D01*
X342314Y655911D01*
X342314Y655911D01*
Y643440D01*
X342304Y643432D01*
X340819Y641497D01*
X339886Y639243D01*
X339567Y636825D01*
X339886Y634407D01*
X340819Y632153D01*
X342304Y630218D01*
X344239Y628733D01*
X346493Y627799D01*
X348911Y627481D01*
X351329Y627799D01*
X353583Y628733D01*
X355518Y630218D01*
X357003Y632153D01*
X357937Y634407D01*
X358255Y636825D01*
X357937Y639243D01*
X357003Y641497D01*
X355518Y643432D01*
X355508Y643440D01*
Y653179D01*
X366631Y664301D01*
X372892D01*
X373378Y663128D01*
X367335Y657085D01*
X365905Y654945D01*
X365403Y652421D01*
X365403Y652420D01*
Y636615D01*
X365393Y636607D01*
X363908Y634672D01*
X362975Y632418D01*
X362656Y630000D01*
X362975Y627582D01*
X363908Y625328D01*
X365393Y623393D01*
X367328Y621908D01*
X369582Y620975D01*
X372000Y620656D01*
X374418Y620975D01*
X376672Y621908D01*
X378607Y623393D01*
X380092Y625328D01*
X380813Y627067D01*
X382187D01*
X382908Y625328D01*
X384393Y623392D01*
X386328Y621907D01*
X388582Y620974D01*
X391000Y620656D01*
X393418Y620974D01*
X395672Y621907D01*
X397607Y623392D01*
X398460Y624504D01*
X399908Y624328D01*
X401393Y622393D01*
X403328Y620908D01*
X405582Y619975D01*
X408000Y619656D01*
X410418Y619975D01*
X412672Y620908D01*
X414607Y622393D01*
X416092Y624328D01*
X417025Y626582D01*
X417344Y629000D01*
X417025Y631418D01*
X416092Y633672D01*
X414607Y635607D01*
X414597Y635615D01*
Y645188D01*
X415867Y645937D01*
X418000Y645656D01*
X420418Y645975D01*
X422672Y646908D01*
X424607Y648393D01*
X426092Y650328D01*
X427025Y652582D01*
X427306Y654715D01*
X432808Y660217D01*
X477620D01*
X479327Y658907D01*
X481581Y657973D01*
X483999Y657655D01*
X486417Y657973D01*
X488671Y658907D01*
X490606Y660391D01*
X492091Y662327D01*
X492429Y663143D01*
X493675Y663391D01*
X531230Y625836D01*
X531230Y625836D01*
X533371Y624406D01*
X535895Y623904D01*
X535895Y623904D01*
X626768D01*
X656371Y594300D01*
X664676Y585995D01*
X664463Y585481D01*
X663979Y581800D01*
X664463Y578119D01*
X665884Y574689D01*
X668144Y571744D01*
X671089Y569484D01*
X674520Y568063D01*
X678200Y567579D01*
X681881Y568063D01*
X685311Y569484D01*
X688257Y571744D01*
X690517Y574689D01*
X691937Y578119D01*
X692422Y581800D01*
X691937Y585481D01*
X690517Y588911D01*
X689607Y590097D01*
X688257Y591856D01*
X686949Y592859D01*
X686727Y593030D01*
D01*
X685311Y594117D01*
X681881Y595537D01*
X678200Y596022D01*
X674520Y595537D01*
X674005Y595324D01*
X634165Y635165D01*
X632025Y636595D01*
X629500Y637097D01*
X629500Y637097D01*
X538628D01*
X497955Y677769D01*
X498204Y679316D01*
X499607Y680393D01*
X501092Y682328D01*
X502025Y684582D01*
X502344Y687000D01*
X502342Y687013D01*
X536260Y720931D01*
X536260Y720931D01*
X537074Y722150D01*
X538552Y722617D01*
X541276Y721488D01*
X544200Y721103D01*
X547124Y721488D01*
X549848Y722617D01*
X552188Y724412D01*
X553983Y726752D01*
X555112Y729476D01*
X555497Y732400D01*
X555112Y735324D01*
X553983Y738048D01*
X552188Y740388D01*
X549848Y742183D01*
X547124Y743312D01*
X544200Y743697D01*
X541276Y743312D01*
X539462Y742560D01*
X538192Y743409D01*
Y746791D01*
X539462Y747639D01*
X541276Y746888D01*
X544200Y746503D01*
X547124Y746888D01*
X549848Y748017D01*
X552188Y749812D01*
X553983Y752152D01*
X555112Y754876D01*
X555497Y757800D01*
X555112Y760724D01*
X555084Y760791D01*
X556161Y761510D01*
X558403Y759268D01*
Y714240D01*
X558403Y714240D01*
X558905Y711715D01*
X560335Y709575D01*
X569369Y700542D01*
X568914Y699201D01*
X567582Y699025D01*
X565328Y698092D01*
X563393Y696607D01*
X563385Y696597D01*
X551127D01*
X550695Y697867D01*
X552188Y699012D01*
X553983Y701352D01*
X555112Y704076D01*
X555497Y707000D01*
X555112Y709924D01*
X553983Y712648D01*
X552188Y714988D01*
X549848Y716783D01*
X547124Y717912D01*
X544200Y718297D01*
X541276Y717912D01*
X538552Y716783D01*
X536212Y714988D01*
X534417Y712648D01*
X533288Y709924D01*
X532904Y707000D01*
X533288Y704076D01*
X534417Y701352D01*
X536212Y699012D01*
X537705Y697867D01*
X537273Y696597D01*
X536000D01*
X533475Y696095D01*
X531335Y694665D01*
X531335Y694665D01*
X524013Y687342D01*
X524000Y687344D01*
X521582Y687026D01*
X519328Y686092D01*
X517393Y684607D01*
X515908Y682672D01*
X514975Y680418D01*
X514656Y678000D01*
X514975Y675582D01*
X515908Y673328D01*
X517393Y671393D01*
X519328Y669908D01*
X521582Y668975D01*
X524000Y668656D01*
X526418Y668975D01*
X528672Y669908D01*
X530607Y671393D01*
X532092Y673328D01*
X533026Y675582D01*
X533344Y678000D01*
X533342Y678013D01*
X538732Y683403D01*
X560415D01*
X560901Y682230D01*
X545939Y667268D01*
X544200Y667496D01*
X541276Y667112D01*
X538552Y665983D01*
X536212Y664188D01*
X534417Y661848D01*
X533288Y659124D01*
X532904Y656200D01*
X533288Y653276D01*
X534417Y650552D01*
X536212Y648212D01*
X538552Y646417D01*
X541276Y645288D01*
X544200Y644903D01*
X547124Y645288D01*
X549848Y646417D01*
X552188Y648212D01*
X553983Y650552D01*
X555112Y653276D01*
X555497Y656200D01*
X555268Y657938D01*
X571113Y673783D01*
X573985D01*
X573985Y673783D01*
X576509Y674285D01*
X578649Y675715D01*
X584285Y681351D01*
X584285Y681351D01*
X585715Y683491D01*
X586217Y686015D01*
X586217Y686015D01*
Y698043D01*
X587487Y698648D01*
X589352Y697217D01*
X592076Y696088D01*
X595000Y695703D01*
X597667Y696054D01*
X598440Y695031D01*
X590205Y686796D01*
X589127Y685391D01*
X588449Y683755D01*
X588218Y682000D01*
Y667940D01*
X583260D01*
Y644460D01*
X606740D01*
Y667940D01*
X601782D01*
Y679191D01*
X650009Y727418D01*
X659430D01*
X659861Y726148D01*
X659290Y725710D01*
X658231Y724331D01*
X657566Y722724D01*
X657506Y722270D01*
X664000D01*
Y719730D01*
X657506D01*
X657566Y719276D01*
X658231Y717670D01*
X659290Y716290D01*
X660669Y715231D01*
X662276Y714566D01*
X664000Y714339D01*
X664246Y714371D01*
X664839Y713169D01*
X660335Y708665D01*
X658905Y706524D01*
X658403Y704000D01*
X658403Y704000D01*
Y666615D01*
X658393Y666607D01*
X656908Y664672D01*
X655975Y662418D01*
X655656Y660000D01*
X655975Y657582D01*
X656908Y655328D01*
X658393Y653393D01*
X660328Y651908D01*
X662582Y650975D01*
X665000Y650656D01*
X667418Y650975D01*
X669672Y651908D01*
X671607Y653393D01*
X673092Y655328D01*
X674025Y657582D01*
X674344Y660000D01*
X674025Y662418D01*
X673092Y664672D01*
X671607Y666607D01*
X671597Y666615D01*
Y701267D01*
X683733Y713403D01*
X705047D01*
X705533Y712230D01*
X695149Y701845D01*
X693327Y701091D01*
X691392Y699606D01*
X689906Y697671D01*
X688973Y695417D01*
X688655Y692999D01*
X688973Y690580D01*
X689906Y688327D01*
X691392Y686392D01*
X693327Y684906D01*
X695580Y683973D01*
X697999Y683655D01*
X700417Y683973D01*
X702671Y684906D01*
X704606Y686392D01*
X706091Y688327D01*
X706845Y690149D01*
X714943Y698246D01*
X716019Y697527D01*
X715975Y697418D01*
X715656Y695000D01*
X715975Y692582D01*
X716729Y690759D01*
Y595000D01*
X716821Y594300D01*
X717011Y592859D01*
X717837Y590865D01*
X719152Y589152D01*
X745733Y562570D01*
X745247Y561397D01*
X621133D01*
X594365Y588165D01*
X593045Y589047D01*
X592093Y590000D01*
X590187D01*
X589700Y590097D01*
X589700Y590097D01*
X551400D01*
X551216Y590060D01*
X550000Y590302D01*
X320613D01*
X320325Y590495D01*
X317800Y590997D01*
X248000D01*
Y1020904D01*
X249270Y1021336D01*
X250484Y1019754D01*
X252606Y1018125D01*
X255078Y1017102D01*
X256460Y1016919D01*
Y1027000D01*
Y1037081D01*
X255078Y1036898D01*
X252606Y1035875D01*
X250484Y1034246D01*
X249270Y1032664D01*
X248000Y1033095D01*
Y1040000D01*
X335107D01*
X335396Y1039047D01*
D02*
G37*
G36*
X780878Y1021770D02*
X776027Y1016919D01*
X774685Y1015170D01*
X773841Y1013132D01*
X773553Y1010946D01*
Y995815D01*
X772974Y994418D01*
X772656Y992000D01*
X772974Y989582D01*
X773908Y987328D01*
X775393Y985393D01*
X777328Y983908D01*
X779582Y982974D01*
X782000Y982656D01*
X784418Y982974D01*
X786672Y983908D01*
X788607Y985393D01*
X790092Y987328D01*
X791025Y989582D01*
X791344Y992000D01*
X791025Y994418D01*
X790447Y995815D01*
Y1007447D01*
X797648Y1014648D01*
X804017D01*
X804403Y1013378D01*
X803335Y1012665D01*
X803335Y1012664D01*
X797335Y1006665D01*
X795905Y1004524D01*
X795403Y1002000D01*
X795403Y1002000D01*
Y996615D01*
X795393Y996607D01*
X793908Y994672D01*
X792974Y992418D01*
X792656Y990000D01*
X792974Y987582D01*
X793908Y985328D01*
X795393Y983393D01*
X797328Y981908D01*
X799582Y980975D01*
X802000Y980656D01*
X804418Y980975D01*
X806672Y981908D01*
X808607Y983393D01*
X809582Y984663D01*
X811143Y984715D01*
X811391Y984391D01*
X813326Y982906D01*
X815580Y981973D01*
X817998Y981654D01*
X820417Y981973D01*
X821813Y982551D01*
X836064D01*
X842171Y976444D01*
X841685Y975271D01*
X759426D01*
X753847Y980850D01*
X753092Y982672D01*
X751607Y984607D01*
X749672Y986092D01*
X747418Y987026D01*
X745000Y987344D01*
X742582Y987026D01*
X740328Y986092D01*
X738393Y984607D01*
X736908Y982672D01*
X736247Y981076D01*
X734977Y981328D01*
Y998648D01*
X746732Y1010403D01*
X749385D01*
X749393Y1010393D01*
X751328Y1008908D01*
X753582Y1007974D01*
X756000Y1007656D01*
X758418Y1007974D01*
X760672Y1008908D01*
X762607Y1010393D01*
X764092Y1012328D01*
X765025Y1014582D01*
X765344Y1017000D01*
X765025Y1019418D01*
X764092Y1021672D01*
X763991Y1021804D01*
X764552Y1022943D01*
X780391D01*
X780878Y1021770D01*
D02*
G37*
G36*
X733393Y1027473D02*
X735328Y1025988D01*
X735623Y1025866D01*
X735871Y1024620D01*
X719175Y1007925D01*
X717745Y1005785D01*
X717243Y1003260D01*
X717243Y1003260D01*
Y996572D01*
X703136Y982465D01*
X682422D01*
X682189Y982730D01*
X667811D01*
X667578Y982465D01*
X632460D01*
X632460Y982465D01*
X629935Y981963D01*
X627795Y980533D01*
X627795Y980533D01*
X611440Y964177D01*
X558153D01*
X553342Y968987D01*
X553344Y969000D01*
X553026Y971418D01*
X552092Y973672D01*
X550607Y975607D01*
X548672Y977092D01*
X546418Y978026D01*
X544000Y978344D01*
X541582Y978026D01*
X539328Y977092D01*
X537393Y975607D01*
X535908Y973672D01*
X535455Y972578D01*
X534080Y972578D01*
X533769Y973331D01*
X532710Y974710D01*
X531330Y975769D01*
X529724Y976434D01*
X529270Y976494D01*
Y970000D01*
X526730D01*
Y976494D01*
X526276Y976434D01*
X524669Y975769D01*
X523290Y974710D01*
X522231Y973331D01*
X521566Y971724D01*
X521503Y971243D01*
X520470Y970503D01*
X520000Y970597D01*
X520000Y970597D01*
X505421D01*
X505420Y970597D01*
X505148Y970543D01*
X504166Y971348D01*
Y977833D01*
X504597Y980000D01*
Y994268D01*
X514732Y1004403D01*
X575267D01*
X581403Y998268D01*
Y991615D01*
X581393Y991607D01*
X579908Y989672D01*
X578974Y987418D01*
X578656Y985000D01*
X578974Y982582D01*
X579908Y980328D01*
X581393Y978393D01*
X583328Y976908D01*
X585582Y975975D01*
X588000Y975656D01*
X590418Y975975D01*
X592672Y976908D01*
X594607Y978393D01*
X596092Y980328D01*
X597025Y982582D01*
X597344Y985000D01*
X597025Y987418D01*
X596092Y989672D01*
X594607Y991607D01*
X594597Y991615D01*
Y1001000D01*
X594095Y1003524D01*
X592665Y1005665D01*
X592664Y1005665D01*
X585167Y1013163D01*
X585095Y1013524D01*
X583665Y1015665D01*
X581525Y1017095D01*
X579000Y1017597D01*
X512000D01*
X512000Y1017597D01*
X509476Y1017095D01*
X507335Y1015665D01*
X507335Y1015665D01*
X493335Y1001665D01*
X491905Y999525D01*
X491403Y997000D01*
X491403Y997000D01*
Y981736D01*
X490972Y979569D01*
X490972Y979569D01*
Y976525D01*
X489916Y975819D01*
X489418Y976025D01*
X487000Y976344D01*
X486263Y976991D01*
Y980129D01*
X486607Y980393D01*
X488092Y982328D01*
X489025Y984582D01*
X489344Y987000D01*
X489025Y989418D01*
X488092Y991672D01*
X486607Y993607D01*
X484672Y995092D01*
X482418Y996025D01*
X480000Y996344D01*
X477582Y996025D01*
X475328Y995092D01*
X474388Y994371D01*
X472671Y994654D01*
X472665Y994665D01*
X472664Y994665D01*
X459949Y1007380D01*
X459183Y1008393D01*
X460668Y1010328D01*
X461601Y1012582D01*
X461920Y1015000D01*
X461601Y1017418D01*
X460668Y1019672D01*
X459183Y1021607D01*
X457248Y1023092D01*
X454994Y1024025D01*
X452576Y1024344D01*
X450157Y1024025D01*
X447904Y1023092D01*
X445969Y1021607D01*
X444484Y1019672D01*
X443550Y1017418D01*
X443232Y1015000D01*
X443550Y1012582D01*
X444484Y1010328D01*
X445969Y1008393D01*
X445979Y1008385D01*
Y1005424D01*
X445979Y1005424D01*
X446481Y1002900D01*
X447911Y1000760D01*
X461403Y987268D01*
Y982024D01*
X460520Y981347D01*
X460117Y980822D01*
X458850Y980739D01*
X444201Y995388D01*
X442796Y996466D01*
X441160Y997143D01*
X439405Y997374D01*
X330189D01*
X329800Y998644D01*
X331092Y1000328D01*
X332025Y1002582D01*
X332344Y1005000D01*
X332025Y1007418D01*
X331092Y1009672D01*
X329607Y1011607D01*
X329597Y1011615D01*
Y1014268D01*
X342812Y1027483D01*
X733385D01*
X733393Y1027473D01*
D02*
G37*
G36*
X918000Y966989D02*
X916827Y966503D01*
X879203Y1004127D01*
X879689Y1005300D01*
X918000D01*
Y966989D01*
D02*
G37*
G36*
X455564Y964842D02*
X454975Y963418D01*
X454656Y961000D01*
X454937Y958867D01*
X454188Y957597D01*
X387000D01*
X387000Y957597D01*
X384476Y957095D01*
X382335Y955665D01*
X382335Y955665D01*
X374091Y947420D01*
X372713Y947838D01*
X372447Y949172D01*
X371017Y951312D01*
X371017Y951312D01*
X366665Y955665D01*
X364524Y957095D01*
X362000Y957597D01*
X362000Y957597D01*
X305346D01*
X304641Y958653D01*
X305026Y959582D01*
X305306Y961715D01*
X327401Y983810D01*
X436596D01*
X455564Y964842D01*
D02*
G37*
G36*
X835333Y941334D02*
X835333Y941333D01*
X837474Y939903D01*
X839089Y939582D01*
X856403Y922268D01*
Y920000D01*
X856403Y920000D01*
X856403Y920000D01*
Y866585D01*
X855230Y866099D01*
X781101Y940228D01*
X781587Y941401D01*
X800386D01*
X800393Y941393D01*
X802328Y939908D01*
X804582Y938975D01*
X807000Y938656D01*
X809418Y938975D01*
X811672Y939908D01*
X813607Y941393D01*
X813615Y941403D01*
X835264D01*
X835333Y941334D01*
D02*
G37*
G36*
X740328Y969908D02*
X742150Y969153D01*
X750152Y961152D01*
X751865Y959837D01*
X753859Y959011D01*
X756000Y958729D01*
X848574D01*
X864200Y943103D01*
Y934925D01*
X862930Y934399D01*
X845665Y951665D01*
X843524Y953095D01*
X841378Y953521D01*
X840521Y954095D01*
X837996Y954597D01*
X837996Y954597D01*
X813615D01*
X813607Y954607D01*
X811672Y956092D01*
X809418Y957026D01*
X807000Y957344D01*
X804582Y957026D01*
X802328Y956092D01*
X800393Y954607D01*
X800383Y954595D01*
X753734D01*
X739013Y969316D01*
X739852Y970273D01*
X740328Y969908D01*
D02*
G37*
G36*
X729947Y916803D02*
X729492Y915462D01*
X729276Y915434D01*
X727670Y914769D01*
X726290Y913710D01*
X725231Y912330D01*
X724566Y910724D01*
X724339Y909000D01*
X723692Y908263D01*
X696067D01*
X691665Y912665D01*
X689525Y914095D01*
X687000Y914597D01*
X687000Y914597D01*
X663540D01*
X663540Y914597D01*
X661015Y914095D01*
X658875Y912665D01*
X658875Y912664D01*
X658511Y912300D01*
X653400D01*
X653023Y912730D01*
X639177D01*
X638800Y912300D01*
X638800D01*
Y888900D01*
Y878327D01*
X629540D01*
Y880130D01*
X618000D01*
Y882670D01*
X629540D01*
Y888900D01*
X632200D01*
Y903371D01*
X635164Y906335D01*
X636594Y908476D01*
X637002Y910524D01*
X637025Y910582D01*
X637050Y910765D01*
X637096Y911000D01*
X637087Y911048D01*
X637344Y913000D01*
X637025Y915418D01*
X636092Y917672D01*
X634607Y919607D01*
X632672Y921092D01*
X630418Y922026D01*
X628000Y922344D01*
X625582Y922026D01*
X623328Y921092D01*
X621393Y919607D01*
X619908Y917672D01*
X618974Y915418D01*
X618656Y913000D01*
X618042Y912300D01*
X608831D01*
Y917956D01*
X608329Y920480D01*
X606998Y922471D01*
X607006Y922528D01*
X606825Y923898D01*
X607663Y924853D01*
X626826D01*
X626826Y924853D01*
X629350Y925355D01*
X631490Y926785D01*
X651148Y946443D01*
X700307D01*
X729947Y916803D01*
D02*
G37*
G36*
X588415Y921792D02*
X588637Y920110D01*
X589570Y917856D01*
X591055Y915921D01*
X592990Y914436D01*
X595244Y913503D01*
X595383Y913484D01*
X595451Y912210D01*
X594200Y912300D01*
X594200Y912300D01*
X565800D01*
Y911788D01*
X564845Y910950D01*
X564134Y911044D01*
X563397Y911691D01*
Y915002D01*
X566645Y918249D01*
X580344D01*
X580344Y918249D01*
X582868Y918751D01*
X585008Y920181D01*
X587074Y922247D01*
X588415Y921792D01*
D02*
G37*
G36*
X551594Y921588D02*
X550705Y920258D01*
X550203Y917734D01*
X550203Y917734D01*
Y908521D01*
X549257Y907691D01*
X546839Y907373D01*
X544585Y906439D01*
X543864Y905886D01*
X528065Y921685D01*
X528551Y922858D01*
X550915D01*
X551594Y921588D01*
D02*
G37*
G36*
X506483Y905347D02*
Y894108D01*
X505309Y893622D01*
X502648Y896283D01*
X500508Y897713D01*
X497984Y898215D01*
X497984Y898215D01*
X467034D01*
X445217Y920033D01*
X445344Y921000D01*
X445025Y923418D01*
X444092Y925672D01*
X442607Y927607D01*
X440672Y929092D01*
X439655Y929513D01*
X439908Y930783D01*
X481046D01*
X506483Y905347D01*
D02*
G37*
G36*
X806592Y889658D02*
X806106Y888485D01*
X711428D01*
X711428Y888485D01*
X708904Y887983D01*
X706763Y886553D01*
X706763Y886553D01*
X698538Y878327D01*
X668715D01*
X668188Y879597D01*
X675796Y887204D01*
X676873Y888609D01*
X677551Y890244D01*
X677782Y892000D01*
Y892218D01*
X683191D01*
X683332Y892076D01*
X684737Y890999D01*
X686373Y890321D01*
X688128Y890090D01*
X742694D01*
X744449Y890321D01*
X746085Y890999D01*
X747490Y892076D01*
X753842Y898428D01*
X754919Y899833D01*
X755597Y901469D01*
X755828Y903224D01*
Y919480D01*
X755597Y921235D01*
X754919Y922871D01*
X753842Y924276D01*
X747427Y930690D01*
X747913Y931863D01*
X764387D01*
X806592Y889658D01*
D02*
G37*
G36*
X1025971Y914854D02*
X1024367Y914367D01*
X1021257Y912705D01*
X1018532Y910468D01*
X1016295Y907743D01*
X1014633Y904633D01*
X1013609Y901259D01*
X1013264Y897750D01*
X1013609Y894241D01*
X1014633Y890867D01*
X1016295Y887757D01*
X1018532Y885031D01*
X1021257Y882794D01*
X1024367Y881132D01*
X1027741Y880109D01*
X1030217Y879865D01*
X1030154Y878595D01*
X982346D01*
X982284Y879865D01*
X984759Y880109D01*
X988133Y881132D01*
X991243Y882794D01*
X993969Y885031D01*
X996206Y887757D01*
X997868Y890867D01*
X998891Y894241D01*
X999237Y897750D01*
X998891Y901259D01*
X997868Y904633D01*
X996206Y907743D01*
X993969Y910468D01*
X991243Y912705D01*
X988133Y914367D01*
X986529Y914854D01*
X986718Y916124D01*
X1025783D01*
X1025971Y914854D01*
D02*
G37*
G36*
X964774Y904897D02*
X964633Y904633D01*
X963609Y901259D01*
X963264Y897750D01*
X963609Y894241D01*
X964633Y890867D01*
X966295Y887757D01*
X968532Y885031D01*
X971257Y882794D01*
X974367Y881132D01*
X977741Y880109D01*
X980217Y879865D01*
X980154Y878595D01*
X945613D01*
X945605Y878605D01*
X943670Y880090D01*
X941416Y881024D01*
X941006Y881078D01*
X940767Y882390D01*
X941243Y882645D01*
X943968Y884881D01*
X946205Y887607D01*
X947867Y890717D01*
X948891Y894091D01*
X949237Y897600D01*
Y897900D01*
X948891Y901409D01*
X947867Y904783D01*
X947119Y906184D01*
X947772Y907273D01*
X962398D01*
X964774Y904897D01*
D02*
G37*
G36*
X817232Y859757D02*
X817101Y858441D01*
X816222Y857903D01*
X814672Y859092D01*
X812418Y860025D01*
X810000Y860344D01*
X807582Y860025D01*
X805328Y859092D01*
X803393Y857607D01*
X801908Y855672D01*
X800975Y853418D01*
X800656Y851000D01*
X800975Y848582D01*
X801553Y847186D01*
Y821057D01*
X801841Y818870D01*
X802684Y816833D01*
X804027Y815084D01*
X840161Y778950D01*
Y756090D01*
X838987Y755604D01*
X813796Y780796D01*
X812391Y781873D01*
X810755Y782551D01*
X809000Y782782D01*
X781379D01*
X779672Y784092D01*
X777418Y785025D01*
X776148Y785193D01*
Y832612D01*
X775917Y834367D01*
X775239Y836003D01*
X774162Y837408D01*
X762200Y849369D01*
Y857300D01*
X736291D01*
X732177Y861414D01*
X730974Y862337D01*
X731078Y863117D01*
X731317Y863607D01*
X813382D01*
X817232Y859757D01*
D02*
G37*
G36*
X1073034Y825215D02*
X1074199Y824049D01*
X1073622Y822830D01*
D01*
X1072520Y822939D01*
Y807750D01*
X1071250D01*
Y806480D01*
X1056061D01*
X1056231Y804762D01*
X1057102Y801890D01*
X1058517Y799242D01*
X1059793Y797687D01*
X1059193Y796417D01*
X1040318D01*
X1040234Y797687D01*
X1042418Y797974D01*
X1044672Y798908D01*
X1046607Y800393D01*
X1048092Y802328D01*
X1049025Y804582D01*
X1049344Y807000D01*
X1049025Y809418D01*
X1048092Y811672D01*
X1046782Y813379D01*
Y819000D01*
X1046551Y820755D01*
X1046077Y821900D01*
X1046036Y821998D01*
X1045873Y822391D01*
X1044796Y823796D01*
X1044529Y824062D01*
X1043296Y825295D01*
X1041891Y826373D01*
X1040256Y827051D01*
X1038500Y827282D01*
X1036236D01*
Y830100D01*
X1033576D01*
Y836330D01*
X1010496D01*
Y830100D01*
X1007836D01*
Y827282D01*
X1002236D01*
Y830100D01*
X999576D01*
Y836330D01*
X976496D01*
Y830100D01*
X973836D01*
Y813805D01*
X972566Y813722D01*
X972434Y814724D01*
X971769Y816330D01*
X970710Y817710D01*
X969331Y818769D01*
X967724Y819434D01*
X967270Y819494D01*
Y813000D01*
X964730D01*
Y819494D01*
X964276Y819434D01*
X962670Y818769D01*
X961290Y817710D01*
X960231Y816330D01*
X959566Y814724D01*
X959339Y813000D01*
X958617Y812476D01*
X957987Y813489D01*
X958026Y813582D01*
X958344Y816000D01*
X958026Y818418D01*
X957447Y819815D01*
Y821900D01*
Y838549D01*
X957159Y840735D01*
X956316Y842773D01*
X954973Y844522D01*
X954973Y844522D01*
X946522Y852973D01*
X945010Y854133D01*
X945193Y855115D01*
X945344Y855403D01*
X981000D01*
X981000Y855403D01*
X983524Y855905D01*
X985665Y857335D01*
X989191Y860862D01*
X1037387D01*
X1073034Y825215D01*
D02*
G37*
G36*
X432345Y929513D02*
X431328Y929092D01*
X429393Y927607D01*
X427908Y925672D01*
X426974Y923418D01*
X426656Y921000D01*
X426974Y918582D01*
X427908Y916328D01*
X429393Y914393D01*
X431328Y912908D01*
X433582Y911974D01*
X434773Y911818D01*
X459637Y886954D01*
X461777Y885524D01*
X464302Y885022D01*
X464302Y885022D01*
X468110D01*
X468737Y883752D01*
X467907Y882670D01*
X466973Y880417D01*
X466655Y877998D01*
X466973Y875580D01*
X467907Y873326D01*
X469392Y871391D01*
X471327Y869906D01*
X473581Y868973D01*
X475999Y868654D01*
X478417Y868973D01*
X480130Y869682D01*
X481288Y868922D01*
X481323Y868866D01*
Y848433D01*
X480150Y847947D01*
X476433Y851665D01*
X474292Y853095D01*
X471768Y853597D01*
X471768Y853597D01*
X466615D01*
X466607Y853607D01*
X464672Y855092D01*
X462418Y856025D01*
X460000Y856344D01*
X457582Y856025D01*
X455328Y855092D01*
X453393Y853607D01*
X452271Y852145D01*
X452052Y852057D01*
X450948D01*
X450729Y852145D01*
X449607Y853607D01*
X447672Y855092D01*
X445418Y856025D01*
X443000Y856344D01*
X440582Y856025D01*
X438328Y855092D01*
X436393Y853607D01*
X434908Y851672D01*
X433974Y849418D01*
X433656Y847000D01*
X433937Y844867D01*
X433188Y843597D01*
X421615D01*
X421607Y843607D01*
X419672Y845092D01*
X417418Y846025D01*
X415000Y846344D01*
X412582Y846025D01*
X410328Y845092D01*
X408393Y843607D01*
X406908Y841672D01*
X405975Y839418D01*
X405656Y837000D01*
X405975Y834582D01*
X406908Y832328D01*
X408393Y830393D01*
X410328Y828908D01*
X412582Y827974D01*
X415000Y827656D01*
X417418Y827974D01*
X419672Y828908D01*
X419864Y829055D01*
X420687Y828583D01*
X420958Y828294D01*
X420656Y826000D01*
X420823Y824731D01*
X419709Y823461D01*
X415401D01*
X412877Y822959D01*
X410736Y821529D01*
X410736Y821528D01*
X401735Y812528D01*
X401675Y812438D01*
X400249Y812331D01*
X399597Y813008D01*
Y887975D01*
X399095Y890499D01*
X398197Y891843D01*
X414677Y908323D01*
X414677Y908323D01*
X416107Y910463D01*
X416609Y912987D01*
X416609Y912988D01*
Y929660D01*
X417733Y930783D01*
X432092D01*
X432345Y929513D01*
D02*
G37*
G36*
X352412Y934393D02*
X354347Y932908D01*
X356600Y931974D01*
X359019Y931656D01*
X359756Y931010D01*
Y924017D01*
X358784Y922562D01*
X358282Y920038D01*
X358282Y920038D01*
Y911120D01*
X358282Y911120D01*
X358784Y908595D01*
X360214Y906455D01*
X362403Y904266D01*
Y898615D01*
X362393Y898607D01*
X360908Y896672D01*
X359975Y894418D01*
X359656Y892000D01*
X359975Y889582D01*
X360908Y887328D01*
X362393Y885393D01*
X363796Y884316D01*
X364045Y882769D01*
X326872Y845597D01*
X323354D01*
X322923Y846867D01*
X323606Y847391D01*
X325092Y849326D01*
X326025Y851580D01*
X326343Y853998D01*
X326025Y856417D01*
X325092Y858670D01*
X323606Y860605D01*
X321671Y862090D01*
X319418Y863024D01*
X316999Y863342D01*
X314581Y863024D01*
X312327Y862090D01*
X310622Y860782D01*
X303000D01*
X301245Y860551D01*
X299609Y859873D01*
X298204Y858796D01*
X293204Y853796D01*
X292127Y852391D01*
X291449Y850755D01*
X291218Y849000D01*
Y821998D01*
X291449Y820242D01*
X292127Y818607D01*
X293204Y817202D01*
X298693Y811714D01*
X298936Y809867D01*
X298187Y808597D01*
X291153D01*
X286137Y813613D01*
Y916267D01*
X304272Y934403D01*
X352404D01*
X352412Y934393D01*
D02*
G37*
G36*
X1084724Y840263D02*
X1083551Y839777D01*
X1046665Y876663D01*
X1044525Y878093D01*
X1042000Y878595D01*
X1042000Y878595D01*
X1032346D01*
X1032284Y879865D01*
X1034759Y880109D01*
X1038133Y881132D01*
X1041243Y882794D01*
X1043969Y885031D01*
X1046206Y887757D01*
X1047868Y890867D01*
X1048891Y894241D01*
X1049237Y897750D01*
X1048891Y901259D01*
X1047868Y904633D01*
X1046206Y907743D01*
X1043969Y910468D01*
X1041243Y912705D01*
X1038133Y914367D01*
X1036529Y914854D01*
X1036718Y916124D01*
X1084724D01*
Y840263D01*
D02*
G37*
G36*
X645328Y854880D02*
X640396Y849949D01*
X639319Y848544D01*
X638641Y846908D01*
X638410Y845153D01*
Y839015D01*
X637603Y838909D01*
X635967Y838231D01*
X634562Y837154D01*
X624373Y826964D01*
X623200Y827450D01*
Y838300D01*
X623200D01*
X623159Y838399D01*
X623961Y839782D01*
X625418Y839975D01*
X627672Y840908D01*
X629607Y842393D01*
X631092Y844328D01*
X632025Y846582D01*
X632344Y849000D01*
X632025Y851418D01*
X631092Y853672D01*
X630239Y854783D01*
X630866Y856053D01*
X644842D01*
X645328Y854880D01*
D02*
G37*
G36*
X386403Y884673D02*
Y812615D01*
X386393Y812607D01*
X384908Y810672D01*
X383974Y808418D01*
X383656Y806000D01*
X383974Y803582D01*
X384908Y801328D01*
X386393Y799393D01*
X388328Y797908D01*
X390582Y796974D01*
X393000Y796656D01*
X395418Y796974D01*
X397672Y797908D01*
X398533Y798569D01*
X399803Y797943D01*
Y786759D01*
X398533Y786328D01*
X397513Y787657D01*
X395578Y789142D01*
X393324Y790076D01*
X390906Y790394D01*
X388488Y790076D01*
X386234Y789142D01*
X384299Y787657D01*
X384291Y787647D01*
X382901D01*
X378045Y792503D01*
X375905Y793933D01*
X373380Y794435D01*
X373380Y794435D01*
X325775D01*
X314699Y805511D01*
X316091Y807326D01*
X317025Y809580D01*
X317343Y811998D01*
X317025Y814417D01*
X316091Y816670D01*
X314606Y818605D01*
X312671Y820090D01*
X310418Y821024D01*
X308284Y821305D01*
X304782Y824807D01*
Y846191D01*
X305809Y847218D01*
X309406D01*
X309837Y845948D01*
X309393Y845607D01*
X307908Y843672D01*
X306975Y841418D01*
X306656Y839000D01*
X306975Y836582D01*
X307908Y834328D01*
X309393Y832393D01*
X311328Y830908D01*
X313582Y829975D01*
X316000Y829656D01*
X318418Y829975D01*
X320672Y830908D01*
X322607Y832393D01*
X322615Y832403D01*
X329605D01*
X329605Y832403D01*
X332129Y832905D01*
X334269Y834335D01*
X385133Y885199D01*
X386403Y884673D01*
D02*
G37*
G36*
X559133Y836140D02*
X559133Y836139D01*
X561273Y834709D01*
X562460Y834473D01*
Y829735D01*
X561190Y829109D01*
X560331Y829769D01*
X558724Y830434D01*
X558270Y830494D01*
Y824000D01*
Y817506D01*
X558530Y817540D01*
X559160Y817296D01*
X559800Y816869D01*
Y795700D01*
X584510D01*
X584566Y795276D01*
X585231Y793670D01*
X586290Y792290D01*
X587669Y791231D01*
X589276Y790566D01*
X589730Y790506D01*
Y797000D01*
X592270D01*
Y790506D01*
X592724Y790566D01*
X594330Y791231D01*
X595710Y792290D01*
X596769Y793670D01*
X597434Y795276D01*
X597490Y795700D01*
X620696D01*
X620975Y793582D01*
X621908Y791328D01*
X623393Y789393D01*
X625328Y787908D01*
X627582Y786974D01*
X630000Y786656D01*
X632418Y786974D01*
X634672Y787908D01*
X636607Y789393D01*
X638092Y791328D01*
X639025Y793582D01*
X639344Y796000D01*
X639025Y798418D01*
X638092Y800672D01*
X636748Y802424D01*
X647218Y812895D01*
X648200Y812081D01*
Y783800D01*
X656449D01*
X664251Y775998D01*
X663842Y774795D01*
X663756Y774784D01*
X662150Y774119D01*
X660770Y773060D01*
X659711Y771681D01*
X659046Y770074D01*
X658986Y769620D01*
X665480D01*
Y768350D01*
X666750D01*
Y761856D01*
X667204Y761916D01*
X668811Y762581D01*
X670190Y763640D01*
X671249Y765020D01*
X671914Y766626D01*
X671925Y766712D01*
X673128Y767121D01*
X682151Y758098D01*
X682151Y758097D01*
X684292Y756667D01*
X686816Y756165D01*
X686816Y756165D01*
X692139D01*
X692147Y756155D01*
X693122Y755407D01*
X692691Y754137D01*
X664613D01*
X640545Y778205D01*
X638405Y779635D01*
X635881Y780137D01*
X635880Y780137D01*
X569034D01*
X545756Y803415D01*
Y844675D01*
X545253Y847200D01*
X543824Y849340D01*
X543824Y849340D01*
X537631Y855533D01*
X537682Y855794D01*
X539061Y856212D01*
X559133Y836140D01*
D02*
G37*
G36*
X519243Y864321D02*
Y851574D01*
X519243Y851574D01*
X519745Y849049D01*
X521175Y846909D01*
X528022Y840062D01*
Y822812D01*
X527067Y821974D01*
X525780Y822144D01*
X523362Y821825D01*
X521108Y820892D01*
X519173Y819407D01*
X517688Y817472D01*
X516754Y815218D01*
X516436Y812800D01*
X516754Y810382D01*
X517688Y808128D01*
X519173Y806193D01*
X519183Y806185D01*
Y801220D01*
X519183Y801220D01*
X519685Y798696D01*
X521115Y796555D01*
X547910Y769760D01*
X547191Y768684D01*
X547124Y768712D01*
X544200Y769097D01*
X541276Y768712D01*
X538552Y767583D01*
X536212Y765788D01*
X535882Y765766D01*
X534177Y767471D01*
X534111Y767570D01*
X534111Y767570D01*
X533598Y768083D01*
X533600Y768096D01*
X533282Y770514D01*
X532348Y772768D01*
X530863Y774703D01*
X528928Y776188D01*
X526674Y777122D01*
X524256Y777440D01*
X521838Y777122D01*
X519584Y776188D01*
X517649Y774703D01*
X516164Y772768D01*
X515230Y770514D01*
X514912Y768096D01*
X515230Y765678D01*
X516164Y763424D01*
X517649Y761489D01*
X519584Y760004D01*
X521838Y759071D01*
X524256Y758752D01*
X524999Y757820D01*
Y741757D01*
X523729Y741016D01*
X522723Y741433D01*
X522269Y741492D01*
Y734998D01*
Y728505D01*
X522723Y728565D01*
X524184Y727795D01*
X524250Y727579D01*
X493013Y696342D01*
X493000Y696344D01*
X491247Y696113D01*
X489977Y697031D01*
Y721110D01*
X501665Y732798D01*
X501665Y732798D01*
X503095Y734938D01*
X503597Y737463D01*
X503597Y737463D01*
Y868662D01*
X506823Y871888D01*
X506823Y871888D01*
X508047Y873721D01*
X509463Y874101D01*
X519243Y864321D01*
D02*
G37*
G36*
X615761Y854783D02*
X614908Y853672D01*
X613974Y851418D01*
X613656Y849000D01*
X613658Y848987D01*
X604335Y839665D01*
X603424Y838300D01*
X594800D01*
Y816282D01*
X588200D01*
Y819100D01*
X585540D01*
Y825330D01*
X574000D01*
Y827870D01*
X585540D01*
Y835640D01*
X583142D01*
X582616Y836910D01*
X601759Y856053D01*
X615135D01*
X615761Y854783D01*
D02*
G37*
G36*
X1163134Y825149D02*
X1163452Y823879D01*
X1161257Y822705D01*
X1158531Y820468D01*
X1156295Y817743D01*
X1154632Y814633D01*
X1154546Y814347D01*
X1150000D01*
X1150000Y814347D01*
X1147476Y813845D01*
X1145335Y812415D01*
X1145335Y812414D01*
X1137547Y804626D01*
X1136328Y805203D01*
X1136453Y806480D01*
X1106047D01*
X1106230Y804612D01*
X1107102Y801740D01*
X1108517Y799092D01*
X1109480Y797919D01*
X1108931Y796649D01*
X1108059Y796546D01*
X1103367Y801239D01*
Y817228D01*
X1102865Y819753D01*
X1101435Y821893D01*
X1101434Y821893D01*
X1099305Y824022D01*
X1099792Y825195D01*
X1163134Y825149D01*
D02*
G37*
G36*
X762584Y829803D02*
Y812200D01*
X739400D01*
Y809540D01*
X733170D01*
Y798000D01*
Y786460D01*
X738903D01*
Y774232D01*
X733268Y768597D01*
X730769D01*
X730761Y768607D01*
X728826Y770092D01*
X726572Y771025D01*
X724154Y771344D01*
X721736Y771025D01*
X719482Y770092D01*
X719301Y769953D01*
X718112Y770401D01*
X717946Y771239D01*
X716516Y773380D01*
X716516Y773380D01*
X707365Y782530D01*
X707544Y783706D01*
X707572Y783800D01*
X726800D01*
Y786460D01*
X730630D01*
Y798000D01*
Y809540D01*
X726800D01*
Y812200D01*
X716417D01*
X716264Y812430D01*
X716943Y813700D01*
X727200D01*
X727200Y813700D01*
Y813700D01*
X728272Y813478D01*
X728726Y813418D01*
Y819912D01*
X731266D01*
Y813418D01*
X731720Y813478D01*
X733326Y814143D01*
X734706Y815202D01*
X735646Y816427D01*
X736460Y817360D01*
X746730D01*
Y826400D01*
X748000D01*
Y827670D01*
X759540D01*
Y831188D01*
X760713Y831674D01*
X762584Y829803D01*
D02*
G37*
G36*
X669372Y848566D02*
X668174Y848070D01*
X666239Y846585D01*
X664754Y844650D01*
X663820Y842396D01*
X663502Y839978D01*
X663820Y837560D01*
X664754Y835306D01*
X666239Y833371D01*
X666150Y831838D01*
X665262Y830680D01*
X664329Y828426D01*
X664010Y826008D01*
X664329Y823590D01*
X665262Y821336D01*
X666747Y819401D01*
X668682Y817916D01*
X670936Y816982D01*
X671889Y816857D01*
X675276Y813470D01*
X675270Y813154D01*
X674980Y812200D01*
X648319D01*
X647505Y813182D01*
X657445Y823121D01*
X657445Y823121D01*
X658875Y825262D01*
X659377Y827786D01*
Y835395D01*
X659387Y835403D01*
X660872Y837338D01*
X661805Y839592D01*
X662124Y842010D01*
X661805Y844428D01*
X660872Y846682D01*
X659407Y848591D01*
X659430Y848722D01*
X659885Y849836D01*
X669119D01*
X669372Y848566D01*
D02*
G37*
G36*
X911027Y841027D02*
X912321Y840034D01*
X912776Y839685D01*
X914814Y838841D01*
X917000Y838553D01*
X937050D01*
X940553Y835050D01*
Y821900D01*
Y819815D01*
X939975Y818418D01*
X939656Y816000D01*
X939975Y813582D01*
X940409Y812533D01*
X939560Y811263D01*
X926991D01*
X926344Y812000D01*
X926025Y814418D01*
X925092Y816672D01*
X923607Y818607D01*
X921672Y820092D01*
X920930Y820400D01*
X919429Y821900D01*
X918410Y822919D01*
X905597Y835732D01*
Y844798D01*
X906770Y845284D01*
X911027Y841027D01*
D02*
G37*
G36*
X1213066Y825112D02*
X1213384Y823842D01*
X1211257Y822705D01*
X1208531Y820468D01*
X1206294Y817743D01*
X1204632Y814633D01*
X1204182Y813147D01*
X1203085Y812415D01*
X1203085Y812414D01*
X1188174Y797503D01*
X1187558Y797596D01*
X1186862Y798985D01*
X1187867Y800867D01*
X1188891Y804241D01*
X1189237Y807750D01*
X1188891Y811259D01*
X1187867Y814633D01*
X1186205Y817743D01*
X1183968Y820468D01*
X1181243Y822705D01*
X1179069Y823867D01*
X1179388Y825137D01*
X1213066Y825112D01*
D02*
G37*
G36*
X1030975Y804582D02*
X1031908Y802328D01*
X1033393Y800393D01*
X1035328Y798908D01*
X1037582Y797974D01*
X1039766Y797687D01*
X1039682Y796417D01*
X1024198D01*
X1024092Y796672D01*
X1022607Y798607D01*
X1020672Y800092D01*
X1018418Y801025D01*
X1016000Y801344D01*
X1015987Y801342D01*
X1011803Y805527D01*
X1012289Y806700D01*
X1030696D01*
X1030975Y804582D01*
D02*
G37*
G36*
X999126Y789173D02*
X998640Y788000D01*
X989792D01*
X989672Y788092D01*
X987418Y789025D01*
X985000Y789344D01*
X982582Y789025D01*
X982464Y788977D01*
X932031D01*
X931113Y790247D01*
X931344Y792000D01*
X931268Y792574D01*
X932106Y793529D01*
X994770D01*
X999126Y789173D01*
D02*
G37*
G36*
X283756Y797336D02*
X283756Y797335D01*
X285896Y795905D01*
X288421Y795403D01*
X306148D01*
X318377Y783174D01*
X318377Y783174D01*
X320518Y781744D01*
X323042Y781242D01*
X323042Y781242D01*
X370648D01*
X374894Y776995D01*
X374368Y775725D01*
X331708D01*
X331708Y775725D01*
X329184Y775223D01*
X327043Y773793D01*
X327043Y773792D01*
X325677Y772427D01*
X314333D01*
X313527Y773697D01*
X313910Y776600D01*
X313473Y779915D01*
X312193Y783005D01*
X310158Y785658D01*
X307505Y787693D01*
X304415Y788973D01*
X301100Y789409D01*
X297785Y788973D01*
X294695Y787693D01*
X292042Y785658D01*
X290007Y783005D01*
X289939Y782842D01*
X288724Y782474D01*
X288393Y782695D01*
X286786Y783014D01*
X284758Y785658D01*
X282105Y787693D01*
X279015Y788973D01*
X275700Y789409D01*
X272385Y788973D01*
X271813Y788736D01*
X270757Y789442D01*
Y799228D01*
X276310Y804781D01*
X283756Y797336D01*
D02*
G37*
G36*
X352975Y761358D02*
X337099Y745483D01*
X313621D01*
X312916Y746539D01*
X313473Y747885D01*
X313910Y751200D01*
X313473Y754515D01*
X312193Y757605D01*
X311818Y758094D01*
X312380Y759233D01*
X328410D01*
X328410Y759233D01*
X330934Y759735D01*
X333075Y761165D01*
X334440Y762531D01*
X352489D01*
X352975Y761358D01*
D02*
G37*
G36*
X651515Y742156D02*
X651029Y740982D01*
X647200D01*
X645445Y740751D01*
X643809Y740074D01*
X642405Y738996D01*
X606968Y703560D01*
X605946Y704333D01*
X606297Y707000D01*
X605912Y709924D01*
X604783Y712648D01*
X602988Y714988D01*
X600648Y716783D01*
X597924Y717912D01*
X595000Y718297D01*
X592076Y717912D01*
X589352Y716783D01*
X587012Y714988D01*
X585217Y712648D01*
X584088Y709924D01*
X583703Y707000D01*
X583769Y706501D01*
X582630Y705939D01*
X571597Y716973D01*
Y762000D01*
X571597Y762000D01*
X571928Y762403D01*
X583641D01*
X584347Y761347D01*
X584088Y760724D01*
X583703Y757800D01*
X584088Y754876D01*
X585217Y752152D01*
X587012Y749812D01*
X589352Y748017D01*
X592076Y746888D01*
X595000Y746503D01*
X597924Y746888D01*
X600648Y748017D01*
X602988Y749812D01*
X604783Y752152D01*
X605912Y754876D01*
X606297Y757800D01*
X605912Y760724D01*
X605653Y761347D01*
X606359Y762403D01*
X631268D01*
X651515Y742156D01*
D02*
G37*
G36*
X969335Y762336D02*
X969335Y762335D01*
X971476Y760905D01*
X974000Y760403D01*
X974000Y760403D01*
X980000D01*
Y742703D01*
X978730Y742272D01*
X977973Y743258D01*
X969927Y751304D01*
X968178Y752646D01*
X966140Y753490D01*
X963954Y753778D01*
X935800D01*
Y771243D01*
X960427D01*
X969335Y762336D01*
D02*
G37*
G36*
X320289Y731268D02*
X326999D01*
Y728728D01*
X320506D01*
X320565Y728275D01*
X321231Y726668D01*
X322068Y725577D01*
X322059Y725408D01*
X321770Y724610D01*
X321517Y724280D01*
X319582Y724025D01*
X317328Y723092D01*
X315393Y721607D01*
X313908Y719672D01*
X312974Y717418D01*
X312656Y715000D01*
X312974Y712582D01*
X313908Y710328D01*
X315393Y708393D01*
X315645Y708199D01*
X315237Y706997D01*
X312046D01*
X310158Y709458D01*
X307505Y711493D01*
X304415Y712773D01*
X301100Y713210D01*
X297785Y712773D01*
X294695Y711493D01*
X292042Y709458D01*
X290007Y706805D01*
X289087Y704585D01*
X287713D01*
X286793Y706805D01*
X284758Y709458D01*
X282105Y711493D01*
X279885Y712413D01*
Y713787D01*
X282105Y714707D01*
X284758Y716742D01*
X286793Y719395D01*
X288073Y722485D01*
X288510Y725800D01*
X288073Y729115D01*
X287230Y731150D01*
X287817Y732003D01*
X288133Y732289D01*
X291989D01*
X292550Y731150D01*
X292330Y730863D01*
X291318Y728421D01*
X291141Y727070D01*
X301100D01*
X311059D01*
X310882Y728421D01*
X309870Y730863D01*
X309650Y731150D01*
X310212Y732289D01*
X319538D01*
X320289Y731268D01*
D02*
G37*
G36*
X762584Y781634D02*
X762815Y779879D01*
X763493Y778243D01*
X764570Y776838D01*
X765694Y775715D01*
X765975Y773582D01*
X766908Y771328D01*
X768393Y769393D01*
X770328Y767908D01*
X772582Y766974D01*
X775000Y766656D01*
X777418Y766974D01*
X779672Y767908D01*
X781379Y769218D01*
X806191D01*
X851204Y724204D01*
X852609Y723127D01*
X854245Y722449D01*
X856000Y722218D01*
X941759D01*
X941974Y720582D01*
X942908Y718328D01*
X944393Y716393D01*
X946328Y714908D01*
X948582Y713975D01*
X951000Y713656D01*
X953283Y713957D01*
X953716Y713860D01*
X954553Y713301D01*
Y708342D01*
X953283Y708089D01*
X952769Y709331D01*
X951710Y710710D01*
X950331Y711769D01*
X948724Y712434D01*
X948270Y712494D01*
Y706000D01*
Y699506D01*
X948724Y699566D01*
X950331Y700231D01*
X951710Y701290D01*
X952769Y702670D01*
X953283Y703911D01*
X954553Y703658D01*
Y661856D01*
X953379Y661370D01*
X946085Y668665D01*
X943945Y670095D01*
X941421Y670597D01*
X941420Y670597D01*
X940346D01*
X939835Y671867D01*
X940819Y673338D01*
X941249Y675500D01*
Y682230D01*
X935600D01*
Y683500D01*
X934330D01*
Y696896D01*
X933438Y696719D01*
X931606Y695494D01*
X931438Y695242D01*
X930174Y695367D01*
X930063Y695635D01*
X928748Y697348D01*
X927035Y698663D01*
X925041Y699489D01*
X922900Y699771D01*
X920759Y699489D01*
X918765Y698663D01*
X917052Y697348D01*
X916048D01*
X914335Y698663D01*
X912341Y699489D01*
X910200Y699771D01*
X908059Y699489D01*
X906065Y698663D01*
X904352Y697348D01*
X903348D01*
X901635Y698663D01*
X899641Y699489D01*
X897500Y699771D01*
X895359Y699489D01*
X893365Y698663D01*
X891681Y697371D01*
X891426Y697408D01*
X890321Y697701D01*
X889465Y698983D01*
X889465Y698983D01*
X877917Y710531D01*
X875777Y711961D01*
X873252Y712463D01*
X873252Y712463D01*
X856426D01*
X808685Y760205D01*
X806544Y761635D01*
X804020Y762137D01*
X804020Y762137D01*
X776120D01*
X776120Y762137D01*
X773595Y761635D01*
X771455Y760205D01*
X771455Y760204D01*
X765387Y754137D01*
X736008D01*
X736000Y755403D01*
X736000Y755403D01*
X738524Y755905D01*
X740665Y757335D01*
X750164Y766835D01*
X750164Y766835D01*
X751594Y768975D01*
X752096Y771500D01*
X752096Y771500D01*
Y783800D01*
X762584D01*
Y781634D01*
D02*
G37*
G36*
X450077Y806529D02*
X449116Y805276D01*
X448182Y803023D01*
X447864Y800604D01*
X448182Y798186D01*
X449116Y795932D01*
X450601Y793997D01*
X452536Y792512D01*
X454790Y791579D01*
X457208Y791261D01*
X459626Y791579D01*
X461880Y792512D01*
X462024Y792623D01*
X463163Y792061D01*
Y786068D01*
X371745Y694651D01*
X358639D01*
X358153Y695824D01*
X442665Y780335D01*
X444095Y782476D01*
X444597Y785000D01*
X444597Y785000D01*
Y799385D01*
X444607Y799393D01*
X446092Y801328D01*
X447025Y803582D01*
X447344Y806000D01*
X447122Y807689D01*
X448324Y808282D01*
X450077Y806529D01*
D02*
G37*
G36*
X336301Y692630D02*
X325267Y681597D01*
X312046D01*
X310158Y684058D01*
X307505Y686093D01*
X305285Y687013D01*
Y688387D01*
X307505Y689307D01*
X310158Y691342D01*
X312046Y693803D01*
X335815D01*
X336301Y692630D01*
D02*
G37*
G36*
X476106Y724164D02*
X476783Y723658D01*
Y683015D01*
X476783Y683015D01*
X477285Y680491D01*
X478715Y678351D01*
X480391Y676675D01*
X480144Y675429D01*
X479327Y675091D01*
X477620Y673781D01*
X429999D01*
X428243Y673550D01*
X426608Y672872D01*
X425203Y671794D01*
X418431Y665022D01*
X418187Y665062D01*
X417751Y666422D01*
X475690Y724361D01*
X476106Y724164D01*
D02*
G37*
G36*
X851129Y686656D02*
Y675500D01*
X851411Y673359D01*
X852237Y671365D01*
X853552Y669652D01*
X855265Y668337D01*
X857259Y667511D01*
X859400Y667229D01*
X861541Y667511D01*
X863535Y668337D01*
X864233Y668873D01*
X865503Y668247D01*
Y663900D01*
X865503Y663900D01*
X866005Y661376D01*
X867435Y659235D01*
X873335Y653335D01*
X873335Y653335D01*
X874167Y652780D01*
X873708Y651559D01*
X872100Y651771D01*
X869959Y651489D01*
X867965Y650663D01*
X866755Y649734D01*
X865348Y649978D01*
X865209Y650075D01*
X864196Y651396D01*
X816402Y699189D01*
Y719724D01*
X817575Y720210D01*
X851129Y686656D01*
D02*
G37*
G36*
X954553Y613464D02*
Y594300D01*
Y582521D01*
X953841Y581937D01*
X953841Y581937D01*
X938392D01*
X931565Y588765D01*
X930985Y589152D01*
X930500Y589476D01*
D01*
Y590000D01*
Y593727D01*
Y594300D01*
X931023D01*
X931300Y594603D01*
X933824Y595105D01*
X935965Y596535D01*
X946923Y607494D01*
X953379Y613950D01*
X954553Y613464D01*
D02*
G37*
G36*
X793393Y713393D02*
X795328Y711908D01*
X797582Y710975D01*
X800000Y710656D01*
X801568Y710863D01*
X802838Y709862D01*
Y696380D01*
X803069Y694625D01*
X803747Y692989D01*
X804824Y691584D01*
X851336Y645072D01*
X851129Y643500D01*
Y627500D01*
X851411Y625359D01*
X852237Y623365D01*
X853552Y621652D01*
X855265Y620337D01*
X857259Y619511D01*
X859400Y619229D01*
X861541Y619511D01*
X863535Y620337D01*
X865248Y621652D01*
X866252D01*
X867965Y620337D01*
X869959Y619511D01*
X872100Y619229D01*
X874241Y619511D01*
X876235Y620337D01*
X877948Y621652D01*
X878952D01*
X880665Y620337D01*
X882659Y619511D01*
X884800Y619229D01*
X886941Y619511D01*
X887701Y619826D01*
X888420Y618749D01*
X884671Y615000D01*
X862500D01*
Y611000D01*
Y592597D01*
X845732D01*
X836665Y601665D01*
X834525Y603095D01*
X832000Y603597D01*
X832000Y603597D01*
X805271D01*
X805263Y603607D01*
X803328Y605092D01*
X801075Y606026D01*
X798656Y606344D01*
X796238Y606026D01*
X793984Y605092D01*
X792049Y603607D01*
X790564Y601672D01*
X789631Y599418D01*
X789312Y597000D01*
X789631Y594582D01*
X789747Y594300D01*
D01*
X790564Y592328D01*
X792049Y590393D01*
X793984Y588908D01*
X796238Y587975D01*
X798656Y587656D01*
X801075Y587975D01*
X803328Y588908D01*
X805263Y590393D01*
X805271Y590403D01*
X829268D01*
X838335Y581335D01*
X838335Y581335D01*
X840476Y579905D01*
X843000Y579403D01*
X843000Y579403D01*
X862500D01*
Y577341D01*
X784356D01*
X771697Y590000D01*
X768570Y593127D01*
X748271Y613426D01*
Y705000D01*
X747989Y707141D01*
X747163Y709135D01*
X745848Y710848D01*
X744467Y712230D01*
X744953Y713403D01*
X793385D01*
X793393Y713393D01*
D02*
G37*
G36*
X902100Y594300D02*
Y591600D01*
Y577341D01*
X890900D01*
Y591600D01*
Y594300D01*
Y602570D01*
X896732Y608403D01*
X902100D01*
Y594300D01*
D02*
G37*
G36*
X744003Y594300D02*
X767789Y570514D01*
X767303Y569341D01*
X762356D01*
X738570Y593127D01*
X739056Y594300D01*
X744003D01*
D02*
G37*
G36*
X551400Y524803D02*
X873183D01*
Y466805D01*
X872009Y466319D01*
X830664Y507665D01*
X828524Y509095D01*
X826000Y509597D01*
X826000Y509597D01*
X749615D01*
X749607Y509607D01*
X747672Y511092D01*
X745418Y512025D01*
X743000Y512344D01*
X740582Y512025D01*
X738328Y511092D01*
X736393Y509607D01*
X734908Y507672D01*
X733975Y505418D01*
X733656Y503000D01*
X733975Y500582D01*
X734908Y498328D01*
X736393Y496393D01*
X738328Y494908D01*
X740582Y493974D01*
X743000Y493656D01*
X745418Y493974D01*
X747672Y494908D01*
X749607Y496393D01*
X749615Y496403D01*
X823267D01*
X873183Y446488D01*
Y413734D01*
X871257Y412705D01*
X868531Y410468D01*
X866295Y407743D01*
X864632Y404633D01*
X863609Y401259D01*
X863263Y397750D01*
X863609Y394241D01*
X864632Y390867D01*
X866295Y387757D01*
X868531Y385031D01*
X871257Y382794D01*
X873183Y381765D01*
Y288805D01*
X873015Y288782D01*
X871958Y288412D01*
X871323Y288037D01*
X870633Y287774D01*
X869685Y287178D01*
X869148Y286670D01*
X868533Y286259D01*
X867741Y285467D01*
X867330Y284853D01*
X866822Y284315D01*
X866227Y283367D01*
X865963Y282677D01*
X865588Y282042D01*
X865219Y280985D01*
X865115Y280254D01*
X864891Y279550D01*
X864765Y278437D01*
X864797Y278066D01*
X864724Y277700D01*
Y254277D01*
X247876D01*
Y524303D01*
X317800D01*
X319785Y524698D01*
X550000D01*
X550964Y524890D01*
X551400Y524803D01*
D02*
G37*
G36*
X1014635Y437436D02*
X1014635Y437436D01*
X1016776Y436006D01*
X1019300Y435503D01*
X1019300Y435504D01*
X1084724D01*
Y379271D01*
X1036220Y379225D01*
X1036031Y380495D01*
X1038133Y381132D01*
X1041243Y382794D01*
X1043969Y385031D01*
X1046206Y387757D01*
X1047868Y390867D01*
X1048891Y394241D01*
X1049237Y397750D01*
X1048891Y401259D01*
X1047868Y404633D01*
X1046206Y407743D01*
X1043969Y410468D01*
X1041243Y412705D01*
X1038133Y414367D01*
X1034759Y415391D01*
X1031250Y415736D01*
X1027741Y415391D01*
X1024367Y414367D01*
X1021257Y412705D01*
X1018532Y410468D01*
X1016295Y407743D01*
X1014633Y404633D01*
X1013609Y401259D01*
X1013264Y397750D01*
X1013609Y394241D01*
X1014633Y390867D01*
X1016295Y387757D01*
X1018532Y385031D01*
X1021257Y382794D01*
X1024367Y381132D01*
X1026498Y380486D01*
X1026311Y379216D01*
X986561Y379178D01*
X986372Y380448D01*
X988133Y380982D01*
X991243Y382645D01*
X993969Y384881D01*
X996206Y387607D01*
X997868Y390717D01*
X998891Y394091D01*
X999237Y397600D01*
Y397900D01*
X998891Y401409D01*
X997868Y404783D01*
X996206Y407893D01*
X993969Y410618D01*
X991243Y412855D01*
X988133Y414517D01*
X984759Y415541D01*
X981250Y415886D01*
X977741Y415541D01*
X974367Y414517D01*
X971257Y412855D01*
X968532Y410618D01*
X966295Y407893D01*
X964633Y404783D01*
X963609Y401409D01*
X963264Y397900D01*
Y397600D01*
X963609Y394091D01*
X964633Y390717D01*
X966295Y387607D01*
X968532Y384881D01*
X971257Y382645D01*
X974367Y380982D01*
X976160Y380438D01*
X975972Y379168D01*
X931289Y379126D01*
X930924Y379053D01*
X930552Y379084D01*
X929440Y378958D01*
X928737Y378733D01*
X928007Y378629D01*
X926951Y378259D01*
X926316Y377883D01*
X925627Y377620D01*
X924679Y377024D01*
X924143Y376516D01*
X923529Y376106D01*
X922738Y375314D01*
X922328Y374700D01*
X921820Y374163D01*
X921225Y373215D01*
X920962Y372525D01*
X920587Y371888D01*
X920217Y370831D01*
X920114Y370100D01*
X919890Y369396D01*
X919765Y368284D01*
X919797Y367914D01*
X919724Y367550D01*
Y289327D01*
X878485D01*
Y379090D01*
X879426Y379943D01*
X881250Y379763D01*
X884759Y380109D01*
X888133Y381132D01*
X891243Y382794D01*
X893968Y385031D01*
X896205Y387757D01*
X897867Y390867D01*
X898891Y394241D01*
X899237Y397750D01*
X898891Y401259D01*
X897867Y404633D01*
X896205Y407743D01*
X893968Y410468D01*
X891243Y412705D01*
X888133Y414367D01*
X884759Y415391D01*
X881250Y415736D01*
X879426Y415557D01*
X878485Y416410D01*
Y446488D01*
X878081Y448517D01*
X876932Y450237D01*
X859000Y468168D01*
Y470172D01*
X860173Y470658D01*
X868260Y462570D01*
X869980Y461421D01*
X872009Y461018D01*
X874038Y461421D01*
X875212Y461907D01*
X876932Y463056D01*
X878081Y464776D01*
X878485Y466805D01*
Y524803D01*
X927268D01*
X1014635Y437436D01*
D02*
G37*
%LPC*%
G36*
X259000Y1037081D02*
Y1028270D01*
X267810D01*
X267628Y1029652D01*
X266605Y1032124D01*
X264976Y1034246D01*
X262854Y1035875D01*
X260382Y1036898D01*
X259000Y1037081D01*
D02*
G37*
G36*
X267810Y1025730D02*
X259000D01*
Y1016919D01*
X260382Y1017102D01*
X262854Y1018125D01*
X264976Y1019754D01*
X266605Y1021876D01*
X267628Y1024348D01*
X267810Y1025730D01*
D02*
G37*
G36*
X498270Y636494D02*
Y631270D01*
X503494D01*
X503434Y631724D01*
X502769Y633330D01*
X501710Y634710D01*
X500331Y635769D01*
X498724Y636434D01*
X498270Y636494D01*
D02*
G37*
G36*
X495730D02*
X495276Y636434D01*
X493670Y635769D01*
X492290Y634710D01*
X491231Y633330D01*
X490566Y631724D01*
X490506Y631270D01*
X495730D01*
Y636494D01*
D02*
G37*
G36*
X443270Y635494D02*
Y630270D01*
X448494D01*
X448434Y630724D01*
X447769Y632331D01*
X446710Y633710D01*
X445331Y634769D01*
X443724Y635434D01*
X443270Y635494D01*
D02*
G37*
G36*
X440730D02*
X440276Y635434D01*
X438670Y634769D01*
X437290Y633710D01*
X436231Y632331D01*
X435566Y630724D01*
X435506Y630270D01*
X440730D01*
Y635494D01*
D02*
G37*
G36*
X503494Y628730D02*
X498270D01*
Y623506D01*
X498724Y623566D01*
X500331Y624231D01*
X501710Y625290D01*
X502769Y626670D01*
X503434Y628276D01*
X503494Y628730D01*
D02*
G37*
G36*
X495730D02*
X490506D01*
X490566Y628276D01*
X491231Y626670D01*
X492290Y625290D01*
X493670Y624231D01*
X495276Y623566D01*
X495730Y623506D01*
Y628730D01*
D02*
G37*
G36*
X448494Y627730D02*
X443270D01*
Y622506D01*
X443724Y622566D01*
X445331Y623231D01*
X446710Y624290D01*
X447769Y625670D01*
X448434Y627276D01*
X448494Y627730D01*
D02*
G37*
G36*
X440730D02*
X435506D01*
X435566Y627276D01*
X436231Y625670D01*
X437290Y624290D01*
X438670Y623231D01*
X440276Y622566D01*
X440730Y622506D01*
Y627730D01*
D02*
G37*
G36*
X318270Y607494D02*
Y602270D01*
X323494D01*
X323434Y602724D01*
X322769Y604330D01*
X321710Y605710D01*
X320331Y606769D01*
X318724Y607434D01*
X318270Y607494D01*
D02*
G37*
G36*
X315730D02*
X315276Y607434D01*
X313669Y606769D01*
X312290Y605710D01*
X311231Y604330D01*
X310566Y602724D01*
X310506Y602270D01*
X315730D01*
Y607494D01*
D02*
G37*
G36*
X323494Y599730D02*
X318270D01*
Y594506D01*
X318724Y594566D01*
X320331Y595231D01*
X321710Y596290D01*
X322769Y597669D01*
X323434Y599276D01*
X323494Y599730D01*
D02*
G37*
G36*
X315730D02*
X310506D01*
X310566Y599276D01*
X311231Y597669D01*
X312290Y596290D01*
X313669Y595231D01*
X315276Y594566D01*
X315730Y594506D01*
Y599730D01*
D02*
G37*
G36*
X673270Y1025494D02*
Y1020270D01*
X678494D01*
X678434Y1020724D01*
X677769Y1022330D01*
X676710Y1023710D01*
X675331Y1024769D01*
X673724Y1025434D01*
X673270Y1025494D01*
D02*
G37*
G36*
X670730D02*
X670276Y1025434D01*
X668670Y1024769D01*
X667290Y1023710D01*
X666231Y1022330D01*
X665566Y1020724D01*
X665506Y1020270D01*
X670730D01*
Y1025494D01*
D02*
G37*
G36*
X678494Y1017730D02*
X673270D01*
Y1012506D01*
X673724Y1012566D01*
X675331Y1013231D01*
X676710Y1014290D01*
X677769Y1015669D01*
X678434Y1017276D01*
X678494Y1017730D01*
D02*
G37*
G36*
X670730D02*
X665506D01*
X665566Y1017276D01*
X666231Y1015669D01*
X667290Y1014290D01*
X668670Y1013231D01*
X670276Y1012566D01*
X670730Y1012506D01*
Y1017730D01*
D02*
G37*
G36*
X676270Y990494D02*
Y985270D01*
X681494D01*
X681434Y985724D01*
X680769Y987330D01*
X679710Y988710D01*
X678331Y989769D01*
X676724Y990434D01*
X676270Y990494D01*
D02*
G37*
G36*
X673730D02*
X673276Y990434D01*
X671669Y989769D01*
X670290Y988710D01*
X669231Y987330D01*
X668566Y985724D01*
X668506Y985270D01*
X673730D01*
Y990494D01*
D02*
G37*
G36*
X647270Y920494D02*
Y915270D01*
X652494D01*
X652434Y915724D01*
X651769Y917330D01*
X650710Y918710D01*
X649331Y919769D01*
X647724Y920434D01*
X647270Y920494D01*
D02*
G37*
G36*
X644730D02*
X644276Y920434D01*
X642670Y919769D01*
X641290Y918710D01*
X640231Y917330D01*
X639566Y915724D01*
X639506Y915270D01*
X644730D01*
Y920494D01*
D02*
G37*
G36*
X1033576Y846640D02*
X1023306D01*
Y838870D01*
X1033576D01*
Y846640D01*
D02*
G37*
G36*
X1020766D02*
X1010496D01*
Y842097D01*
Y838870D01*
X1020766D01*
Y846640D01*
D02*
G37*
G36*
X999576D02*
X989306D01*
Y838870D01*
X999576D01*
Y842097D01*
Y846640D01*
D02*
G37*
G36*
X986766D02*
X976496D01*
Y838870D01*
X986766D01*
Y846640D01*
D02*
G37*
G36*
X1069980Y822939D02*
X1068262Y822769D01*
X1065719Y821998D01*
X1065396Y821900D01*
X1065390Y821898D01*
X1062742Y820483D01*
X1060422Y818578D01*
X1058517Y816258D01*
X1057102Y813610D01*
X1056231Y810738D01*
X1056061Y809020D01*
X1069980D01*
Y822939D01*
D02*
G37*
G36*
X555730Y830494D02*
X555276Y830434D01*
X553670Y829769D01*
X552290Y828710D01*
X551231Y827330D01*
X550566Y825724D01*
X550506Y825270D01*
X555730D01*
Y830494D01*
D02*
G37*
G36*
Y822730D02*
X550506D01*
X550566Y822276D01*
X551231Y820669D01*
X552290Y819290D01*
X553670Y818231D01*
X555276Y817566D01*
X555730Y817506D01*
Y822730D01*
D02*
G37*
G36*
X664210Y767080D02*
X658986D01*
X659046Y766626D01*
X659711Y765020D01*
X660770Y763640D01*
X662150Y762581D01*
X663756Y761916D01*
X664210Y761856D01*
Y767080D01*
D02*
G37*
G36*
X519729Y741492D02*
X519275Y741433D01*
X517668Y740767D01*
X516289Y739709D01*
X515230Y738329D01*
X514565Y736722D01*
X514505Y736268D01*
X519729D01*
Y741492D01*
D02*
G37*
G36*
Y733728D02*
X514505D01*
X514565Y733275D01*
X515230Y731668D01*
X516289Y730288D01*
X517668Y729230D01*
X519275Y728565D01*
X519729Y728505D01*
Y733728D01*
D02*
G37*
G36*
X1122520Y823089D02*
Y809020D01*
X1136453D01*
X1136270Y810888D01*
X1135398Y813760D01*
X1133983Y816408D01*
X1132078Y818728D01*
X1129758Y820633D01*
X1127110Y822048D01*
X1124238Y822919D01*
X1122520Y823089D01*
D02*
G37*
G36*
X1119980D02*
X1118262Y822919D01*
X1115390Y822048D01*
X1112742Y820633D01*
X1110422Y818728D01*
X1108517Y816408D01*
X1107102Y813760D01*
X1106230Y810888D01*
X1106047Y809020D01*
X1119980D01*
Y823089D01*
D02*
G37*
G36*
X759540Y825130D02*
X749270D01*
Y817360D01*
X759540D01*
Y825130D01*
D02*
G37*
G36*
X595000Y743697D02*
X592076Y743312D01*
X589352Y742183D01*
X587012Y740388D01*
X585217Y738048D01*
X584088Y735324D01*
X583703Y732400D01*
X584088Y729476D01*
X585217Y726752D01*
X587012Y724412D01*
X589352Y722617D01*
X592076Y721488D01*
X595000Y721103D01*
X597924Y721488D01*
X600648Y722617D01*
X602988Y724412D01*
X604783Y726752D01*
X605912Y729476D01*
X606297Y732400D01*
X605912Y735324D01*
X604783Y738048D01*
X602988Y740388D01*
X600648Y742183D01*
X597924Y743312D01*
X595000Y743697D01*
D02*
G37*
G36*
X311059Y724530D02*
X302370D01*
Y715841D01*
X303721Y716018D01*
X306163Y717030D01*
X308261Y718639D01*
X309870Y720737D01*
X310882Y723179D01*
X311059Y724530D01*
D02*
G37*
G36*
X299830D02*
X291141D01*
X291318Y723179D01*
X292330Y720737D01*
X293939Y718639D01*
X296037Y717030D01*
X298479Y716018D01*
X299830Y715841D01*
Y724530D01*
D02*
G37*
G36*
X945730Y712494D02*
X945276Y712434D01*
X943670Y711769D01*
X942290Y710710D01*
X941231Y709331D01*
X940566Y707724D01*
X940506Y707270D01*
X945730D01*
Y712494D01*
D02*
G37*
G36*
Y704730D02*
X940506D01*
X940566Y704276D01*
X941231Y702670D01*
X942290Y701290D01*
X943670Y700231D01*
X945276Y699566D01*
X945730Y699506D01*
Y704730D01*
D02*
G37*
G36*
X936870Y696896D02*
Y684770D01*
X941249D01*
Y691500D01*
X940819Y693662D01*
X939594Y695494D01*
X937762Y696719D01*
X936870Y696896D01*
D02*
G37*
G36*
X266270Y513494D02*
Y508270D01*
X271494D01*
X271434Y508724D01*
X270769Y510331D01*
X269710Y511710D01*
X268330Y512769D01*
X266724Y513434D01*
X266270Y513494D01*
D02*
G37*
G36*
X263730D02*
X263276Y513434D01*
X261670Y512769D01*
X260290Y511710D01*
X259231Y510331D01*
X258566Y508724D01*
X258506Y508270D01*
X263730D01*
Y513494D01*
D02*
G37*
G36*
X582270Y507494D02*
Y502270D01*
X587494D01*
X587434Y502724D01*
X586769Y504330D01*
X585710Y505710D01*
X584330Y506769D01*
X582724Y507434D01*
X582270Y507494D01*
D02*
G37*
G36*
X579730D02*
X579276Y507434D01*
X577669Y506769D01*
X576290Y505710D01*
X575231Y504330D01*
X574566Y502724D01*
X574506Y502270D01*
X579730D01*
Y507494D01*
D02*
G37*
G36*
X271494Y505730D02*
X266270D01*
Y500506D01*
X266724Y500566D01*
X268330Y501231D01*
X269710Y502290D01*
X270769Y503670D01*
X271434Y505276D01*
X271494Y505730D01*
D02*
G37*
G36*
X263730D02*
X258506D01*
X258566Y505276D01*
X259231Y503670D01*
X260290Y502290D01*
X261670Y501231D01*
X263276Y500566D01*
X263730Y500506D01*
Y505730D01*
D02*
G37*
G36*
X587494Y499730D02*
X582270D01*
Y494506D01*
X582724Y494566D01*
X584330Y495231D01*
X585710Y496290D01*
X586769Y497669D01*
X587434Y499276D01*
X587494Y499730D01*
D02*
G37*
G36*
X579730D02*
X574506D01*
X574566Y499276D01*
X575231Y497669D01*
X576290Y496290D01*
X577669Y495231D01*
X579276Y494566D01*
X579730Y494506D01*
Y499730D01*
D02*
G37*
G36*
X422270Y496494D02*
Y491270D01*
X427494D01*
X427434Y491724D01*
X426769Y493330D01*
X425710Y494710D01*
X424330Y495769D01*
X422724Y496434D01*
X422270Y496494D01*
D02*
G37*
G36*
X419730D02*
X419276Y496434D01*
X417669Y495769D01*
X416290Y494710D01*
X415231Y493330D01*
X414566Y491724D01*
X414506Y491270D01*
X419730D01*
Y496494D01*
D02*
G37*
G36*
X582270Y447494D02*
Y442270D01*
X587494D01*
X587434Y442724D01*
X586769Y444330D01*
X585710Y445710D01*
X584330Y446769D01*
X582724Y447434D01*
X582270Y447494D01*
D02*
G37*
G36*
X579730D02*
X579276Y447434D01*
X577669Y446769D01*
X576290Y445710D01*
X575231Y444330D01*
X574566Y442724D01*
X574506Y442270D01*
X579730D01*
Y447494D01*
D02*
G37*
G36*
X359000Y502344D02*
X356582Y502025D01*
X354328Y501092D01*
X352393Y499607D01*
X350908Y497672D01*
X349975Y495418D01*
X349656Y493000D01*
X349975Y490582D01*
X350908Y488328D01*
X352393Y486393D01*
X352548Y486274D01*
X352905Y484476D01*
X354335Y482335D01*
X370335Y466335D01*
X370335Y466335D01*
X372476Y464905D01*
X375000Y464403D01*
X379980D01*
X380684Y463133D01*
X379974Y461418D01*
X379655Y458999D01*
X379974Y456581D01*
X380907Y454327D01*
X382392Y452392D01*
X384327Y450907D01*
X386581Y449973D01*
X388999Y449655D01*
X391418Y449973D01*
X393671Y450907D01*
X395606Y452392D01*
X395614Y452402D01*
X402009D01*
X402847Y451447D01*
X402656Y450000D01*
X402975Y447582D01*
X403908Y445328D01*
X405393Y443393D01*
X407328Y441908D01*
X409582Y440975D01*
X411715Y440694D01*
X426204Y426204D01*
X427609Y425127D01*
X429245Y424449D01*
X431000Y424218D01*
X448789D01*
X456029Y416978D01*
Y334809D01*
X448204Y326985D01*
X447127Y325580D01*
X446449Y323944D01*
X446218Y322189D01*
Y298000D01*
X446449Y296245D01*
X447127Y294609D01*
X448204Y293204D01*
X462299Y279110D01*
X463704Y278032D01*
X465339Y277355D01*
X467095Y277123D01*
X477000D01*
X478755Y277355D01*
X480391Y278032D01*
X481796Y279110D01*
X494904Y292218D01*
X514191D01*
X515876Y290532D01*
X515586Y289788D01*
X515229Y289384D01*
X513000Y289677D01*
X510582Y289359D01*
X508329Y288426D01*
X506393Y286941D01*
X504908Y285005D01*
X503975Y282752D01*
X503657Y280333D01*
X503975Y277915D01*
X504908Y275662D01*
X506393Y273726D01*
X508329Y272241D01*
X510582Y271308D01*
X513000Y270990D01*
X513013Y270991D01*
X516669Y267335D01*
X516669Y267335D01*
X518810Y265905D01*
X521334Y265403D01*
X521334Y265403D01*
X558000D01*
X558000Y265403D01*
X560524Y265905D01*
X562665Y267335D01*
X593665Y298335D01*
X593665Y298335D01*
X595095Y300476D01*
X595597Y303000D01*
Y354385D01*
X595607Y354393D01*
X597092Y356328D01*
X598026Y358582D01*
X598344Y361000D01*
X598026Y363418D01*
X597092Y365672D01*
X595607Y367607D01*
X593672Y369092D01*
X593000Y369370D01*
X592961Y369539D01*
X593078Y370713D01*
X594330Y371231D01*
X595710Y372290D01*
X596769Y373670D01*
X597434Y375276D01*
X597494Y375730D01*
X591000D01*
Y378270D01*
X597494D01*
X597434Y378724D01*
X596769Y380331D01*
X595710Y381710D01*
X595000Y382255D01*
X595191Y383709D01*
X595672Y383908D01*
X597607Y385393D01*
X597615Y385403D01*
X812866D01*
X812974Y384582D01*
X813908Y382328D01*
X815393Y380393D01*
X815403Y380385D01*
Y373732D01*
X809895Y368224D01*
X807347Y369280D01*
X804000Y369720D01*
X800653Y369280D01*
X797535Y367988D01*
X794857Y365933D01*
X792802Y363255D01*
X791510Y360136D01*
X791069Y356790D01*
X791510Y353443D01*
X792802Y350324D01*
X794857Y347646D01*
X797535Y345591D01*
X800653Y344300D01*
X804000Y343859D01*
X807347Y344300D01*
X810465Y345591D01*
X813143Y347646D01*
X815198Y350324D01*
X816490Y353443D01*
X816902Y356573D01*
X826665Y366335D01*
X826665Y366335D01*
X828095Y368475D01*
X828597Y371000D01*
X828597Y371000D01*
Y380385D01*
X828607Y380393D01*
X830092Y382328D01*
X831025Y384582D01*
X831344Y387000D01*
X831025Y389418D01*
X830092Y391672D01*
X828607Y393607D01*
X826672Y395092D01*
X824418Y396026D01*
X822000Y396344D01*
X821987Y396342D01*
X821665Y396665D01*
X819524Y398095D01*
X817000Y398597D01*
X817000Y398597D01*
X760585D01*
X760099Y399770D01*
X785987Y425658D01*
X786000Y425656D01*
X788418Y425975D01*
X790672Y426908D01*
X792607Y428393D01*
X794092Y430328D01*
X795025Y432582D01*
X795344Y435000D01*
X795025Y437418D01*
X794092Y439672D01*
X792607Y441607D01*
X790672Y443092D01*
X788418Y444025D01*
X786000Y444344D01*
X785987Y444342D01*
X779744Y450585D01*
X779931Y452000D01*
X779490Y455347D01*
X778198Y458465D01*
X776143Y461143D01*
X773465Y463198D01*
X770347Y464490D01*
X767000Y464931D01*
X763653Y464490D01*
X760535Y463198D01*
X757857Y461143D01*
X755802Y458465D01*
X754510Y455347D01*
X754069Y452000D01*
X754510Y448653D01*
X755802Y445535D01*
X757857Y442857D01*
X760535Y440802D01*
X763653Y439510D01*
X767000Y439069D01*
X770347Y439510D01*
X771629Y440041D01*
X775778Y435893D01*
Y434107D01*
X767912Y426241D01*
X766773Y426803D01*
X766931Y428000D01*
X766490Y431347D01*
X765198Y434465D01*
X763143Y437143D01*
X760465Y439198D01*
X757347Y440490D01*
X754000Y440931D01*
X750653Y440490D01*
X747535Y439198D01*
X744857Y437143D01*
X742903Y434597D01*
X733000D01*
X733000Y434597D01*
X730476Y434095D01*
X729294Y433305D01*
X729000Y433344D01*
X726582Y433026D01*
X724328Y432092D01*
X722393Y430607D01*
X720908Y428672D01*
X719975Y426418D01*
X719656Y424000D01*
X719975Y421582D01*
X720908Y419328D01*
X722393Y417393D01*
X724328Y415908D01*
X726582Y414975D01*
X729000Y414656D01*
X731418Y414975D01*
X733672Y415908D01*
X735607Y417393D01*
X737092Y419328D01*
X737952Y421403D01*
X742903D01*
X744857Y418857D01*
X747535Y416802D01*
X750653Y415510D01*
X754000Y415069D01*
X755197Y415227D01*
X755759Y414088D01*
X751267Y409597D01*
X582615D01*
X582607Y409607D01*
X580672Y411092D01*
X578418Y412025D01*
X576000Y412344D01*
X573582Y412025D01*
X571328Y411092D01*
X569393Y409607D01*
X567908Y407672D01*
X566974Y405418D01*
X566656Y403000D01*
X566974Y400582D01*
X567908Y398328D01*
X569393Y396393D01*
X571328Y394908D01*
X573582Y393974D01*
X576000Y393656D01*
X578418Y393974D01*
X580672Y394908D01*
X580863Y395055D01*
X581688Y394583D01*
X581958Y394294D01*
X581656Y392000D01*
X581974Y389582D01*
X582908Y387328D01*
X584393Y385393D01*
X586328Y383908D01*
X586809Y383709D01*
X587000Y382255D01*
X586290Y381710D01*
X585231Y380331D01*
X584566Y378724D01*
X584339Y377000D01*
X584371Y376754D01*
X583169Y376161D01*
X559597Y399732D01*
Y423268D01*
X570664Y434335D01*
X570665Y434335D01*
X572095Y436476D01*
X572597Y439000D01*
X572597Y439000D01*
Y445385D01*
X572607Y445393D01*
X574092Y447328D01*
X575025Y449582D01*
X575344Y452000D01*
X575025Y454418D01*
X574092Y456672D01*
X572607Y458607D01*
X570672Y460092D01*
X568418Y461026D01*
X566000Y461344D01*
X563582Y461026D01*
X561328Y460092D01*
X559393Y458607D01*
X557908Y456672D01*
X556974Y454418D01*
X556656Y452000D01*
X556974Y449582D01*
X557908Y447328D01*
X559393Y445393D01*
X559403Y445385D01*
Y441732D01*
X548335Y430665D01*
X548222Y430495D01*
X546958Y430371D01*
X525460Y451870D01*
X523319Y453300D01*
X520795Y453802D01*
X520795Y453802D01*
X505527D01*
X504665Y454664D01*
X502525Y456094D01*
X500001Y456596D01*
X500001Y456596D01*
X482614D01*
X482606Y456606D01*
X480671Y458091D01*
X478417Y459025D01*
X475999Y459343D01*
X475986Y459341D01*
X465097Y470230D01*
X465583Y471403D01*
X512267D01*
X533658Y450013D01*
X533656Y450000D01*
X533974Y447582D01*
X534908Y445328D01*
X536393Y443393D01*
X538328Y441908D01*
X540582Y440975D01*
X543000Y440656D01*
X545418Y440975D01*
X547672Y441908D01*
X549607Y443393D01*
X551092Y445328D01*
X552025Y447582D01*
X552344Y450000D01*
X552025Y452418D01*
X551092Y454672D01*
X549607Y456607D01*
X547672Y458092D01*
X545418Y459025D01*
X543000Y459344D01*
X542987Y459342D01*
X519665Y482665D01*
X517524Y484095D01*
X515000Y484597D01*
X515000Y484597D01*
X463615D01*
X463607Y484607D01*
X461672Y486092D01*
X459418Y487025D01*
X457000Y487344D01*
X454582Y487025D01*
X452328Y486092D01*
X450393Y484607D01*
X448908Y482672D01*
X447975Y480418D01*
X447656Y478000D01*
X447975Y475582D01*
X448001Y475518D01*
X446924Y474798D01*
X437184Y484539D01*
X435044Y485969D01*
X432519Y486471D01*
X432519Y486471D01*
X428061D01*
X427212Y487741D01*
X427434Y488276D01*
X427494Y488730D01*
X414506D01*
X414566Y488276D01*
X414788Y487741D01*
X413939Y486471D01*
X394399D01*
X393344Y487000D01*
X393026Y489418D01*
X392092Y491672D01*
X390607Y493607D01*
X388672Y495092D01*
X386418Y496026D01*
X384000Y496344D01*
X381582Y496026D01*
X379328Y495092D01*
X377393Y493607D01*
X375908Y491672D01*
X374975Y489418D01*
X374656Y487000D01*
X374975Y484582D01*
X375908Y482328D01*
X377393Y480393D01*
X379328Y478908D01*
X379427Y478867D01*
X379175Y477597D01*
X377733D01*
X367053Y488277D01*
X367092Y488328D01*
X368026Y490582D01*
X368344Y493000D01*
X368026Y495418D01*
X367092Y497672D01*
X365607Y499607D01*
X363672Y501092D01*
X361418Y502025D01*
X359000Y502344D01*
D02*
G37*
G36*
X587494Y439730D02*
X582270D01*
Y434506D01*
X582724Y434566D01*
X584330Y435231D01*
X585710Y436290D01*
X586769Y437669D01*
X587434Y439276D01*
X587494Y439730D01*
D02*
G37*
G36*
X579730D02*
X574506D01*
X574566Y439276D01*
X575231Y437669D01*
X576290Y436290D01*
X577669Y435231D01*
X579276Y434566D01*
X579730Y434506D01*
Y439730D01*
D02*
G37*
G36*
X438270Y416494D02*
Y411270D01*
X443494D01*
X443434Y411724D01*
X442769Y413330D01*
X441710Y414710D01*
X440331Y415769D01*
X438724Y416434D01*
X438270Y416494D01*
D02*
G37*
G36*
X435730D02*
X435276Y416434D01*
X433670Y415769D01*
X432290Y414710D01*
X431231Y413330D01*
X430566Y411724D01*
X430506Y411270D01*
X435730D01*
Y416494D01*
D02*
G37*
G36*
X443494Y408730D02*
X438270D01*
Y403506D01*
X438724Y403566D01*
X440331Y404231D01*
X441710Y405290D01*
X442769Y406670D01*
X443434Y408276D01*
X443494Y408730D01*
D02*
G37*
G36*
X435730D02*
X430506D01*
X430566Y408276D01*
X431231Y406670D01*
X432290Y405290D01*
X433670Y404231D01*
X435276Y403566D01*
X435730Y403506D01*
Y408730D01*
D02*
G37*
G36*
X436270Y352494D02*
Y347270D01*
X441494D01*
X441434Y347724D01*
X440769Y349330D01*
X439710Y350710D01*
X438330Y351769D01*
X436724Y352434D01*
X436270Y352494D01*
D02*
G37*
G36*
X433730D02*
X433276Y352434D01*
X431670Y351769D01*
X430290Y350710D01*
X429231Y349330D01*
X428566Y347724D01*
X428506Y347270D01*
X433730D01*
Y352494D01*
D02*
G37*
G36*
X844000Y396344D02*
X841582Y396026D01*
X839328Y395092D01*
X837393Y393607D01*
X835908Y391672D01*
X834975Y389418D01*
X834656Y387000D01*
X834975Y384582D01*
X835908Y382328D01*
X837393Y380393D01*
X837403Y380385D01*
Y369732D01*
X809268Y341597D01*
X753733D01*
X722342Y372987D01*
X722344Y373000D01*
X722026Y375418D01*
X721092Y377672D01*
X719607Y379607D01*
X717672Y381092D01*
X715418Y382025D01*
X713000Y382344D01*
X710582Y382025D01*
X708328Y381092D01*
X706393Y379607D01*
X704908Y377672D01*
X703975Y375418D01*
X703656Y373000D01*
X703658Y372987D01*
X672268Y341597D01*
X655595D01*
Y367384D01*
X655606Y367392D01*
X657091Y369327D01*
X658024Y371581D01*
X658343Y373999D01*
X658024Y376418D01*
X657091Y378671D01*
X655606Y380606D01*
X653671Y382091D01*
X651417Y383025D01*
X648999Y383343D01*
X646580Y383025D01*
X644327Y382091D01*
X642392Y380606D01*
X640907Y378671D01*
X639973Y376418D01*
X639655Y373999D01*
X639973Y371581D01*
X640907Y369327D01*
X642392Y367392D01*
X642402Y367384D01*
Y342382D01*
X641393Y341607D01*
X639908Y339672D01*
X638974Y337418D01*
X638656Y335000D01*
X638974Y332582D01*
X639908Y330328D01*
X641393Y328393D01*
X643328Y326908D01*
X645582Y325975D01*
X648000Y325656D01*
X650418Y325975D01*
X652672Y326908D01*
X654607Y328393D01*
X654615Y328403D01*
X675000D01*
X675000Y328403D01*
X677524Y328905D01*
X679665Y330335D01*
X712107Y362778D01*
X713893D01*
X746335Y330336D01*
X746335Y330335D01*
X748475Y328905D01*
X751000Y328403D01*
X751000Y328403D01*
X812000D01*
X812000Y328403D01*
X814525Y328905D01*
X816665Y330335D01*
X848664Y362335D01*
X848665Y362335D01*
X850095Y364476D01*
X850597Y367000D01*
X850597Y367000D01*
Y380385D01*
X850607Y380393D01*
X852092Y382328D01*
X853026Y384582D01*
X853344Y387000D01*
X853026Y389418D01*
X852092Y391672D01*
X850607Y393607D01*
X848672Y395092D01*
X846418Y396026D01*
X844000Y396344D01*
D02*
G37*
G36*
X441494Y344730D02*
X436270D01*
Y339506D01*
X436724Y339566D01*
X438330Y340231D01*
X439710Y341290D01*
X440769Y342669D01*
X441434Y344276D01*
X441494Y344730D01*
D02*
G37*
G36*
X433730D02*
X428506D01*
X428566Y344276D01*
X429231Y342669D01*
X430290Y341290D01*
X431670Y340231D01*
X433276Y339566D01*
X433730Y339506D01*
Y344730D01*
D02*
G37*
G36*
X739000Y305931D02*
X735653Y305490D01*
X732535Y304198D01*
X729857Y302143D01*
X727903Y299597D01*
X724000D01*
X724000Y299597D01*
X721476Y299095D01*
X719335Y297665D01*
X719335Y297665D01*
X712335Y290665D01*
X710905Y288524D01*
X710403Y286000D01*
X710403Y286000D01*
Y277615D01*
X710393Y277607D01*
X708908Y275672D01*
X707974Y273418D01*
X707656Y271000D01*
X707974Y268582D01*
X708908Y266328D01*
X710393Y264393D01*
X712328Y262908D01*
X714582Y261975D01*
X717000Y261656D01*
X719418Y261975D01*
X721672Y262908D01*
X723607Y264393D01*
X725092Y266328D01*
X726025Y268582D01*
X726344Y271000D01*
X726025Y273418D01*
X725092Y275672D01*
X723607Y277607D01*
X723597Y277615D01*
Y283267D01*
X726697Y286368D01*
X727968Y286319D01*
X729857Y283857D01*
X732535Y281802D01*
X735653Y280510D01*
X739000Y280069D01*
X742347Y280510D01*
X745465Y281802D01*
X748143Y283857D01*
X750198Y286535D01*
X751490Y289653D01*
X751931Y293000D01*
X751490Y296347D01*
X750198Y299465D01*
X748143Y302143D01*
X745465Y304198D01*
X742347Y305490D01*
X739000Y305931D01*
D02*
G37*
G36*
X495271Y283827D02*
Y278603D01*
X500494D01*
X500434Y279058D01*
X499769Y280664D01*
X498711Y282043D01*
X497331Y283102D01*
X495724Y283768D01*
X495271Y283827D01*
D02*
G37*
G36*
X492730D02*
X492276Y283768D01*
X490670Y283102D01*
X489290Y282043D01*
X488232Y280664D01*
X487566Y279058D01*
X487507Y278603D01*
X492730D01*
Y283827D01*
D02*
G37*
G36*
X500494Y276063D02*
X495271D01*
Y270840D01*
X495724Y270900D01*
X497331Y271565D01*
X498711Y272623D01*
X499769Y274003D01*
X500434Y275609D01*
X500494Y276063D01*
D02*
G37*
G36*
X492730D02*
X487507D01*
X487566Y275609D01*
X488232Y274003D01*
X489290Y272623D01*
X490670Y271565D01*
X492276Y270900D01*
X492730Y270840D01*
Y276063D01*
D02*
G37*
%LPD*%
G36*
X521657Y415014D02*
X521574Y413746D01*
X521393Y413607D01*
X519908Y411672D01*
X518974Y409418D01*
X518656Y407000D01*
X518974Y404582D01*
X519908Y402328D01*
X521218Y400621D01*
Y337771D01*
X520045Y337285D01*
X489596Y367733D01*
Y406384D01*
X489606Y406392D01*
X491091Y408327D01*
X492025Y410581D01*
X492343Y412999D01*
X492025Y415418D01*
X491091Y417671D01*
X489606Y419606D01*
X487671Y421091D01*
X485417Y422025D01*
X482999Y422343D01*
X480581Y422025D01*
X480548Y422042D01*
X480095Y424323D01*
X478665Y426463D01*
X474772Y430355D01*
X475258Y431528D01*
X505142D01*
X521657Y415014D01*
D02*
G37*
G36*
X541403Y355648D02*
Y347615D01*
X541393Y347607D01*
X539908Y345672D01*
X538974Y343418D01*
X538656Y341000D01*
X538974Y338582D01*
X539908Y336328D01*
X541393Y334393D01*
X543328Y332908D01*
X545582Y331974D01*
X548000Y331656D01*
X550418Y331974D01*
X552672Y332908D01*
X554607Y334393D01*
X556092Y336328D01*
X557025Y338582D01*
X557344Y341000D01*
X557025Y343418D01*
X556092Y345672D01*
X554607Y347607D01*
X554597Y347615D01*
Y351494D01*
X555770Y351980D01*
X560402Y347348D01*
Y337615D01*
X560392Y337607D01*
X558907Y335671D01*
X557973Y333418D01*
X557655Y330999D01*
X557973Y328581D01*
X558907Y326327D01*
X560392Y324392D01*
X562251Y322966D01*
X562270Y322844D01*
X561520Y321781D01*
X561513Y321782D01*
X549649D01*
X534782Y336649D01*
Y360609D01*
X535955Y361095D01*
X541403Y355648D01*
D02*
G37*
G36*
X579658Y361013D02*
X579656Y361000D01*
X579975Y358582D01*
X580908Y356328D01*
X582393Y354393D01*
X582403Y354385D01*
Y305732D01*
X577955Y301285D01*
X576782Y301771D01*
Y306513D01*
X576551Y308268D01*
X575873Y309904D01*
X574796Y311309D01*
X566309Y319796D01*
X565255Y320604D01*
X565758Y321819D01*
X566999Y321655D01*
X569417Y321974D01*
X571671Y322907D01*
X573606Y324392D01*
X575091Y326327D01*
X576024Y328581D01*
X576343Y330999D01*
X576024Y333418D01*
X575091Y335671D01*
X573606Y337607D01*
X573596Y337615D01*
Y350080D01*
X573093Y352605D01*
X572888Y352912D01*
X573909Y353695D01*
X575394Y355630D01*
X576328Y357884D01*
X576646Y360302D01*
X576354Y362520D01*
X576791Y362898D01*
X577501Y363170D01*
X579658Y361013D01*
D02*
G37*
G36*
X472000Y337403D02*
X480385D01*
X480393Y337393D01*
X482328Y335908D01*
X484064Y335189D01*
X484472Y333801D01*
X466335Y315665D01*
X464905Y313524D01*
X464403Y311000D01*
X464403Y311000D01*
Y304615D01*
X464393Y304607D01*
X462908Y302672D01*
X461974Y300418D01*
X461952Y300250D01*
X460750Y299841D01*
X459782Y300809D01*
Y319380D01*
X467607Y327204D01*
X468684Y328609D01*
X469362Y330245D01*
X469593Y332000D01*
Y336881D01*
X470575Y337687D01*
X472000Y337403D01*
D02*
G37*
G36*
X540335Y298335D02*
X540335Y298335D01*
X542476Y296905D01*
X545000Y296403D01*
X545984D01*
X546236Y295133D01*
X545609Y294873D01*
X544204Y293796D01*
X540524Y290116D01*
X540380D01*
X538672Y291426D01*
X536419Y292359D01*
X534001Y292677D01*
X533040Y292551D01*
X521796Y303796D01*
X520391Y304873D01*
X518755Y305551D01*
X517000Y305782D01*
X492095D01*
X490339Y305551D01*
X488704Y304873D01*
X487299Y303796D01*
X481579Y298076D01*
X480270Y298563D01*
X480025Y300418D01*
X479092Y302672D01*
X477607Y304607D01*
X477597Y304615D01*
Y308267D01*
X493732Y324403D01*
X514268D01*
X540335Y298335D01*
D02*
G37*
%LPC*%
G36*
X932520Y412938D02*
Y399020D01*
X946439D01*
X946269Y400737D01*
X945398Y403610D01*
X943983Y406258D01*
X942078Y408578D01*
X939758Y410483D01*
X937110Y411898D01*
X934237Y412769D01*
X932520Y412938D01*
D02*
G37*
G36*
X929980D02*
X928262Y412769D01*
X925389Y411898D01*
X922742Y410483D01*
X920421Y408578D01*
X918517Y406258D01*
X917102Y403610D01*
X916230Y400737D01*
X916061Y399020D01*
X929980D01*
Y412938D01*
D02*
G37*
G36*
X946439Y396480D02*
X932520D01*
Y382561D01*
X934237Y382730D01*
X937110Y383602D01*
X939758Y385017D01*
X942078Y386921D01*
X943983Y389242D01*
X945398Y391889D01*
X946269Y394762D01*
X946439Y396480D01*
D02*
G37*
G36*
X929980D02*
X916061D01*
X916230Y394762D01*
X917102Y391889D01*
X918517Y389242D01*
X920421Y386921D01*
X922742Y385017D01*
X925389Y383602D01*
X928262Y382730D01*
X929980Y382561D01*
Y396480D01*
D02*
G37*
%LPD*%
D11*
X916300Y603300D02*
D03*
Y584100D02*
D03*
X876700Y603300D02*
D03*
Y584100D02*
D03*
X618000Y881400D02*
D03*
Y900600D02*
D03*
X574000Y807400D02*
D03*
Y826600D02*
D03*
X580000Y900600D02*
D03*
Y881400D02*
D03*
X653000Y900600D02*
D03*
Y881400D02*
D03*
X609000Y826600D02*
D03*
Y807400D02*
D03*
X713000Y825400D02*
D03*
Y844600D02*
D03*
X748000Y826400D02*
D03*
Y845600D02*
D03*
X988036Y837600D02*
D03*
Y818400D02*
D03*
X1022036Y837600D02*
D03*
Y818400D02*
D03*
D12*
X679100Y798000D02*
D03*
X659900D02*
D03*
X695900D02*
D03*
X715100D02*
D03*
X731900D02*
D03*
X751100D02*
D03*
D16*
X754000Y428000D02*
D03*
X739000Y293000D02*
D03*
X804000Y356790D02*
D03*
X767000Y452000D02*
D03*
X257730Y1027000D02*
D03*
D19*
X1222000Y517500D02*
D03*
Y534500D02*
D03*
D44*
X963000Y575295D02*
X1006295Y532000D01*
X1023000D01*
X899125Y881125D02*
Y931436D01*
X839563Y990998D02*
X899125Y931436D01*
X817998Y990998D02*
X839563D01*
X885000Y867000D02*
X899125Y881125D01*
X885000Y818000D02*
Y867000D01*
X823000Y819865D02*
X857000Y785865D01*
X823000Y819865D02*
Y851000D01*
X810000Y821057D02*
X848608Y782449D01*
X810000Y821057D02*
Y851000D01*
X963954Y745331D02*
X972000Y737285D01*
Y578104D02*
Y737285D01*
Y578104D02*
X1006104Y544000D01*
X960081Y736981D02*
X963000Y734062D01*
Y575295D02*
Y734062D01*
X868585Y745331D02*
X963954D01*
X859019Y736981D02*
X960081D01*
X1006104Y544000D02*
X1033000D01*
X1040000Y537000D01*
Y521000D02*
Y537000D01*
X848608Y747392D02*
Y782449D01*
Y747392D02*
X859019Y736981D01*
X856958Y756958D02*
X868585Y745331D01*
X856958Y756958D02*
X857000Y757000D01*
Y785865D01*
X782000Y992000D02*
Y1010946D01*
X908759Y870825D02*
X913375Y875441D01*
X908759Y855241D02*
X917000Y847000D01*
X908759Y855241D02*
Y870825D01*
X917000Y847000D02*
X940549D01*
X782000Y1010946D02*
X794149Y1023095D01*
X841790D01*
X913375Y905304D02*
X913469Y905398D01*
X913375Y875441D02*
Y905304D01*
X913469Y905398D02*
Y951416D01*
X841790Y1023095D02*
X913469Y951416D01*
X940549Y847000D02*
X949000Y838549D01*
Y816000D02*
Y838549D01*
D45*
X806002Y947998D02*
X806004Y948000D01*
X807000D02*
X837996D01*
X839998Y945998D01*
X806004Y948000D02*
X807000D01*
X1128620Y513000D02*
X1142000Y526380D01*
X1158620Y543000D01*
X1213500D01*
X1222000Y534500D01*
X1016181Y513000D02*
X1128620D01*
X953841Y575340D02*
X1016181Y513000D01*
X1024192Y789820D02*
X1075980D01*
X879874Y800126D02*
X997502D01*
X1019038Y784666D02*
X1024192Y789820D01*
X1012962Y784666D02*
X1019038D01*
X997502Y800126D02*
X1012962Y784666D01*
X883962Y804666D02*
X1003334D01*
X1016000Y792000D01*
X868252Y811748D02*
X879874Y800126D01*
X868252Y811748D02*
Y837328D01*
X879000Y792000D02*
X922000D01*
X863712Y807288D02*
X879000Y792000D01*
X863712Y807288D02*
Y835447D01*
X877160Y777840D02*
X963160D01*
X843460Y811540D02*
X877160Y777840D01*
X843460Y811540D02*
Y842858D01*
X880620Y782380D02*
X982620D01*
X848000Y815000D02*
X880620Y782380D01*
X848000Y815000D02*
Y844738D01*
X816114Y870204D02*
X843460Y842858D01*
X712585Y870204D02*
X816114D01*
X816693Y876046D02*
X848000Y844738D01*
X712007Y876046D02*
X816693D01*
X817271Y881888D02*
X863712Y835447D01*
X711428Y881888D02*
X817271D01*
X767120Y938460D02*
X868252Y837328D01*
X744119Y938460D02*
X767120D01*
X872792Y815836D02*
Y839208D01*
X769000Y943000D02*
X872792Y839208D01*
X746000Y943000D02*
X769000D01*
X717634Y964946D02*
X744119Y938460D01*
X643636Y964946D02*
X717634D01*
X718466Y970534D02*
X746000Y943000D01*
X872792Y815836D02*
X883962Y804666D01*
X728380Y970620D02*
Y1001380D01*
X637794Y970534D02*
X718466D01*
X839998Y945998D02*
X841000Y947000D01*
X973000Y750000D02*
X978445Y744555D01*
Y741987D02*
Y744555D01*
Y741987D02*
X980000Y743542D01*
X978445Y586531D02*
Y741987D01*
X980000Y743542D02*
Y758000D01*
X978445Y586531D02*
X984956Y580020D01*
X980000Y758000D02*
X982770Y760770D01*
X882447Y706000D02*
X938200D01*
X874447Y714000D02*
X882447Y706000D01*
X863000Y714000D02*
X874447D01*
X935600Y703400D02*
X938200Y706000D01*
X811000Y766000D02*
X863000Y714000D01*
X935660Y575340D02*
X953841D01*
X916000Y583000D02*
X917100Y584100D01*
X926900D01*
X916300D02*
X917100D01*
X926900D02*
X935660Y575340D01*
X323000Y1017000D02*
X340080Y1034080D01*
X323000Y1005000D02*
Y1017000D01*
X362000Y951000D02*
X366353Y946647D01*
X364878Y920038D02*
X366353Y921512D01*
Y946647D01*
X301540Y941000D02*
X359019D01*
X304000Y951000D02*
X362000D01*
X364878Y911120D02*
X369000Y906998D01*
X364878Y911120D02*
Y920038D01*
X369000Y892000D02*
Y906998D01*
X372212Y936212D02*
X387000Y951000D01*
X372212Y917000D02*
Y936212D01*
X279540Y919000D02*
X301540Y941000D01*
X482999Y365001D02*
Y412999D01*
X457000Y468998D02*
X475999Y449999D01*
X500001D01*
X537380Y369000D02*
Y408620D01*
X542539Y374539D02*
Y409881D01*
X548000Y395579D02*
Y420000D01*
X537380Y369000D02*
X548000Y358380D01*
Y341000D02*
Y358380D01*
X542539Y374539D02*
X566999Y350080D01*
Y330999D02*
Y350080D01*
X545000Y303000D02*
X556000D01*
X558000Y272000D02*
X589000Y303000D01*
X521334Y272000D02*
X558000D01*
X513000Y280333D02*
X521334Y272000D01*
X578665Y272665D02*
X595665D01*
X597000Y274000D01*
Y301671D01*
X598620Y303291D01*
X566000Y260000D02*
X578665Y272665D01*
X505000Y260000D02*
X566000D01*
X494001Y271000D02*
X505000Y260000D01*
X494001Y271000D02*
Y277334D01*
X517000Y331000D02*
X545000Y303000D01*
X482999Y365001D02*
X517000Y331000D01*
X471000Y298000D02*
Y311000D01*
X566000Y439000D02*
Y452000D01*
X530380Y853454D02*
Y868934D01*
X525840Y851574D02*
Y867054D01*
Y851574D02*
X534619Y842795D01*
X539159Y800682D02*
Y844675D01*
X530380Y853454D02*
X539159Y844675D01*
X534619Y798802D02*
Y842795D01*
X497984Y891618D02*
X502158Y887444D01*
Y876553D02*
Y887444D01*
X497000Y871395D02*
X502158Y876553D01*
X534920Y869682D02*
X563798Y840804D01*
X534920Y869682D02*
Y879602D01*
X532126Y882396D02*
X534920Y879602D01*
X528066Y882396D02*
X532126D01*
X539460Y871562D02*
Y888119D01*
X527512Y893572D02*
X534007D01*
X539460Y888119D01*
X524256Y768096D02*
X529447Y762905D01*
X531596Y725596D02*
Y760724D01*
X529447Y762873D02*
X531596Y760724D01*
X529447Y762873D02*
Y762905D01*
X525780Y801220D02*
Y812800D01*
Y801220D02*
X565000Y762000D01*
X599026Y862650D02*
X705031D01*
X577180Y840804D02*
X599026Y862650D01*
X563798Y840804D02*
X577180D01*
X597146Y867190D02*
X703151D01*
X539460Y871562D02*
X565678Y845344D01*
X575300D02*
X597146Y867190D01*
X565678Y845344D02*
X575300D01*
X544000Y874000D02*
X552867Y865133D01*
X568646D01*
X572262Y861517D01*
Y852678D02*
Y861517D01*
X652780Y827786D02*
Y842010D01*
X630000Y805006D02*
X652780Y827786D01*
X734038Y901666D02*
X738334Y905962D01*
Y917746D01*
X630000Y796000D02*
Y805006D01*
X657860Y768350D02*
X665480D01*
X696938Y760730D02*
X698754Y762546D01*
X703000Y785000D02*
X727000D01*
X696500Y791500D02*
X703000Y785000D01*
X661880Y747540D02*
X768120D01*
X660000Y743000D02*
X770000D01*
X635881Y773540D02*
X661880Y747540D01*
X768120D02*
X776120Y755540D01*
X634000Y769000D02*
X660000Y743000D01*
X770000D02*
X778000Y751000D01*
X566301Y773540D02*
X635881D01*
X564421Y769000D02*
X634000D01*
X539159Y800682D02*
X566301Y773540D01*
X534619Y798802D02*
X564421Y769000D01*
X339832Y738886D02*
X365026Y764080D01*
X275700Y751200D02*
X288014Y738886D01*
X339832D01*
X365026Y764080D02*
X396319D01*
X267000Y713000D02*
X280112D01*
X292912Y725800D01*
X301100D01*
X454086Y835914D02*
X469339D01*
X443000Y847000D02*
X454086Y835914D01*
X483380Y763801D02*
Y835388D01*
X460000Y847000D02*
X471768D01*
X483380Y835388D01*
X394946Y769128D02*
X406400Y780582D01*
X331708Y769128D02*
X394946D01*
X328410Y765830D02*
X331708Y769128D01*
X323042Y787838D02*
X373380D01*
X380168Y781050D01*
X390906D01*
X406400Y780582D02*
Y807863D01*
X415401Y816864D01*
X449072D01*
X457208Y808728D01*
Y800604D02*
Y808728D01*
X469760Y783336D02*
Y811276D01*
X455036Y826000D02*
X469760Y811276D01*
X474300Y767562D02*
Y818134D01*
X437605Y837000D02*
X443484Y831121D01*
X461313D02*
X474300Y818134D01*
X443484Y831121D02*
X461313D01*
X430000Y826000D02*
X455036D01*
X309021Y649600D02*
X347475Y688054D01*
X374478D01*
X469760Y783336D01*
X323596Y657755D02*
X349355Y683514D01*
X390252D01*
X474300Y767562D01*
X348911Y655911D02*
X363898Y670898D01*
X384057D01*
X478840Y765681D01*
Y826413D01*
X469339Y835914D02*
X478840Y826413D01*
X372000Y652421D02*
X483380Y763801D01*
X391000Y665000D02*
X487920Y761920D01*
Y872229D01*
X482151Y877998D02*
X487920Y872229D01*
X475999Y877998D02*
X482151D01*
X408000Y666000D02*
X492460Y750460D01*
Y880459D01*
X493999Y881998D01*
X292890Y765830D02*
X328410D01*
X285869Y776600D02*
X289039Y773430D01*
Y769682D02*
X292890Y765830D01*
X289039Y769682D02*
Y773430D01*
X264160Y801960D02*
X275000Y812800D01*
X267716Y764540D02*
X287760D01*
X264160Y768096D02*
Y801960D01*
Y768096D02*
X267716Y764540D01*
X287760D02*
X301100Y751200D01*
X275700Y776600D02*
X285869D01*
X275000Y812800D02*
Y922000D01*
X416814Y784576D02*
Y796798D01*
X396319Y764080D02*
X416814Y784576D01*
X339059Y700400D02*
X425450Y786791D01*
Y807212D01*
X372000Y630000D02*
Y652421D01*
X301100Y624200D02*
X323596Y646696D01*
Y657755D01*
X301100Y649600D02*
X309021D01*
X469000Y951000D02*
X479666Y961666D01*
Y986666D01*
X480000Y987000D01*
X468000Y974739D02*
Y990000D01*
X875900Y587000D02*
X876700Y586200D01*
X935600Y683500D02*
Y703400D01*
X387000Y951000D02*
X469000D01*
X391460Y946460D02*
X475000D01*
X412000Y941920D02*
X485659D01*
X415000Y937380D02*
X483779D01*
X733000Y428000D02*
X754000D01*
X729000Y424000D02*
X733000Y428000D01*
X591000Y392000D02*
X817000D01*
X717000Y286000D02*
X724000Y293000D01*
X739000D01*
X717000Y271000D02*
Y286000D01*
X807790Y356790D02*
X822000Y371000D01*
X804000Y356790D02*
X807790D01*
X767000Y452000D02*
X769000D01*
X786000Y435000D01*
X598620Y303291D02*
Y369380D01*
X863000Y920000D02*
Y925000D01*
Y920000D02*
X871000Y928000D01*
X863000Y864000D02*
Y920000D01*
X502795Y447205D02*
X520795D01*
X548000Y395579D02*
X567302Y376277D01*
X520795Y447205D02*
X548000Y420000D01*
X553000Y426000D02*
X566000Y439000D01*
X553000Y397000D02*
X589000Y361000D01*
X536000Y690000D02*
X570000D01*
X565000Y714240D02*
Y762000D01*
Y714240D02*
X579620Y699620D01*
Y686015D02*
Y699620D01*
X573985Y680380D02*
X579620Y686015D01*
X568380Y680380D02*
X573985D01*
X544200Y656200D02*
X568380Y680380D01*
X524000Y678000D02*
X536000Y690000D01*
X393000Y806000D02*
Y887975D01*
X389000Y891975D02*
X393000Y887975D01*
X328000Y675000D02*
X438000Y785000D01*
Y806000D01*
X415000Y837000D02*
X437605D01*
X547985Y978620D02*
X556605Y970000D01*
X540015Y978620D02*
X547985D01*
X531395Y970000D02*
X540015Y978620D01*
X528000Y970000D02*
X531395D01*
X525000Y946000D02*
X536000Y935000D01*
X525000Y946000D02*
Y959000D01*
X982770Y760770D02*
X1072000D01*
X1094667Y787000D02*
X1107000Y774667D01*
X1072010Y760780D02*
X1102780D01*
X1107000Y765000D01*
Y774667D01*
X1071250Y807750D02*
X1092000Y787000D01*
X1094667D01*
X1072000Y760770D02*
X1072010Y760780D01*
X984956Y580020D02*
X1149247D01*
X1160467Y568800D01*
X1170000D01*
X723840Y993840D02*
Y1003260D01*
X340080Y1034080D02*
X740000D01*
X1187800Y551000D02*
X1223000D01*
X1233000Y541000D01*
Y529105D02*
Y541000D01*
X1222000Y518105D02*
X1233000Y529105D01*
X1222000Y517500D02*
Y518105D01*
X1170000Y568800D02*
X1187800Y551000D01*
X452576Y1005424D02*
X468000Y990000D01*
X452576Y1005424D02*
Y1015000D01*
X557000Y803000D02*
X563000Y797000D01*
X591000D01*
X557000Y803000D02*
Y824000D01*
X573500D02*
X574000Y824500D01*
X557000Y824000D02*
X573500D01*
X520999Y734998D02*
Y739001D01*
X493000Y687000D02*
X531596Y725596D01*
X498000Y980000D02*
Y997000D01*
X497569Y936431D02*
Y979569D01*
X498000Y980000D01*
X487000Y958460D02*
Y967000D01*
X475000Y946460D02*
X487000Y958460D01*
X436000Y919920D02*
Y921000D01*
Y919920D02*
X464302Y891618D01*
X389000Y891975D02*
X410013Y912987D01*
Y932393D02*
X415000Y937380D01*
X410013Y912987D02*
Y932393D01*
X329605Y839000D02*
X402605Y912000D01*
Y932525D02*
X412000Y941920D01*
X402605Y912000D02*
Y932525D01*
X384000Y917000D02*
Y939000D01*
X391460Y946460D01*
X483380Y723843D02*
X497000Y737463D01*
X464302Y891618D02*
X497984D01*
X497000Y737463D02*
Y871395D01*
X316000Y839000D02*
X329605D01*
X728380Y1001380D02*
X744000Y1017000D01*
X756000D01*
X728380Y970620D02*
X751002Y947998D01*
X483380Y683015D02*
X535895Y630500D01*
X629500D02*
X678200Y581800D01*
X483380Y683015D02*
Y723843D01*
X535895Y630500D02*
X629500D01*
X288421Y802000D02*
X308881D01*
X323042Y787838D01*
X275000Y922000D02*
X304000Y951000D01*
X279540Y810881D02*
Y919000D01*
Y810881D02*
X288421Y802000D01*
X966000Y821589D02*
X979912Y835500D01*
X965000Y914000D02*
X981250Y897750D01*
X964870Y913870D02*
X965000Y914000D01*
X544000Y874000D02*
Y883727D01*
X545273Y888727D02*
X549000D01*
X544000Y883727D02*
X549000Y888727D01*
X556000Y878000D02*
X562376D01*
X568646Y871730D01*
X609000Y824500D02*
Y835000D01*
X568646Y871730D02*
X701270D01*
X1121250Y795350D02*
Y807750D01*
X730500Y788500D02*
Y802000D01*
X727000Y785000D02*
X730500Y788500D01*
X1016036Y835500D02*
X1016036Y835500D01*
X979912Y835500D02*
X1016036D01*
X802000Y990000D02*
Y1002000D01*
X808000Y1008000D01*
X1068400Y550600D02*
Y568800D01*
X974000Y767000D02*
X1016000D01*
X1032220Y783220D02*
X1057180D01*
X1016000Y767000D02*
X1032220Y783220D01*
X1075980Y789820D02*
X1093800Y772000D01*
X1057180Y783220D02*
X1068400Y772000D01*
X408000Y629000D02*
Y666000D01*
X391000Y630000D02*
Y665000D01*
X348911Y636825D02*
Y655911D01*
X301100Y700400D02*
X339059D01*
X897500Y669500D02*
X903000Y664000D01*
X897500Y669500D02*
Y683500D01*
X878700Y599700D02*
X894000Y615000D01*
X936000D01*
X872100Y663900D02*
Y683500D01*
Y663900D02*
X878000Y658000D01*
X941000D01*
X945000Y624000D02*
Y654000D01*
X936000Y615000D02*
X945000Y624000D01*
X941000Y658000D02*
X945000Y654000D01*
X903000Y664000D02*
X941421D01*
X951000Y654420D01*
Y620900D02*
Y654420D01*
X931300Y601200D02*
X951000Y620900D01*
X1207750Y807750D02*
X1221250D01*
X981000Y862000D02*
X986458Y867458D01*
X917998Y866998D02*
X925243D01*
X930241Y862000D01*
X981000D01*
X1042000Y871998D02*
X1096770Y817228D01*
X938998Y871998D02*
X1042000D01*
X1040119Y867458D02*
X1092230Y815348D01*
Y796626D02*
Y815348D01*
X986458Y867458D02*
X1040119D01*
X1096770Y798506D02*
X1105638Y789638D01*
X1096770Y798506D02*
Y817228D01*
X1131888Y789638D02*
X1150000Y807750D01*
X1105638Y789638D02*
X1131888D01*
X1150000Y807750D02*
X1171250D01*
X1092230Y796626D02*
X1103758Y785098D01*
X1133769D01*
X1139000Y790330D02*
X1190330D01*
X1133769Y785098D02*
X1139000Y790330D01*
X1190330D02*
X1207750Y807750D01*
X665000Y660000D02*
Y704000D01*
X681000Y720000D01*
X800000D01*
X542073Y898347D02*
X549257D01*
X502109Y938311D02*
X542073Y898347D01*
X497569Y936431D02*
X545273Y888727D01*
X502109Y938311D02*
Y960688D01*
X505420Y964000D02*
X520000D01*
X525000Y959000D01*
X502109Y960688D02*
X505420Y964000D01*
X863000Y864000D02*
X872000Y855000D01*
X966000Y813000D02*
Y821589D01*
X963160Y777840D02*
X974000Y767000D01*
X982620Y782380D02*
X985000Y780000D01*
X301100Y675000D02*
X328000D01*
X588000Y985000D02*
Y1001000D01*
X579000Y1010000D02*
X588000Y1001000D01*
X579000Y1010000D02*
Y1011000D01*
X498000Y997000D02*
X512000Y1011000D01*
X579000D01*
X457000Y478000D02*
X515000D01*
X543000Y450000D01*
X589000Y303000D02*
Y361000D01*
X648000Y335000D02*
X675000D01*
X713000Y373000D01*
X648999Y335999D02*
Y373999D01*
X648000Y335000D02*
X648999Y335999D01*
X743000Y503000D02*
X826000D01*
X931250Y397750D01*
X581000Y441000D02*
Y501000D01*
X576000Y403000D02*
X754000D01*
X786000Y435000D01*
X583000Y377000D02*
X591000D01*
X562000Y398000D02*
X583000Y377000D01*
X562000Y398000D02*
Y422000D01*
X581000Y441000D01*
X591000Y377000D02*
X598620Y369380D01*
X421000Y490000D02*
X570000D01*
X581000Y501000D01*
X497000Y630000D02*
X509624D01*
X625000Y661000D02*
Y682000D01*
X664000Y721000D01*
X359000Y487000D02*
X375000Y471000D01*
X359000Y487000D02*
Y493000D01*
X567302Y360302D02*
Y376277D01*
X822000Y371000D02*
Y387000D01*
X817000Y392000D02*
X822000Y387000D01*
X844000Y367000D02*
Y387000D01*
X812000Y335000D02*
X844000Y367000D01*
X751000Y335000D02*
X812000D01*
X713000Y373000D02*
X751000Y335000D01*
X916300Y601200D02*
X931300D01*
X832000Y597000D02*
X843000Y586000D01*
X869300D01*
X872150Y583150D01*
X536000Y935000D02*
X574320D01*
X582780Y943460D01*
X544000Y969000D02*
X555420Y957580D01*
X614172D01*
X556605Y970000D02*
X614654D01*
X628654Y984000D01*
X675000D01*
X540000Y948000D02*
X615260D01*
X582780Y943460D02*
X622150D01*
X614172Y957580D02*
X632460Y975868D01*
X705868D01*
X723840Y993840D01*
X615260Y948000D02*
X637794Y970534D01*
X622150Y943460D02*
X643636Y964946D01*
X701270Y871730D02*
X711428Y881888D01*
X778000Y751000D02*
X796114D01*
X859400Y687714D01*
Y683500D02*
Y687714D01*
X776120Y755540D02*
X804020D01*
X853694Y705866D01*
X873252D01*
X884800Y694318D01*
Y683500D02*
Y694318D01*
X872150Y583150D02*
X877000D01*
X1068400Y550600D02*
X1083000Y536000D01*
X609000Y835000D02*
X623000Y849000D01*
X615000Y880500D02*
X630818D01*
X626826Y931450D02*
X648416Y953040D01*
X703040D01*
X738334Y917746D01*
X558069Y888727D02*
X566296Y880500D01*
X577000D01*
X554482Y888727D02*
X558069D01*
X549000D02*
X554482D01*
X556800Y891045D01*
X564134Y901700D02*
X570801D01*
X556800Y917734D02*
X563912Y924846D01*
X580344D01*
X586948Y931450D01*
X626826D01*
X556800Y891045D02*
Y917734D01*
X570801Y901700D02*
X577881Y894620D01*
X614120D01*
X597662Y922528D02*
X602234Y917956D01*
X597662Y901954D02*
X602234Y906526D01*
Y917956D01*
X672846Y839978D02*
X673368Y840500D01*
X673354Y824721D02*
Y826008D01*
Y824721D02*
X679958Y818117D01*
X700258D01*
X729996Y802504D02*
Y819912D01*
Y802504D02*
X730500Y802000D01*
X471000Y311000D02*
X491000Y331000D01*
X517000D01*
X457000Y468998D02*
Y478000D01*
X500001Y449999D02*
X502795Y447205D01*
X497830Y442840D02*
X498006Y442665D01*
X446000Y436000D02*
X446206Y435794D01*
X453584D01*
X467605Y421773D01*
Y348395D02*
X472000Y344000D01*
X487000D01*
X467605Y348395D02*
Y421773D01*
X469728Y442665D02*
X479037D01*
X479212Y442840D01*
X497830D01*
X384000Y487000D02*
X391126Y479874D01*
X432519D02*
X469728Y442665D01*
X391126Y479874D02*
X432519D01*
X498006Y442665D02*
X509755D01*
X467848Y438125D02*
X507875D01*
X553000Y397000D02*
Y426000D01*
X509755Y442665D02*
X542539Y409881D01*
X507875Y438125D02*
X537380Y408620D01*
X474000Y358000D02*
X479000Y353000D01*
X474000Y358000D02*
Y421798D01*
X439999Y436000D02*
X446000D01*
X388999Y458999D02*
X417000D01*
X439999Y436000D01*
X375000Y471000D02*
X434973D01*
X467848Y438125D01*
X455464Y440334D02*
X474000Y421798D01*
X448666Y440334D02*
X455464D01*
X428000Y461000D02*
X448666Y440334D01*
X513079Y879814D02*
X525840Y867054D01*
X513079Y879814D02*
Y908080D01*
X483779Y937380D02*
X513079Y908080D01*
X519000Y880314D02*
Y908579D01*
X485659Y941920D02*
X519000Y908579D01*
Y880314D02*
X530380Y868934D01*
X703151Y867190D02*
X712007Y876046D01*
X705031Y862650D02*
X712585Y870204D01*
X630818Y880500D02*
X637000Y886682D01*
Y905000D01*
X614120Y894620D02*
X630500Y911000D01*
X736484Y826400D02*
X748000D01*
X729996Y819912D02*
X736484Y826400D01*
X695100Y844600D02*
X710000D01*
X691000Y840500D02*
X695100Y844600D01*
X673368Y840500D02*
X691000D01*
X712949Y825451D02*
X713000Y825400D01*
X686054Y825451D02*
X712949D01*
X695900Y798000D02*
Y806677D01*
X689000Y813577D02*
X695900Y806677D01*
X696500Y791500D02*
Y798000D01*
X644000Y808000D02*
X649577Y813577D01*
X644000Y782210D02*
Y808000D01*
X649577Y813577D02*
X689000D01*
X644000Y782210D02*
X657860Y768350D01*
X659900Y789678D02*
Y798000D01*
Y789678D02*
X686816Y762762D01*
X679100Y787900D02*
Y798000D01*
Y787900D02*
X688998Y778002D01*
X679500Y798000D02*
Y802000D01*
X688998Y778002D02*
X702564D01*
X715100Y798000D02*
Y803275D01*
X700258Y818117D02*
X715100Y803275D01*
X702564Y778002D02*
X711851Y768715D01*
X686816Y762762D02*
X698754D01*
Y762546D02*
Y762762D01*
X711851Y762254D02*
Y768715D01*
X724154Y762000D02*
X736000D01*
X745500Y771500D01*
Y792400D01*
X751100Y798000D01*
X748000Y826400D02*
X748614D01*
X764000Y811014D01*
Y776628D02*
Y811014D01*
Y776628D02*
X774628Y766000D01*
X811000D01*
X628500Y913000D02*
X630500Y911000D01*
X628000Y913000D02*
X628500D01*
X646000Y914000D02*
X648000D01*
X712500D02*
X717500Y909000D01*
X731000D01*
X653000Y900600D02*
X656140D01*
X647000Y915000D02*
X648000Y914000D01*
X637000Y905000D02*
X646000Y914000D01*
X647000Y915000D01*
X648000Y914000D02*
X712500D01*
X656140Y900600D02*
X663540Y908000D01*
X687000D01*
X693334Y901666D01*
X734038D01*
X917000Y812000D02*
Y815000D01*
X921563Y922278D02*
Y930289D01*
X921780Y930507D01*
Y952220D01*
X844460Y1029540D02*
X921780Y952220D01*
X723840Y1003260D02*
X750119Y1029540D01*
X844460D01*
X921563Y922278D02*
X929971Y913870D01*
X964870D01*
X906930Y907973D02*
X907025Y908068D01*
Y938135D01*
X906930Y878111D02*
Y907973D01*
X899000Y833000D02*
Y870181D01*
X906930Y878111D01*
X899000Y833000D02*
X917000Y815000D01*
X808000Y1008000D02*
X837159D01*
X907025Y938135D01*
X841000Y947000D02*
X863000Y925000D01*
X751002Y947998D02*
X806002D01*
X798656Y597000D02*
X832000D01*
D46*
X856000Y729000D02*
X945000D01*
X951000Y723000D01*
X809000Y776000D02*
X856000Y729000D01*
X775000Y776000D02*
X809000D01*
X296000Y962000D02*
X324592Y990592D01*
X439405D01*
X528000Y333840D02*
Y407000D01*
X561513Y315000D02*
X570000Y306513D01*
X546840Y315000D02*
X561513D01*
X528000Y333840D02*
X546840Y315000D01*
X564000Y289000D02*
X570000Y295000D01*
Y306513D01*
X316998Y854000D02*
X316999Y853998D01*
X303000Y854000D02*
X316998D01*
X298000Y849000D02*
X303000Y854000D01*
X298000Y821998D02*
Y849000D01*
Y821998D02*
X307999Y811998D01*
X453000Y298000D02*
X467095Y283905D01*
X477000D01*
X492095Y299000D01*
X749046Y903224D02*
Y919480D01*
X645192Y832580D02*
Y845153D01*
Y832580D02*
X645414Y832358D01*
X616500Y809500D02*
X639358Y832358D01*
X645414D01*
X645192Y845153D02*
X656657Y856618D01*
X464000Y961000D02*
Y965997D01*
X439405Y990592D02*
X464000Y965997D01*
X574000Y809500D02*
X616500D01*
X802800Y734200D02*
X809620Y727380D01*
X779800Y734200D02*
X802800D01*
X809620Y696380D02*
Y727380D01*
Y696380D02*
X859400Y646600D01*
Y635500D02*
Y646600D01*
X595000Y656200D02*
Y682000D01*
X647200Y734200D01*
X779800D01*
X1016036Y820500D02*
X1016036Y820500D01*
X982036Y820500D02*
X1016036D01*
X337000Y715000D02*
X368000Y746000D01*
X322000Y715000D02*
X337000D01*
X429999Y666999D02*
X483999D01*
X418000Y655000D02*
X429999Y666999D01*
X453000Y298000D02*
Y322189D01*
X512000Y939864D02*
Y952000D01*
X584962Y936244D02*
X624840D01*
X646430Y957834D01*
X710692D01*
X749046Y919480D01*
X1107694Y524002D02*
X1119200Y535508D01*
Y568800D01*
X1012190Y566674D02*
X1023620D01*
X512000Y939864D02*
X522224Y929640D01*
X578358D01*
X584962Y936244D01*
X431000Y431000D02*
X451598D01*
X462811Y332000D02*
Y419787D01*
X453000Y322189D02*
X462811Y332000D01*
X451598Y431000D02*
X462811Y419787D01*
X412000Y450000D02*
X431000Y431000D01*
X1066292Y524002D02*
X1107694D01*
X1023620Y566674D02*
X1066292Y524002D01*
X656657Y856618D02*
X727382D01*
X738400Y845600D02*
X748000D01*
X727382Y856618D02*
X738400Y845600D01*
X1016036Y820500D02*
X1038500D01*
X1040000Y819000D01*
Y807000D02*
Y819000D01*
X748000Y845600D02*
X756378D01*
X769366Y832612D01*
Y781634D02*
X775000Y776000D01*
X769366Y781634D02*
Y832612D01*
X532667Y283333D02*
X534001D01*
X517000Y299000D02*
X532667Y283333D01*
X492095Y299000D02*
X517000D01*
X534001Y283333D02*
X543334D01*
X549000Y289000D01*
X564000D01*
X653000Y881400D02*
X660400D01*
X742694Y896872D02*
X749046Y903224D01*
X660400Y881400D02*
X671000Y892000D01*
Y899000D01*
X686000D01*
X688128Y896872D01*
X742694D01*
D47*
X1103000Y506000D02*
X1121250Y487750D01*
X1014314Y506000D02*
X1103000D01*
X951244Y569070D02*
X1014314Y506000D01*
X881250Y897750D02*
Y937750D01*
X852000Y967000D02*
X881250Y937750D01*
X756000Y967000D02*
X852000D01*
X780930Y569070D02*
X951244D01*
X947930Y561070D02*
X1021250Y487750D01*
X758930Y561070D02*
X947930D01*
X740000Y610000D02*
X780930Y569070D01*
X725000Y595000D02*
X758930Y561070D01*
X734000Y711000D02*
X740000Y705000D01*
X725000Y595000D02*
Y695000D01*
X697999Y692999D02*
X716000Y711000D01*
X734000D01*
X740000Y610000D02*
Y705000D01*
X1021250Y487750D02*
X1071250D01*
X745000Y978000D02*
X756000Y967000D01*
D51*
X275700Y776600D02*
D03*
X301100D02*
D03*
X275700Y751200D02*
D03*
X301100D02*
D03*
X275700Y725800D02*
D03*
X301100D02*
D03*
X275700Y700400D02*
D03*
X301100D02*
D03*
X275700Y675000D02*
D03*
X301100D02*
D03*
X275700Y649600D02*
D03*
X301100D02*
D03*
X275700Y624200D02*
D03*
D52*
X301100D02*
D03*
D53*
X881250Y397750D02*
D03*
X931250D02*
D03*
X1031250D02*
D03*
X1071250Y487750D02*
D03*
X1121250D02*
D03*
X1221250D02*
D03*
X1031250Y897750D02*
D03*
X981250D02*
D03*
X881250D02*
D03*
X1221250Y807750D02*
D03*
X1171250D02*
D03*
X1071250D02*
D03*
D54*
X981250Y397750D02*
D03*
X1171250Y487750D02*
D03*
X931250Y897750D02*
D03*
X1121250Y807750D02*
D03*
D55*
X544200Y656200D02*
D03*
Y707000D02*
D03*
Y732400D02*
D03*
Y757800D02*
D03*
X595000Y707000D02*
D03*
Y732400D02*
D03*
Y757800D02*
D03*
D56*
Y656200D02*
D03*
D57*
X871800Y761100D02*
D03*
X897200D02*
D03*
D58*
X922600D02*
D03*
D59*
X678200Y581800D02*
D03*
X779800Y734200D02*
D03*
D60*
X1043000Y772000D02*
D03*
X1068400D02*
D03*
X1093800D02*
D03*
X1119200D02*
D03*
X1144600D02*
D03*
Y568800D02*
D03*
X1119200D02*
D03*
X1093800D02*
D03*
X1068400D02*
D03*
X1043000D02*
D03*
D61*
X1170000Y772000D02*
D03*
Y568800D02*
D03*
D62*
X807000Y948000D02*
D03*
X1023000Y532000D02*
D03*
X885000Y818000D02*
D03*
X810000Y851000D02*
D03*
X823000D02*
D03*
X951000Y723000D02*
D03*
X947000Y706000D02*
D03*
X1040000Y521000D02*
D03*
X296000Y962000D02*
D03*
X323000Y1005000D02*
D03*
X359019Y941000D02*
D03*
X372212Y917000D02*
D03*
X482999Y412999D02*
D03*
X475999Y449999D02*
D03*
X528000Y407000D02*
D03*
X548000Y341000D02*
D03*
X566999Y330999D02*
D03*
X556000Y303000D02*
D03*
X534001Y283333D02*
D03*
X745000Y978000D02*
D03*
X471000Y298000D02*
D03*
X487000Y344000D02*
D03*
X479000Y353000D02*
D03*
X566000Y452000D02*
D03*
X528066Y882396D02*
D03*
X527512Y893572D02*
D03*
X524256Y768096D02*
D03*
X525780Y812800D02*
D03*
X572262Y852678D02*
D03*
X652780Y842010D02*
D03*
X645414Y832358D02*
D03*
X731000Y909000D02*
D03*
X673354Y826008D02*
D03*
X724154Y762000D02*
D03*
X665480Y768350D02*
D03*
X457208Y800604D02*
D03*
X390906Y781050D02*
D03*
X416814Y796798D02*
D03*
X425450Y807212D02*
D03*
X464000Y961000D02*
D03*
X467127Y974739D02*
D03*
X729000Y424000D02*
D03*
X717000Y271000D02*
D03*
X513000Y280333D02*
D03*
X871000Y928000D02*
D03*
X435000Y346000D02*
D03*
X437000Y410000D02*
D03*
X393000Y806000D02*
D03*
X438000D02*
D03*
X430000Y826000D02*
D03*
X415000Y837000D02*
D03*
X675000Y984000D02*
D03*
X528000Y970000D02*
D03*
X497000Y630000D02*
D03*
X740000Y1034080D02*
D03*
X452576Y1015000D02*
D03*
X557000Y824000D02*
D03*
X591000Y797000D02*
D03*
X520999Y734998D02*
D03*
X672000Y1019000D02*
D03*
X487000Y967000D02*
D03*
X480000Y987000D02*
D03*
X436000Y921000D02*
D03*
X756000Y1017000D02*
D03*
X307999Y811998D02*
D03*
X316999Y853998D02*
D03*
X556000Y878000D02*
D03*
X549257Y898347D02*
D03*
X802000Y990000D02*
D03*
X817998Y990998D02*
D03*
X1016000Y792000D02*
D03*
X985000Y780000D02*
D03*
X460000Y847000D02*
D03*
X443000D02*
D03*
X408000Y629000D02*
D03*
X391000Y630000D02*
D03*
X372000Y630000D02*
D03*
X348911Y636825D02*
D03*
X630000Y796000D02*
D03*
X475999Y877998D02*
D03*
X493999Y881998D02*
D03*
X540000Y948000D02*
D03*
X493000Y687000D02*
D03*
X570000Y690000D02*
D03*
X524000Y678000D02*
D03*
X384000Y917000D02*
D03*
X369000Y892000D02*
D03*
X316000Y839000D02*
D03*
X800000Y720000D02*
D03*
X665000Y660000D02*
D03*
X368000Y747000D02*
D03*
X322000Y715000D02*
D03*
X544000Y969000D02*
D03*
X917998Y866998D02*
D03*
X938998Y871998D02*
D03*
X697999Y692999D02*
D03*
X725000Y695000D02*
D03*
X512000Y952000D02*
D03*
X872000Y855000D02*
D03*
X966000Y813000D02*
D03*
X922000Y792000D02*
D03*
X317000Y601000D02*
D03*
X442000Y629000D02*
D03*
X326999Y729998D02*
D03*
X483999Y666999D02*
D03*
X418000Y655000D02*
D03*
X588000Y985000D02*
D03*
X384000Y487000D02*
D03*
X457000Y478000D02*
D03*
X543000Y450000D02*
D03*
X589000Y361000D02*
D03*
X567302Y360302D02*
D03*
X786000Y435000D02*
D03*
X591000Y377000D02*
D03*
X648000Y335000D02*
D03*
X713000Y373000D02*
D03*
X648999Y373999D02*
D03*
X743000Y503000D02*
D03*
X581000Y441000D02*
D03*
Y501000D02*
D03*
X591000Y392000D02*
D03*
X576000Y403000D02*
D03*
X494001Y277334D02*
D03*
X421000Y490000D02*
D03*
X664000Y721000D02*
D03*
X359000Y493000D02*
D03*
X388999Y458999D02*
D03*
X265000Y507000D02*
D03*
X822000Y387000D02*
D03*
X844000D02*
D03*
X1083000Y536000D02*
D03*
X1012190Y566674D02*
D03*
X623000Y849000D02*
D03*
X564134Y901700D02*
D03*
X597662Y901954D02*
D03*
Y922528D02*
D03*
X672846Y839978D02*
D03*
X686054Y825451D02*
D03*
X729996Y819912D02*
D03*
X412000Y450000D02*
D03*
X428000Y461000D02*
D03*
X782000Y992000D02*
D03*
X1040000Y807000D02*
D03*
X698754Y762762D02*
D03*
X711851Y762254D02*
D03*
X775000Y776000D02*
D03*
X628000Y913000D02*
D03*
X646000Y914000D02*
D03*
X671000Y899000D02*
D03*
X917000Y812000D02*
D03*
X949000Y816000D02*
D03*
X798656Y597000D02*
D03*
D63*
X859400Y683500D02*
D03*
X872100D02*
D03*
X884800D02*
D03*
X897500D02*
D03*
X910200D02*
D03*
X922900D02*
D03*
X935600D02*
D03*
X859400Y635500D02*
D03*
X872100D02*
D03*
X884800D02*
D03*
X897500D02*
D03*
X910200D02*
D03*
X922900D02*
D03*
X935600D02*
D03*
M02*
